<svg version="1.1" id="Layer_1" xmlns="http://www.w3.org/2000/svg" xmlns:xlink="http://www.w3.org/1999/xlink" x="0px" y="0px"
width="200px" height="200px"  viewBox="0 0 1024 1024" enable-background="new 0 0 1024 1024" xml:space="preserve">
<path fill="#000000" opacity="1.000000" stroke="none" 
	d="
M441.303436,15.121524 
	C464.552551,11.919306 487.478271,10.293116 510.495880,10.806649 
	C563.282898,11.984352 614.706360,20.387472 664.612488,38.375641 
	C711.083618,55.125702 754.301025,77.665024 793.640198,107.414223 
	C847.270020,147.970398 891.681580,196.906494 926.003601,254.900803 
	C953.218811,300.886505 970.571350,350.379730 980.182373,402.813477 
	C987.268555,441.472626 990.415771,480.441223 988.967163,519.646973 
	C986.231689,593.685303 969.406921,664.262695 935.177795,730.345398 
	C915.129578,769.050537 890.148560,804.236633 860.636169,836.291016 
	C812.470154,888.605713 755.435791,927.952637 689.760132,955.242432 
	C655.398376,969.520447 619.844543,979.119995 583.416992,985.788940 
	C559.443298,990.177917 535.215698,991.986267 510.816864,990.231934 
	C508.079773,990.035095 508.076202,990.084717 504.880310,987.051575 
	C524.360107,982.006287 543.987549,983.669678 562.743164,979.227661 
	C552.262878,979.959045 541.755005,980.419373 531.308899,981.485718 
	C515.826538,983.066040 500.338623,982.388672 484.870483,981.934448 
	C463.049347,981.293701 441.476410,977.936768 419.878998,974.984436 
	C387.694366,970.584656 356.935822,961.641235 327.206238,948.310974 
	C292.567017,932.779297 259.436005,914.758484 228.714417,892.527954 
	C189.715668,864.307983 155.897171,830.702148 126.954948,792.208252 
	C103.643677,761.203674 83.334351,728.435425 68.217072,692.603149 
	C67.268517,690.354736 67.308418,690.337891 67.669022,687.434937 
	C70.506592,687.571655 70.778778,690.055298 71.689491,691.866455 
	C84.568985,717.480103 98.109528,742.734192 114.156616,766.526306 
	C137.744537,801.498779 165.004074,833.430725 196.708496,861.239624 
	C237.886932,897.358398 284.653961,924.562134 334.890717,946.265442 
	C360.133331,957.170776 385.944916,965.954224 412.992737,970.042969 
	C435.813812,973.492737 458.833313,975.860291 482.006042,976.889099 
	C537.005676,979.330994 590.683411,971.877747 643.273865,956.443054 
	C674.364014,947.318481 703.741211,933.834534 732.139648,918.173706 
	C766.377258,899.292786 796.730652,875.254089 825.438904,848.978271 
	C846.392517,829.800110 865.787048,809.005676 881.549255,785.458557 
	C890.555420,772.004272 898.808716,757.860596 907.116821,743.851990 
	C922.021240,718.720947 935.166077,692.742676 945.837463,665.565674 
	C957.703613,635.345886 964.408691,603.760498 969.634216,571.821655 
	C972.540771,554.056335 974.485718,536.176270 974.735474,518.194092 
	C975.005737,498.735077 977.771362,479.323578 975.784302,459.818115 
	C975.249390,454.567352 975.070496,449.285248 973.671387,444.153076 
	C975.044495,463.968353 972.361267,483.667816 972.284180,503.432404 
	C972.112549,547.429810 963.906250,590.145020 950.912659,632.033875 
	C942.320679,659.732788 932.922546,687.196106 920.421082,713.364197 
	C900.672668,754.701355 874.526672,791.765869 842.866455,824.917419 
	C816.525085,852.499634 787.905457,877.381470 755.556458,897.706543 
	C732.553589,912.159363 708.981079,925.621887 683.334839,935.003967 
	C681.822693,935.557190 680.304199,936.504761 677.551819,935.224792 
	C689.844299,926.639709 704.007019,922.538818 715.902649,913.929016 
	C713.098206,913.867920 711.342102,916.693542 708.371704,915.585754 
	C708.413879,912.980896 710.767456,912.671204 712.276184,911.836243 
	C753.221191,889.176208 790.273071,861.320801 823.146240,828.043396 
	C836.253296,814.775085 848.473633,800.648071 858.741028,783.379211 
	C857.037537,784.913086 856.147095,785.644958 855.335632,786.455933 
	C843.317627,798.466736 832.473022,812.239502 817.986023,820.966003 
	C803.362305,829.774902 792.373474,842.806458 777.946960,851.527527 
	C775.434509,853.046265 773.118225,854.943726 769.553345,855.708008 
	C770.180176,852.506287 772.229980,850.975037 774.090332,849.632507 
	C791.750061,836.888367 806.808350,821.298157 822.210510,806.068970 
	C824.343323,803.960022 825.880981,800.289490 830.328918,802.006775 
	C831.503601,802.460327 832.523926,800.240723 833.485779,799.127563 
	C858.346497,770.356201 878.573425,738.492188 896.463135,705.043640 
	C917.335266,666.018738 930.168884,624.138123 937.750549,580.904053 
	C940.895752,562.968628 945.761963,544.888672 944.674133,526.303040 
	C943.485474,505.996307 944.560303,485.642914 943.521912,465.365784 
	C942.691833,449.157471 939.576660,433.069580 938.664246,416.861359 
	C936.853088,384.685638 926.862427,354.475159 915.909912,324.800446 
	C905.889160,297.650452 892.008179,272.034363 876.276917,247.593918 
	C863.459473,227.680542 849.219116,208.783447 834.850952,189.980316 
	C825.372253,177.575897 812.730652,168.400558 801.500122,157.841629 
	C764.391418,122.951851 722.056580,95.580208 675.329468,75.445946 
	C640.349792,60.373528 603.838623,49.968433 566.067871,44.326752 
	C533.007874,39.388706 499.626556,37.209240 466.438538,39.807880 
	C436.801910,42.128448 407.601959,48.733116 378.867035,56.988361 
	C317.037964,74.751213 261.997589,104.992287 212.863373,146.230957 
	C202.276657,155.116455 192.849823,165.326096 182.632568,174.596085 
	C158.921722,196.108582 140.291168,221.713867 123.360321,248.382324 
	C105.694016,276.209229 90.623756,305.617737 79.633331,336.902710 
	C67.730103,370.786072 58.955421,405.466522 54.616886,441.099060 
	C51.942863,463.060913 50.593571,485.199127 50.116062,507.356171 
	C50.039238,510.921082 50.129246,514.569824 47.634079,517.814941 
	C45.037392,491.738678 46.514683,465.769623 49.467186,439.801392 
	C52.425938,413.778107 57.998745,388.285858 64.669640,362.697754 
	C60.984249,368.190826 51.634773,410.697968 48.062649,434.608093 
	C44.450390,458.786865 43.798420,483.315033 40.417175,508.016937 
	C36.240261,506.551086 36.844845,504.129456 36.787418,502.132812 
	C35.738224,465.652069 39.428516,429.645782 47.245274,394.001312 
	C50.421803,379.516266 53.957344,365.156097 58.475773,351.019836 
	C51.056095,363.304749 46.964920,376.959290 42.238731,390.767242 
	C42.172253,364.995575 76.908615,272.348969 119.010201,214.115936 
	C157.550537,160.808640 203.605774,115.848145 259.576935,80.973160 
	C315.425293,46.174702 375.884613,24.575975 441.303436,15.121524 
z"/>
<path fill="#000000" opacity="1.000000" stroke="none" 
	d="
M617.955322,487.009216 
	C621.649780,488.964966 625.229858,490.364868 627.985718,493.194824 
	C632.021667,497.339203 632.425049,501.543488 628.818420,506.078125 
	C624.942200,510.951660 619.694397,512.691895 613.684448,511.806458 
	C604.315247,510.426208 595.135803,511.536438 585.908081,513.126831 
	C571.047485,515.688110 556.130554,515.453735 541.137207,514.001587 
	C530.720215,512.992676 520.154785,515.082520 509.742065,513.396057 
	C490.004883,510.199463 470.307159,512.581238 450.607513,513.561218 
	C442.065430,513.986084 433.582123,513.534180 425.286682,511.888245 
	C416.928497,510.229828 408.507660,509.325928 400.094147,508.225250 
	C398.608490,508.030884 397.106323,507.927094 395.637238,507.647644 
	C387.039917,506.012177 383.106506,502.409027 383.260162,496.374664 
	C383.455688,488.697968 388.763916,482.158173 396.351593,481.193115 
	C400.997742,480.602142 402.474915,479.097351 400.899689,474.458160 
	C398.335876,466.907440 400.735748,459.273102 401.123260,451.678253 
	C401.267090,448.859436 401.929749,446.045837 401.864746,443.241211 
	C401.499969,427.508667 403.613373,412.075439 406.419678,396.625000 
	C409.476807,379.793457 407.582611,362.728058 407.378326,345.759705 
	C407.312195,340.266357 406.782776,334.778656 406.712189,329.285248 
	C406.674042,326.317139 405.765533,324.359497 403.005890,322.890167 
	C398.729126,320.613037 396.311615,317.025635 396.844635,311.869843 
	C397.536255,305.179779 395.323456,298.660248 395.632080,291.964966 
	C395.831055,287.648285 397.124847,283.397034 400.952789,281.880951 
	C410.031952,278.285034 417.156555,270.937683 426.891296,268.781860 
	C430.134766,268.063599 433.418335,267.516937 436.644226,266.730530 
	C444.611725,264.788208 452.260742,262.265533 458.723480,256.775208 
	C462.057495,253.942856 466.076447,252.563553 470.820038,253.742340 
	C474.743500,254.717300 478.835724,254.035904 482.613007,252.566803 
	C489.844574,249.754257 496.641968,250.755630 503.262878,254.393372 
	C504.721710,255.194855 506.389435,255.690002 507.700989,256.673096 
	C514.186401,261.534454 520.926758,262.368073 528.082092,258.292450 
	C531.977722,256.073517 535.770874,257.831512 539.123535,259.242584 
	C558.164185,267.256317 578.705322,269.396271 598.421387,274.733093 
	C610.492126,278.000458 617.442322,288.059418 614.032104,300.014343 
	C611.682495,308.250977 609.583984,316.778137 604.310730,323.932678 
	C602.180420,326.823059 599.796326,329.282166 596.248901,330.307343 
	C592.585266,331.366089 591.797241,333.750275 592.666809,337.247223 
	C593.588989,340.955505 594.105347,344.763092 594.969788,348.487640 
	C596.701660,355.949188 596.372498,363.357513 594.710693,370.768738 
	C592.026062,382.740936 591.432129,394.460114 594.625793,406.719116 
	C597.617981,418.204865 599.192383,430.276733 595.530640,442.207184 
	C594.902527,444.253693 595.940002,446.156006 596.561523,448.022675 
	C599.083130,455.596558 602.208862,462.975098 603.941345,470.802765 
	C605.663757,478.584808 610.414978,483.759521 617.955322,487.009216 
M584.101135,397.925629 
	C581.742615,395.886780 581.742615,395.886749 584.405151,392.964539 
	C589.831421,387.009064 589.765930,378.344513 584.251465,372.631744 
	C578.956665,367.146515 578.072815,357.502869 582.277588,351.093964 
	C586.119690,345.237854 585.599304,337.754852 581.014160,332.861908 
	C580.044983,331.827667 578.836060,331.347137 577.444336,331.342194 
	C573.477173,331.328094 569.509888,331.337250 565.236511,331.337250 
	C565.286255,335.372131 564.004700,338.125397 560.579102,339.201355 
	C557.410034,337.619904 560.777771,335.035431 558.994629,333.004974 
	C552.148315,335.377991 543.625916,333.142303 538.470398,340.582123 
	C531.675293,340.696625 527.512817,347.888916 519.627014,346.612701 
	C514.158020,345.727570 513.906128,347.283783 514.907166,341.713135 
	C508.736298,341.985382 502.535431,341.745361 496.512726,342.668060 
	C490.399719,343.604523 487.910919,351.096436 482.320190,352.638306 
	C479.895844,350.858917 481.883331,348.758148 480.825806,347.849792 
	C477.848602,345.956421 474.617706,349.065186 472.344025,346.478882 
	C470.397522,344.264771 468.321716,343.888428 465.652466,344.844879 
	C463.415497,345.646393 461.262726,345.035706 461.363922,342.398193 
	C461.495697,338.963074 459.485291,338.985535 457.235901,339.082153 
	C451.577209,339.325287 445.954559,339.175812 440.379791,337.608398 
	C440.165802,339.240112 442.602600,340.985657 440.443817,341.749756 
	C436.402405,343.180176 437.092804,346.116364 437.350861,349.104492 
	C437.439331,350.128693 437.372711,351.247406 436.198364,351.580963 
	C434.728424,351.998505 434.099396,350.991760 433.797729,349.738708 
	C433.605286,348.939270 433.571991,348.059326 432.356537,347.721710 
	C430.253967,348.475372 428.523315,349.784027 427.738586,351.879089 
	C428.761627,354.272064 432.218536,353.330353 432.563202,356.754517 
	C425.538483,358.156281 420.185059,353.135834 414.148468,351.770966 
	C413.061035,353.485413 413.086182,355.122864 413.525940,356.457123 
	C416.646240,365.923645 414.786133,375.643738 415.103851,385.241547 
	C415.206543,388.343750 414.844727,391.480591 413.173370,394.357239 
	C409.991119,399.834351 409.087921,405.443146 412.874084,411.108734 
	C413.415161,411.918335 414.331055,413.165527 414.062317,413.721161 
	C411.523560,418.970276 412.675659,424.212463 412.815826,429.723114 
	C413.006165,437.205109 411.143127,444.791809 411.815552,452.442230 
	C411.930939,453.755127 412.265594,455.582062 411.579742,456.342346 
	C408.086670,460.214569 409.245514,464.965515 409.343964,469.184814 
	C409.527649,477.056915 411.682648,484.444305 417.590149,490.381104 
	C420.381439,493.186249 422.769653,496.697449 423.599701,500.604034 
	C424.992371,507.158966 425.811890,508.227539 432.349701,508.723846 
	C447.884766,509.903015 463.243164,507.132233 478.704193,506.657532 
	C479.186188,506.642731 479.567627,506.265717 479.207092,505.052521 
	C474.763428,505.052521 470.117004,504.850586 465.496155,505.108063 
	C460.657166,505.377716 458.288818,501.332520 454.828369,499.304657 
	C452.288452,497.816254 455.088043,495.477875 455.456696,493.516968 
	C455.723297,492.098938 455.290985,490.810425 454.597137,489.699890 
	C451.391052,484.568604 452.099060,478.043549 448.256897,473.511597 
	C453.255707,469.337128 450.101074,462.059784 456.368683,458.856018 
	C451.718201,456.362579 451.370087,452.287262 449.431549,449.540009 
	C450.076630,447.199249 452.805267,447.750977 453.123016,444.895203 
	C453.900513,437.908081 457.581390,431.582611 457.798218,424.218109 
	C457.893616,420.978455 458.414246,416.689545 461.199158,413.808594 
	C464.922363,415.508514 467.255798,418.023926 467.656860,422.020325 
	C470.333954,421.258087 472.557495,418.550903 474.847351,422.225830 
	C477.944916,427.197266 479.204590,433.202118 484.044952,437.647278 
	C481.573853,439.280396 477.704376,440.096893 478.738647,443.571838 
	C479.992676,447.785217 477.300903,451.336090 477.709290,455.294250 
	C477.828003,456.445038 477.019409,457.111420 475.925751,457.344971 
	C473.603271,457.841064 471.963470,458.765747 472.056610,461.619843 
	C472.160919,464.817017 474.759155,464.320953 476.565277,465.232819 
	C479.254150,466.590332 483.252991,465.463409 484.982239,469.326508 
	C475.423035,472.441895 466.225525,475.468445 456.327271,475.694916 
	C458.761597,476.336975 461.157166,476.519165 463.548676,476.744507 
	C465.854889,476.961853 469.032898,475.737640 470.313660,477.380554 
	C473.328308,481.247681 477.048431,483.905365 481.413208,485.425537 
	C480.674530,488.200623 477.892761,486.515594 477.274719,488.661987 
	C478.859558,490.674438 483.233093,489.131561 483.472015,492.697723 
	C482.315430,495.243958 479.671356,492.659363 478.445862,495.016357 
	C483.191223,498.844055 489.367676,500.389679 494.586456,500.414490 
	C511.651031,500.495605 528.250000,505.001801 545.269226,504.814941 
	C546.696533,504.799255 548.833984,504.420776 548.853882,506.470978 
	C548.895630,510.775879 551.945679,510.734131 554.696411,510.824249 
	C563.200317,511.102814 571.627808,509.689453 580.084106,509.336121 
	C591.769592,508.847748 603.211731,503.608185 615.146179,507.497192 
	C616.435242,507.917236 618.116394,507.377747 619.557800,507.037903 
	C622.951050,506.237915 626.428223,504.838440 626.263916,500.825165 
	C626.114502,497.175537 623.690735,494.518768 619.652466,493.517303 
	C618.062012,496.716461 614.963074,498.296295 612.801819,500.820312 
	C611.688354,502.120758 610.763367,504.495575 608.589294,503.606384 
	C606.356079,502.692932 604.402832,501.027222 604.540161,497.374542 
	C610.364685,499.398376 612.896729,495.083466 616.278320,492.284302 
	C615.234924,490.271210 613.521667,489.781189 612.139038,488.956543 
	C605.699219,485.115570 601.721863,480.029724 599.888489,472.324249 
	C597.485596,462.225037 594.960938,452.011749 589.027527,443.007874 
	C585.011414,436.913422 586.524963,433.147339 592.685303,431.093811 
	C593.379211,420.559235 591.519348,410.294769 588.754395,400.141479 
	C588.192566,398.078400 587.564270,396.065125 584.101135,397.925629 
M540.532227,327.703674 
	C547.497620,328.809052 554.380676,321.216370 561.418457,327.489807 
	C561.572510,327.627136 562.072632,327.451080 562.377380,327.333282 
	C567.972168,325.170898 573.470703,326.916473 579.050476,327.544403 
	C588.418518,328.598663 597.340759,327.745636 602.263306,318.046295 
	C605.816040,311.046265 608.356323,303.599304 609.558350,295.819092 
	C610.620972,288.941071 606.484436,282.311401 600.713318,280.840027 
	C599.350281,280.492584 598.330872,280.277924 597.259155,281.700623 
	C590.858093,290.198303 582.039185,294.262024 571.641357,295.236176 
	C564.187988,295.934509 556.559387,295.784790 549.302917,297.364136 
	C530.315796,301.496552 511.061432,301.343018 491.844727,302.168182 
	C472.982086,302.978088 454.862885,295.688507 435.855530,297.433716 
	C425.022156,298.428375 417.028198,290.464325 407.963959,286.254395 
	C403.289612,284.083405 402.728424,285.810425 401.165497,289.028839 
	C408.837891,293.460754 412.662415,301.667145 420.964355,305.422302 
	C426.694733,308.014282 426.695770,314.777893 423.057251,322.817139 
	C424.233337,324.600677 426.290009,324.993530 428.068420,325.790497 
	C430.033020,326.670990 432.913727,326.808716 433.929230,328.281158 
	C438.431152,334.808655 445.003601,333.122742 450.934998,333.945953 
	C448.339905,327.514984 445.906860,321.445831 440.842346,317.029419 
	C440.480988,316.714294 440.208984,316.231323 440.038696,315.773163 
	C438.873596,312.638550 440.409515,309.873169 442.559296,308.376587 
	C444.675659,306.903290 446.187439,309.816223 447.851959,311.029297 
	C448.963318,311.839233 447.933075,313.803314 449.350128,314.220154 
	C451.990540,314.412537 454.508362,312.073608 456.664093,314.483856 
	C457.660217,315.597565 455.238464,316.132721 455.637756,317.390167 
	C457.288696,318.149017 459.969604,317.060455 460.273895,319.566986 
	C460.011414,322.139893 457.267212,321.610870 456.344330,323.361176 
	C459.753235,324.213470 462.752075,323.895752 464.196930,328.459412 
	C464.885651,330.634857 468.401398,334.307251 472.790588,334.734344 
	C491.840393,336.587952 510.834473,339.080536 529.812927,333.917084 
	C538.099731,331.662445 546.880310,331.564270 555.059998,328.635071 
	C548.935608,328.203644 543.055420,331.203766 536.636230,330.552582 
	C537.037354,327.814087 538.485352,327.936096 540.532227,327.703674 
M493.040955,296.938141 
	C496.658783,297.773254 500.055511,298.099854 500.889160,293.514252 
	C505.850433,292.528290 509.344086,296.373596 513.592590,296.441437 
	C521.215698,296.563141 528.810730,295.843140 536.424744,295.193146 
	C544.261414,294.524200 549.731140,287.444244 557.908569,288.568787 
	C559.198059,288.746033 560.953857,287.984741 561.993896,287.081482 
	C565.699463,283.863220 570.461365,284.393005 573.358521,286.420959 
	C579.091309,290.433838 582.942017,287.555725 587.320068,284.777466 
	C590.169250,282.969391 590.141907,281.028259 587.918701,278.701569 
	C584.592163,275.220184 580.222107,274.078491 575.760742,273.453522 
	C565.851685,272.065430 556.077454,270.247742 546.761597,266.433014 
	C543.529358,265.109406 540.308044,263.601349 536.932739,262.825653 
	C532.900879,261.899017 528.601624,261.014648 524.429077,264.599152 
	C528.414185,267.048523 533.920227,265.309998 535.833618,270.342224 
	C533.219055,273.751587 530.634888,273.691589 527.128845,271.658173 
	C517.481812,266.063202 507.612946,260.836609 497.330566,256.481140 
	C493.677094,254.933594 489.834442,254.184921 486.439545,256.860626 
	C486.737457,260.440063 491.407196,260.654938 490.707428,264.494110 
	C488.336639,265.600464 486.604889,264.015686 484.955658,262.829529 
	C479.407379,258.839111 473.209351,257.487152 466.540649,258.154877 
	C461.252472,258.684418 458.961975,261.248718 458.900299,266.154114 
	C458.868225,268.704834 456.894806,268.930634 455.036255,269.061981 
	C452.388947,269.249054 449.654144,268.934601 447.095123,269.481781 
	C441.732971,270.628296 440.994629,272.294128 442.121155,277.618225 
	C442.518921,279.498077 443.882599,281.284729 442.953003,283.767426 
	C435.359467,285.809845 426.304199,279.802155 419.365326,287.219727 
	C421.663788,289.326111 424.535065,290.203552 427.394501,291.087952 
	C428.471222,291.420929 429.511566,292.027954 430.717834,291.285400 
	C438.524292,286.480042 441.897369,286.625641 448.932831,291.784882 
	C449.811737,292.429413 451.067017,292.650970 452.186829,292.859497 
	C455.291718,293.437531 458.402344,294.035431 461.537201,294.392426 
	C471.740082,295.554230 481.796814,298.573853 493.040955,296.938141 
M389.297577,490.860474 
	C386.373932,499.280243 390.158539,504.136963 398.595001,502.791748 
	C398.473022,496.699829 398.466003,496.760590 404.990021,497.515045 
	C407.181946,497.768555 409.482452,498.493469 411.894958,497.272308 
	C407.532227,494.350677 400.376312,493.023041 396.123718,494.369690 
	C394.325287,494.939209 393.339233,494.169617 392.304688,492.911713 
	C391.552185,491.996796 391.683350,490.083923 389.297577,490.860474 
M527.223938,506.351562 
	C517.494690,504.140839 507.732452,505.527069 497.960449,505.810852 
	C506.386078,509.022888 515.056396,510.164398 523.928101,509.707275 
	C525.735962,509.614105 527.611938,509.165039 527.223938,506.351562 
M401.951233,316.013214 
	C402.749329,316.893524 403.087219,318.510162 405.067841,317.841064 
	C404.642426,314.717957 405.630341,311.204071 401.875397,308.816193 
	C400.897186,311.217682 401.187592,313.295502 401.951233,316.013214 
M424.934204,336.812408 
	C425.238129,341.105713 430.072021,340.366180 431.500610,343.409973 
	C431.728821,339.965546 428.896454,337.123810 424.934204,336.812408 
z"/>
<path fill="#000000" opacity="1.000000" stroke="none" 
	d="
M562.999817,722.155396 
	C552.848755,722.176880 543.199951,722.156616 533.590637,721.824463 
	C533.655945,718.005493 535.768188,717.620056 537.285583,716.837646 
	C541.274048,714.780884 542.973022,711.678894 542.956543,707.156250 
	C542.856689,679.826416 542.840942,652.495789 542.959595,625.166138 
	C542.976929,621.171265 541.304382,618.969788 537.787781,617.644287 
	C536.151428,617.027466 534.119202,616.875977 533.406616,614.767334 
	C533.674255,612.934509 535.126099,612.833801 536.418091,612.869751 
	C555.554688,613.401489 574.833252,610.780701 593.814026,614.028564 
	C618.583557,618.266907 631.239197,629.497192 636.440613,649.873352 
	C641.192078,668.486938 638.051514,685.996094 626.089844,701.348999 
	C620.109558,709.024658 611.729675,713.557434 602.841309,717.236084 
	C590.154724,722.486755 576.830872,722.261902 562.999817,722.155396 
M618.444519,657.161011 
	C618.139404,655.694397 617.869934,654.219299 617.523621,652.762512 
	C613.393677,635.388733 604.153564,622.749634 585.722656,618.824097 
	C579.646912,617.530090 573.418213,618.534790 567.290283,618.057983 
	C562.572815,617.690857 560.703552,619.303711 560.841797,624.177124 
	C561.101135,633.321228 561.193176,642.491089 560.815002,651.627869 
	C560.042847,670.282166 560.727722,688.940613 560.265625,707.588196 
	C560.153564,712.109314 562.039001,714.363647 566.104797,715.481140 
	C573.987671,717.647827 581.940125,716.976257 589.913635,716.264221 
	C608.201538,714.631348 616.016663,702.864685 618.848633,685.877136 
	C620.408020,676.523132 619.470337,667.299438 618.444519,657.161011 
z"/>
<path fill="#000000" opacity="1.000000" stroke="none" 
	d="
M471.364624,645.180908 
	C484.008850,648.069641 489.726196,655.798950 490.163635,670.722595 
	C490.436951,680.046082 490.279755,689.382080 490.334900,698.712341 
	C490.379425,706.246216 489.155853,714.012634 495.152618,720.481628 
	C494.875214,720.879517 494.597839,721.277466 494.320465,721.675354 
	C488.598511,721.675354 482.871338,721.818481 477.157074,721.608521 
	C474.691315,721.517944 474.017639,719.568481 474.190582,717.262085 
	C475.263367,702.953918 474.474487,688.623474 474.663361,674.304321 
	C474.672150,673.638245 474.657043,672.971252 474.634338,672.305298 
	C474.101196,656.687805 464.786499,650.405273 450.103760,655.744873 
	C445.677795,657.354431 441.843079,660.045410 437.817322,662.388550 
	C435.666870,663.640076 435.219635,665.635071 435.225220,667.943787 
	C435.259186,681.939453 435.275055,695.935486 435.213959,709.931030 
	C435.201294,712.829529 436.205353,715.068298 438.419800,716.896606 
	C439.650574,717.912903 441.337982,718.681152 441.153656,721.558716 
	C434.413757,721.236755 427.645996,722.965759 420.852875,721.278992 
	C418.273254,720.638489 418.821381,718.152161 418.821747,716.217285 
	C418.827393,686.226440 418.859436,656.235535 418.880035,626.244690 
	C418.885773,617.914734 418.878021,617.922241 410.790771,618.090271 
	C409.961273,618.107544 409.114166,617.995850 408.691071,616.955017 
	C408.549652,614.974487 410.330109,614.753418 411.580444,614.156921 
	C417.592926,611.288147 423.633850,608.478699 429.675385,605.671143 
	C434.388184,603.481079 435.240417,603.971558 435.252655,609.071960 
	C435.286621,623.234375 435.243530,637.396973 435.284393,651.559326 
	C435.289520,653.334900 434.806610,655.208984 436.208008,657.439697 
	C446.759247,650.467102 457.537445,643.863403 471.364624,645.180908 
z"/>
<path fill="#000000" opacity="1.000000" stroke="none" 
	d="
M298.870331,721.903198 
	C291.722961,720.932861 284.953796,721.788269 278.474854,721.802429 
	C277.778320,720.158264 278.588013,719.682373 279.216675,719.200500 
	C286.078949,713.940369 287.127716,704.204590 281.550446,697.716003 
	C280.438599,696.422485 279.016510,696.241638 277.490112,696.240662 
	C260.494415,696.229919 243.498520,696.260681 226.503174,696.179810 
	C223.522110,696.165588 221.835007,697.469055 220.961929,700.176514 
	C220.553406,701.443359 220.018158,702.668884 219.595383,703.931580 
	C216.490707,713.204102 215.760193,713.912720 223.884995,719.238098 
	C224.393967,719.571716 224.696777,720.219910 225.005005,721.507385 
	C217.141693,721.108398 209.345718,721.861145 201.842804,721.746399 
	C200.898087,719.225098 202.064514,718.358093 203.177429,717.703735 
	C208.049820,714.838989 210.706421,710.255737 212.866913,705.322388 
	C224.958435,677.712036 237.451004,650.272217 248.544250,622.235840 
	C250.017471,618.512512 253.436310,617.437073 256.179474,615.423401 
	C265.809448,608.354309 264.894531,608.351868 269.160492,619.256958 
	C280.443268,648.099365 292.007294,676.831787 303.472900,705.602539 
	C305.750763,711.318542 308.870758,716.508850 315.048706,720.934265 
	C308.739502,722.925781 303.903229,720.757324 298.870331,721.903198 
M276.702698,691.415405 
	C279.944336,690.090820 277.789520,688.067505 277.175476,686.496155 
	C272.209015,673.786499 267.161224,661.108276 262.077850,648.444641 
	C259.208893,641.297546 256.226074,634.196167 252.922852,626.171204 
	C243.353607,648.338379 234.258118,669.408142 224.822449,691.265930 
	C242.791916,691.036011 259.388672,690.462341 276.702698,691.415405 
z"/>
<path fill="#000000" opacity="1.000000" stroke="none" 
	d="
M655.067261,707.588989 
	C652.690369,699.755432 652.829346,692.087891 652.874878,684.421631 
	C652.914429,677.759949 652.874329,671.097717 652.860962,664.435730 
	C652.848633,658.304749 653.656738,651.928650 646.846741,648.094177 
	C650.644775,644.828979 654.108398,646.127930 657.233093,646.070435 
	C669.435974,645.845947 669.355408,645.946777 669.246948,657.921448 
	C669.133789,670.411621 669.244690,682.903748 669.163635,695.394348 
	C669.139343,699.139038 669.926514,702.668396 671.317932,706.086060 
	C673.496643,711.437744 678.179077,714.375427 683.894653,713.958740 
	C692.336914,713.343262 699.525146,709.638245 706.208252,704.742249 
	C708.147583,703.321533 708.655823,701.285156 708.628113,699.011841 
	C708.461548,685.362488 708.905334,671.713379 708.125549,658.058411 
	C707.867859,653.546021 704.924011,651.034546 702.773193,648.120178 
	C703.301514,646.041138 704.721497,646.034973 706.034973,646.016113 
	C710.697266,645.949280 715.362488,646.018677 720.022766,645.893616 
	C724.018005,645.786377 725.330933,647.784668 725.012390,651.503906 
	C723.545715,668.627625 724.539001,685.788574 724.381714,702.931335 
	C724.326355,708.971985 721.696655,716.395386 730.951294,718.342407 
	C730.360657,720.856628 728.769226,720.923767 727.305176,721.071289 
	C722.508606,721.554871 717.688477,721.848267 712.912842,722.481873 
	C709.750488,722.901489 708.683167,721.613342 708.648865,718.665283 
	C708.618225,716.038452 708.944153,713.358704 708.047485,710.713562 
	C705.649414,710.079712 704.334229,711.967468 702.817932,712.994934 
	C696.829773,717.052490 690.341553,720.083191 683.472107,722.141602 
	C670.573486,726.006531 659.959412,720.553833 655.067261,707.588989 
z"/>
<path fill="#000000" opacity="1.000000" stroke="none" 
	d="
M344.368195,695.880127 
	C345.117249,703.866455 343.411743,711.746704 348.104889,718.646912 
	C349.226990,720.296692 348.085327,721.548218 346.182404,721.636841 
	C342.035065,721.829956 337.882721,721.925537 333.731537,722.024109 
	C329.993622,722.112915 328.520782,720.484009 328.567810,716.536621 
	C328.794189,697.546143 328.648468,678.551208 328.879974,659.560852 
	C328.935822,654.978821 328.659760,651.238525 323.094513,650.456543 
	C322.274811,650.341431 321.718140,649.566101 321.759705,648.282776 
	C323.655029,645.972229 326.532532,647.113525 329.009094,646.737854 
	C330.982758,646.438354 332.969421,646.206787 334.957550,646.023865 
	C344.656006,645.131470 344.650635,645.141113 345.149048,654.868347 
	C345.180664,655.485168 345.423309,656.091187 345.716736,657.332031 
	C351.252502,654.378845 355.932098,650.628113 361.487518,648.445984 
	C367.947815,645.908386 374.472534,644.053467 381.423798,645.295166 
	C390.854401,646.979797 396.353577,652.593201 398.311737,662.017700 
	C399.915009,669.734253 400.119507,677.544128 400.000549,685.386292 
	C399.932343,689.883545 399.875366,694.387024 400.031250,698.880127 
	C400.285156,706.197815 398.338806,713.912659 404.790680,720.747559 
	C397.857056,721.722961 392.010406,722.307190 386.124298,721.207642 
	C383.069336,720.636963 383.728912,718.056335 383.731323,715.969055 
	C383.747101,702.307922 383.804321,688.646729 383.817566,674.985596 
	C383.819824,672.654907 383.837738,670.305359 383.571228,667.996521 
	C382.435150,658.155273 376.222168,653.233093 366.441376,654.149719 
	C358.995667,654.847595 353.015472,658.832642 346.917603,662.582764 
	C345.121185,663.687439 345.049500,665.587585 344.858673,667.428894 
	C343.893921,676.738220 344.571533,686.074768 344.368195,695.880127 
z"/>
<path fill="#000000" opacity="1.000000" stroke="none" 
	d="
M779.417297,718.340698 
	C776.454285,725.991089 773.871521,733.391602 769.654846,740.052185 
	C766.059998,745.730530 761.520569,750.042175 754.552307,751.355652 
	C748.520630,752.492676 746.153381,751.361328 743.518555,745.254028 
	C744.411133,743.259521 746.333069,743.869629 747.872314,743.611328 
	C757.989075,741.913513 766.049133,737.506836 770.299255,727.513489 
	C771.656616,724.321960 771.659607,721.614319 770.185120,718.491760 
	C759.597961,696.071838 750.433167,672.993713 738.953796,650.985535 
	C737.751953,648.681458 737.508789,646.458801 740.752380,646.282104 
	C749.054138,645.829773 757.376465,645.585815 765.684937,646.252563 
	C766.202332,646.294006 766.670288,646.952026 767.095947,647.273804 
	C766.943298,647.841125 766.963379,648.279541 766.759705,648.449219 
	C758.800903,655.079224 758.353638,656.071777 762.425476,665.606201 
	C767.771912,678.125244 773.494446,690.483643 778.977966,702.738342 
	C781.047974,702.780518 781.220032,701.401062 781.635620,700.434875 
	C786.568604,688.966980 791.419128,677.463562 796.360229,665.999207 
	C799.128540,659.575928 800.587463,653.501587 792.969849,649.201843 
	C792.713745,649.057251 792.539368,648.691345 792.426270,648.391235 
	C792.315002,648.095581 792.330322,647.752258 792.193970,646.660156 
	C799.407898,645.204651 806.548340,645.870300 813.703613,646.272461 
	C813.703613,647.504883 813.841675,648.004272 813.683960,648.128723 
	C803.093567,656.484924 800.522400,669.386169 795.367188,680.760681 
	C789.804321,693.034607 784.808594,705.565613 779.417297,718.340698 
z"/>
<path fill="#000000" opacity="1.000000" stroke="none" 
	d="
M294.457397,909.513916 
	C321.109192,922.998291 348.089691,934.697266 376.076721,944.162231 
	C403.765137,953.526184 432.797821,956.823303 461.276398,962.629883 
	C461.089111,963.517273 460.901825,964.404663 460.714508,965.292053 
	C430.837860,962.316589 401.480957,956.205139 372.808960,947.267761 
	C323.761047,931.978882 242.928299,889.461792 236.174774,875.989929 
	C239.414047,874.281738 241.462387,876.774780 243.536026,878.207703 
	C259.852234,889.482727 276.662872,899.941589 294.457397,909.513916 
z"/>
<path fill="#000000" opacity="1.000000" stroke="none" 
	d="
M605.281738,960.150635 
	C614.625671,958.274780 623.563049,956.525208 632.857971,954.705688 
	C632.551941,958.548157 630.373840,958.460205 628.749878,958.886963 
	C587.673462,969.680847 546.010193,976.077209 503.424377,975.221069 
	C494.111816,975.033813 484.800842,974.390991 475.636810,972.491516 
	C474.544556,972.265015 473.245728,972.427612 472.461456,970.739746 
	C474.348511,967.920471 477.330811,968.994995 479.871094,969.136780 
	C493.334045,969.888184 506.780548,971.105896 520.285950,970.483948 
	C539.067078,969.618958 557.846802,968.735229 576.398804,965.334473 
	C585.881348,963.596313 595.382507,961.959595 605.281738,960.150635 
z"/>
<path fill="#000000" opacity="1.000000" stroke="none" 
	d="
M287.738770,584.810120 
	C276.135345,591.110535 264.841827,597.212769 253.580307,603.297729 
	C252.071640,600.910522 253.453674,600.129456 254.385086,599.332092 
	C263.083252,591.885437 271.814545,584.477478 280.536011,577.057983 
	C282.504059,575.383728 284.764099,574.288330 286.437744,577.006470 
	C287.794769,579.210388 292.474884,581.077637 287.738770,584.810120 
z"/>
<path fill="#000000" opacity="1.000000" stroke="none" 
	d="
M650.439575,917.279602 
	C657.088928,915.743774 662.818665,912.063660 669.677979,912.828064 
	C655.473816,921.170410 640.211060,926.288452 623.719116,927.995544 
	C627.287781,924.588562 632.119629,923.922241 636.470154,922.272156 
	C640.969299,920.565796 645.534119,919.032471 650.439575,917.279602 
z"/>
<path fill="#000000" opacity="1.000000" stroke="none" 
	d="
M505.425476,942.904236 
	C514.178833,941.916321 522.588806,941.133362 531.010498,940.349304 
	C531.168884,943.260071 529.797913,943.685120 528.516418,943.917664 
	C521.818542,945.133240 515.074219,946.064392 508.264191,946.232422 
	C506.491150,946.276123 503.766174,946.548645 505.425476,942.904236 
z"/>
<path fill="#000000" opacity="1.000000" stroke="none" 
	d="
M304.989471,891.030762 
	C312.007782,894.014771 319.097778,896.164795 324.482147,901.274597 
	C323.341034,903.345398 322.139282,903.009277 321.090942,902.515930 
	C315.377014,899.826599 309.683228,897.093384 304.012787,894.313599 
	C302.994232,893.814270 301.761414,893.125916 302.128967,891.721741 
	C302.463593,890.443115 303.676849,890.820557 304.989471,891.030762 
z"/>
<path fill="#000000" opacity="1.000000" stroke="none" 
	d="
M428.922363,467.942261 
	C428.929382,456.928253 428.929382,446.405029 428.929382,435.686737 
	C432.765106,435.783508 432.665436,438.132690 433.132446,439.901489 
	C434.764221,446.081635 434.316681,452.479370 434.631042,458.751953 
	C435.141907,468.946259 439.322601,478.515015 439.143768,488.752289 
	C439.109833,490.694061 439.562805,492.749786 436.987213,495.880859 
	C436.873383,488.658905 435.304962,482.961823 433.511688,477.073364 
	C432.675903,477.938232 432.943451,480.116913 431.047516,479.677368 
	C429.673584,479.358887 429.439789,478.019226 429.346497,476.892090 
	C429.113708,474.079773 429.048065,471.253632 428.922363,467.942261 
z"/>
<path fill="#000000" opacity="1.000000" stroke="none" 
	d="
M578.770020,453.832581 
	C579.548889,451.838409 580.914429,450.915405 582.370911,450.077423 
	C585.313171,448.384613 587.135498,449.666351 587.057800,452.607117 
	C586.864563,459.915161 584.989807,466.986450 583.049561,473.998566 
	C582.657471,475.415710 581.315796,477.031189 579.737671,476.308655 
	C577.420654,475.247864 575.634338,472.795593 576.169128,470.407349 
	C576.839050,467.415070 576.252441,464.866333 575.453979,462.178558 
	C574.411194,458.668030 577.764526,456.915070 578.770020,453.832581 
z"/>
<path fill="#000000" opacity="1.000000" stroke="none" 
	d="
M578.396606,436.397278 
	C572.991089,442.938446 566.833130,448.366272 562.265381,455.172424 
	C561.492676,456.323700 560.475159,458.037354 558.720337,456.720245 
	C557.288330,455.645386 558.357178,454.255524 559.025574,453.170288 
	C565.980957,441.876740 575.360046,432.749023 585.224731,424.074402 
	C586.312744,423.117645 587.913574,421.977753 589.153015,423.514557 
	C590.574707,425.277344 589.007324,426.713989 587.673889,427.609497 
	C584.171631,429.961578 581.485352,433.125000 578.396606,436.397278 
z"/>
<path fill="#000000" opacity="1.000000" stroke="none" 
	d="
M421.641907,393.948608 
	C420.815979,386.936096 419.963348,380.370422 419.173981,373.797180 
	C418.929260,371.759155 418.084717,369.457306 420.819824,368.263916 
	C425.102325,373.399139 425.560059,401.100708 421.283081,407.104553 
	C419.133636,402.624878 422.511749,398.529846 421.641907,393.948608 
z"/>
<path fill="#000000" opacity="1.000000" stroke="none" 
	d="
M587.819336,489.054169 
	C589.830566,485.970795 592.277466,483.629974 593.454712,480.433350 
	C594.025085,478.884705 594.562378,477.007294 596.614197,477.082825 
	C598.921265,477.167755 599.259521,479.243500 599.885010,481.317169 
	C595.948547,483.036835 594.614868,486.602783 593.985107,490.551971 
	C593.743225,492.068970 593.339172,493.491791 592.322205,494.641571 
	C591.142822,495.974945 590.811462,498.965546 588.032349,497.514801 
	C585.604797,496.247559 585.156433,494.015350 586.400208,491.544525 
	C586.772827,490.804321 587.231567,490.107483 587.819336,489.054169 
z"/>
<path fill="#000000" opacity="1.000000" stroke="none" 
	d="
M572.085266,397.070740 
	C572.119568,398.987183 572.228394,400.521973 571.383728,401.845123 
	C570.181519,403.728271 568.566040,404.688263 566.355896,403.522888 
	C564.966553,402.790314 561.712158,393.002563 562.376709,391.596710 
	C563.368530,389.498566 565.452515,390.030701 567.178284,389.733185 
	C569.006897,389.417908 570.584839,389.823761 571.155945,391.771149 
	C571.619019,393.350189 571.774902,395.019348 572.085266,397.070740 
z"/>
<path fill="#000000" opacity="1.000000" stroke="none" 
	d="
M578.156860,387.789825 
	C576.979187,384.740662 578.044800,382.013092 578.284546,379.263733 
	C578.383545,378.128906 579.077881,376.954559 580.439209,376.866547 
	C582.153198,376.755737 582.720398,378.132355 582.870422,379.454468 
	C583.310181,383.330872 583.586914,387.225708 583.933289,391.179077 
	C580.905090,391.658264 580.565857,388.348877 578.156860,387.789825 
z"/>
<path fill="#000000" opacity="1.000000" stroke="none" 
	d="
M447.232483,483.431396 
	C448.868652,488.752075 450.361969,493.755798 451.821533,498.646545 
	C451.002319,499.522980 450.098450,499.706787 449.506866,499.017365 
	C445.652588,494.525696 445.023163,488.882355 444.537750,483.364563 
	C444.364227,481.392334 446.042694,481.670715 447.232483,483.431396 
z"/>
<path fill="#000000" opacity="1.000000" stroke="none" 
	d="
M428.390411,418.511597 
	C427.831116,421.781342 427.367798,424.673126 426.885742,427.681854 
	C423.111938,425.376770 423.977783,418.234955 428.611511,412.194702 
	C430.467682,414.313141 428.930817,416.228973 428.390411,418.511597 
z"/>
<path fill="#000000" opacity="1.000000" stroke="none" 
	d="
M554.081482,444.873810 
	C554.935242,441.022308 555.856567,437.593475 559.037537,433.967285 
	C560.544495,439.899841 557.587158,443.830078 556.552429,448.109680 
	C553.999817,447.948761 554.075928,446.553986 554.081482,444.873810 
z"/>
<path fill="#000000" opacity="1.000000" stroke="none" 
	d="
M574.407043,423.062836 
	C573.820801,425.068390 573.688171,427.043945 571.094299,427.560944 
	C569.625671,424.786682 571.296021,422.725128 572.978699,421.190826 
	C574.069031,420.196625 574.440063,421.714752 574.407043,423.062836 
z"/>
<path fill="#000000" opacity="1.000000" stroke="none" 
	d="
M534.832642,316.867981 
	C532.996216,316.686523 531.386902,316.653076 531.137085,314.645233 
	C530.901672,312.752686 532.000122,311.642548 533.549438,310.695862 
	C540.629883,306.369354 548.911926,307.049957 556.572632,305.158539 
	C558.636169,304.649048 560.717468,306.124512 561.062744,308.263672 
	C561.586426,311.507446 559.186401,314.337372 559.605652,318.039703 
	C559.826172,319.986938 555.933594,323.714233 551.791565,323.680084 
	C550.842163,323.672241 549.884949,324.203064 548.936890,324.503418 
	C539.146240,327.604980 537.884216,326.919525 534.832642,316.867981 
z"/>
<path fill="#000000" opacity="1.000000" stroke="none" 
	d="
M602.527588,305.423767 
	C599.167114,311.649017 595.956604,317.528748 592.610352,323.657104 
	C589.926941,321.574493 590.716003,319.597931 591.454956,317.837616 
	C592.933350,314.315979 594.658264,310.898804 596.206177,307.405151 
	C598.616150,301.965515 601.725708,296.710693 600.740234,290.345581 
	C600.592224,289.389557 600.745667,288.324280 601.846069,287.794556 
	C606.915833,290.245300 607.176575,295.689941 602.527588,305.423767 
z"/>
<path fill="#000000" opacity="1.000000" stroke="none" 
	d="
M487.472839,275.693268 
	C486.128265,273.969543 484.635864,272.452881 486.975708,270.867065 
	C488.557739,269.794891 490.325500,269.335663 492.098389,270.560913 
	C493.291962,271.385773 494.205017,272.582977 493.294006,273.912567 
	C492.002441,275.797638 490.547638,278.000977 487.472839,275.693268 
z"/>
</svg>