<?xml version="1.0" encoding="utf-8"?>
<!-- Generator: Adobe Illustrator 16.0.0, SVG Export Plug-In . SVG Version: 6.00 Build 0)  -->
<!DOCTYPE svg PUBLIC "-//W3C//DTD SVG 1.1//EN" "http://www.w3.org/Graphics/SVG/1.1/DTD/svg11.dtd">
<svg version="1.1" id="レイヤー_1" xmlns="http://www.w3.org/2000/svg" xmlns:xlink="http://www.w3.org/1999/xlink" x="0px"
	 y="0px" width="80px" height="275px" viewBox="0 0 80 275" enable-background="new 0 0 80 275" xml:space="preserve">
<g>
	<g>
		<g>
			<g>
				<g>
					<path fill="#0A3854" d="M71.65,25.885c-1.836,0.68-4.488,1.7-6.867,5.1C54.244,26.156,45.27,16.773,40.102,5.352h-0.68
						C30.514,18.201,23.238,26.497,8.076,34.18l-0.271-0.408C19.908,23.98,28.951,13.307,34.322,3.719
						c0.748-1.291,1.156-2.516,1.428-3.672l6.664,3.129c0.203,0.135,0.475,0.34,0.475,0.951c0,0.884-1.088,1.088-1.496,1.156
						c6.256,10.811,17.746,17.338,30.258,20.262V25.885L71.65,25.885z M36.77,29.625c0-3.944-0.27-7.412-1.496-9.928l7.48,2.107
						c0.475,0.137,0.814,0.408,0.814,0.816c0,0.884-1.494,2.107-1.971,2.447c-0.068,2.992-0.068,5.848-0.205,13.191h6.664
						l2.855-3.332c0.477-0.611,0.68-0.815,1.02-0.815c0.408,0,0.748,0.271,1.293,0.68l4.352,3.331
						c0.271,0.272,0.68,0.612,0.68,1.088c0,0.612-0.611,0.681-1.02,0.681h-15.91v16.25H56.76l3.264-3.468
						c0.682-0.748,0.748-0.815,1.021-0.815c0.34,0,0.68,0.272,1.293,0.748l4.352,3.468c0.271,0.203,0.68,0.476,0.68,0.951
						c0,0.612-0.613,0.748-1.088,0.748h-46.1c-1.699,0-4.963,0-8.023,0.612l-1.291-2.72c4.352,0.34,8.566,0.476,10.402,0.476h1.225
						c0-12.103,0-15.366-0.273-18.901c-0.203-2.721-0.812-3.809-1.156-4.488l7.275,2.04c0.816,0.204,0.885,0.815,0.885,0.952
						c0,0.951-1.836,2.244-2.105,2.447c-0.068,2.107-0.068,7.004-0.139,17.95h9.791V29.625H36.77z"/>
					<path fill="#0A3854" d="M58.664,109.91l3.059-3.467c0.68-0.816,0.816-0.816,1.088-0.816c0.479,0,0.885,0.408,1.227,0.68
						l3.738,3.469c0.342,0.34,0.682,0.611,0.682,1.088c0,0.611-0.613,0.68-1.088,0.68h-24.82
						c4.691,5.575,14.959,12.307,26.518,13.122l0.068,0.612c-1.633,0.544-4.42,1.563-6.256,5.303
						c-9.994-3.739-17.609-11.898-21.486-19.037h-0.203c0.068,2.243,0.203,11.967,0.271,13.938c0,0.68,0.271,3.808,0.271,4.419
						c0,2.108-2.039,2.855-3.467,2.855c-1.836,0-1.973-1.088-1.973-2.107c0-0.203,0-0.476,0.066-0.748
						c0.342-5.575,0.408-11.627,0.408-17.542c-5.1,6.8-14.211,14.958-26.992,18.358l-0.137-0.408
						c9.18-4.896,15.436-10.402,21.758-18.766H19.363c-2.719,0-5.371,0.136-8.023,0.611l-1.359-2.72
						c4.557,0.408,9.111,0.476,10.473,0.476H36.77v-5.915H24.871c-1.768,0-4.963,0.068-8.023,0.612l-1.359-2.72
						c4.691,0.407,9.451,0.476,10.473,0.476H36.77V97.06H22.492c-2.652,0-5.373,0.067-7.957,0.611l-1.359-2.72
						c4.623,0.408,9.18,0.476,10.471,0.476h6.867c-1.223-0.34-1.359-0.68-2.65-4.215c-0.68-1.973-1.699-3.876-2.99-5.371h-7.072
						c-1.699,0-4.963,0-8.021,0.611l-1.293-2.72c4.623,0.408,9.314,0.476,10.402,0.476h6.053c-1.156-0.136-1.836-0.68-2.855-3.331
						c-0.953-2.651-1.904-5.1-4.625-7.684l0.273-0.476c1.902,0.611,9.451,2.991,9.451,8.771c0,0.271-0.068,2.583-2.041,2.719h6.527
						c0-0.748-0.203-7.615-0.271-8.906c-0.137-2.176-0.545-3.876-0.885-5.1l6.596,1.903c0.613,0.204,0.953,0.408,0.953,1.021
						c0,0.68-0.545,1.088-2.041,1.631c-0.135,2.856-0.135,9.111-0.068,9.451h5.168c-0.068-1.359-0.203-7.139-0.271-8.363
						c-0.137-2.516-0.34-3.467-1.225-5.643l6.936,1.836c0.408,0.136,1.156,0.34,1.156,1.02c0,1.02-1.633,1.563-2.244,1.768
						c-0.066,4.623-0.135,5.168-0.066,9.383h2.99c1.088-1.972,2.312-5.371,2.992-7.547c0.748-2.312,0.816-3.468,0.883-5.235
						l6.055,3.06c0.406,0.204,0.812,0.477,0.812,0.952c0,1.02-1.631,1.224-2.379,1.292c-2.311,2.516-5.576,6.051-7.07,7.479h10.676
						l2.924-3.06c0.748-0.815,0.885-0.884,1.088-0.884c0.408,0,0.885,0.34,1.357,0.748l3.537,2.992
						c0.406,0.34,0.746,0.611,0.746,1.088c0,0.611-0.609,0.748-1.02,0.748H47.785l3.535,2.107C51.523,88.152,52,88.493,52,88.9
						c0,0.816-1.291,0.952-2.516,1.021c-2.107,2.312-5.711,5.304-5.982,5.507h11.627l2.65-2.991c0.68-0.748,0.748-0.815,1.088-0.815
						c0.477,0,1.02,0.543,1.225,0.68l3.127,2.991c0.34,0.341,0.613,0.612,0.613,1.021c0,0.68-0.545,0.748-1.021,0.748H41.121
						c0,0.407,0.068,4.623,0.068,5.303h9.588l2.379-2.447c0.611-0.612,0.885-0.816,1.156-0.816s0.34,0.068,1.291,0.748l3.332,2.312
						c0.34,0.271,0.748,0.611,0.748,1.088c0,0.611-0.545,0.747-1.02,0.747H41.189v5.915h17.475V109.91z M26.027,85.842
						c3.332,1.155,7.479,3.331,7.479,7.139c0,1.564-0.883,2.244-1.768,2.447h10.402c0.545-0.951,2.855-5.779,3.4-9.586H26.027z"/>
					<path fill="#0A3854" d="M13.176,157.63c1.02,2.312,1.768,4.759,1.768,7.274c0,4.353-2.445,7.072-4.689,7.072
						c-1.021,0-2.312-0.681-2.312-2.517c0-1.021,0.271-1.428,1.359-3.062c1.631-2.516,3.059-4.69,3.4-8.771h0.475V157.63z
						 M23.443,143.012c0.68,0.203,1.156,0.407,1.156,1.088c0,0.748-0.953,1.225-2.312,1.903c0,1.155-0.068,36.647,0.068,47.188
						c0,0.884,0.137,4.963,0.137,5.847c0,3.536-2.518,3.876-3.537,3.876c-0.611,0-1.971-0.271-1.971-2.176
						c0-1.088,0.408-5.915,0.475-6.936c0.205-4.557,0.34-4.828,0.34-29.646v-6.12c0-12.918-0.34-14.074-1.223-16.794L23.443,143.012
						z M23.646,154.57c1.021,0.136,3.129,0.611,5.779,2.106c0.682,0.408,2.449,1.429,2.449,3.74c0,1.972-1.836,2.651-2.584,2.651
						c-1.701,0-2.381-1.7-2.992-3.332c-0.68-1.769-1.564-3.331-2.787-4.623L23.646,154.57z M61.451,164.633l2.447-2.787
						c0.68-0.816,0.748-0.885,1.088-0.885c0.273,0,0.545,0.205,1.225,0.748l3.127,2.788c0.477,0.407,0.68,0.612,0.68,1.088
						c0,0.612-0.543,0.681-1.02,0.681H37.314c-1.768,0-4.965,0.067-8.023,0.611l-1.359-2.72c4.486,0.407,8.703,0.476,10.471,0.476
						h7.41c-0.135-1.632-0.135-4.555-0.135-6.322h-3.264c-1.701,0-4.965,0.067-8.023,0.611l-1.361-2.652
						c4.693,0.34,9.316,0.408,10.475,0.408h2.176c0.066-2.039,0.066-4.08,0-6.119h-6.256c-1.699,0-4.963,0.068-8.023,0.611
						l-1.359-2.719c4.691,0.406,9.314,0.476,10.471,0.476h5.1c-0.27-3.876-0.748-5.508-1.494-7.548l7.547,1.904
						c0.814,0.203,0.949,0.611,0.949,1.02c0,0.34-0.201,0.612-0.475,0.885c-0.34,0.203-1.633,1.021-1.904,1.155v2.584h10.062
						l2.176-2.72c0.34-0.477,0.68-0.884,1.088-0.884c0.34,0,0.682,0.271,1.227,0.747l3.332,2.721c0.27,0.271,0.68,0.543,0.68,1.02
						c0,0.611-0.611,0.748-1.021,0.748H50.232v6.119h5.779l1.904-2.38c0.408-0.476,0.68-0.884,1.088-0.884
						c0.34,0,0.543,0.204,1.223,0.748l3.129,2.447c0.34,0.205,0.68,0.545,0.68,1.021c0,0.612-0.545,0.681-1.02,0.681H50.232v6.322
						H61.451L61.451,164.633z M57.848,171.637l1.77-1.973c0.34-0.34,0.609-0.68,1.02-0.68c0.408,0,1.021,0.408,1.293,0.68
						l2.584,2.04c0.68,0.544,0.748,0.748,0.748,1.021c0,0.271-0.068,0.477-0.205,0.611c-0.203,0.204-1.428,1.02-2.107,1.496v10.607
						c0,1.494,0.271,8.295,0.271,9.653c0,3.4,0,6.324-7.479,8.159c-0.342-1.495-0.887-4.079-5.779-6.663v-0.478
						c1.156,0.068,5.98,0.342,7.002,0.342c0.682,0,1.496-0.068,1.496-1.973v-5.644H39.965c-0.066,5.847-0.066,5.847,0,7.274
						c0,0.545,0.137,2.855,0.137,3.332c0,2.244-1.633,3.127-3.193,3.127c-1.156,0-2.107-0.407-2.107-1.768
						c0-0.203,0-0.748,0.135-1.562c0.408-2.992,0.545-20.467,0.545-24.547c0-0.68-0.137-2.243-0.68-5.508l5.643,2.448h17.404
						V171.637z M39.965,173.268v6.121h18.494v-6.121H39.965z M39.965,181.02v6.188h18.494v-6.188H39.965z"/>
					<path fill="#0A3854" d="M31.398,245.92l1.836-2.312c0.477-0.543,0.748-0.814,1.088-0.814c0.271,0,0.611,0.203,1.225,0.68
						l2.787,2.312c0.477,0.408,0.68,0.748,0.68,1.021c0,0.68-0.611,0.748-1.088,0.748H26.57v9.79h5.236l2.039-2.312
						c0.68-0.748,0.748-0.816,1.02-0.816c0.34,0,0.545,0.137,1.225,0.682l2.992,2.312c0.271,0.204,0.611,0.544,0.611,1.021
						c0,0.611-0.543,0.748-1.02,0.748H26.57c0,0.477,0,0.545-0.068,1.291l0.205,11.424c0,2.176-1.293,3.264-3.4,3.264
						c-1.156,0-1.699-0.408-1.699-1.836c0-0.814,0.271-4.146,0.271-4.895c0.137-4.08,0.205-7.752,0.205-9.248h-3.74
						c-1.699,0-4.963,0-8.023,0.611l-1.357-2.72c4.689,0.407,9.383,0.478,10.471,0.478h2.652c0-4.08,0-4.488,0.064-8.977v-0.814
						h-2.854c-1.699,0-4.963,0.066-8.023,0.61l-1.359-2.72c4.691,0.408,9.383,0.476,10.471,0.476h5.373
						c2.447-6.459,2.65-7.069,3.195-10.471c0.271-1.496,0.271-1.563,0.135-2.584H17.459c-0.68,0-1.359,0-2.107,0.067
						c2.855,1.429,6.664,5.031,6.664,9.248c0,2.924-1.836,3.672-2.652,3.672c-2.242,0-2.445-2.992-2.584-4.013
						c-0.27-3.264-0.475-5.508-2.242-8.907c-1.633,0.068-3.469,0.205-5.1,0.545l-1.293-2.721c4.559,0.408,9.111,0.477,10.402,0.477
						h3.604v-7.274H20.18c-1.633,0-4.895,0-7.955,0.611l-1.357-2.72c4.076,0.34,8.227,0.476,11.219,0.476
						c-0.273-7.274-0.682-8.228-1.361-9.791l7.344,1.836c0.408,0.137,0.748,0.408,0.748,0.952c0,0.408-0.203,0.681-0.611,0.884
						c-0.885,0.544-0.953,0.612-1.633,1.226v4.895h3.943l1.904-2.379c0.545-0.68,0.748-0.885,1.088-0.885
						c0.408,0,1.156,0.681,1.225,0.748l2.719,2.379c0.34,0.342,0.613,0.613,0.613,1.021c0,0.611-0.545,0.748-1.021,0.748H26.57
						v7.275h6.393l1.902-2.244c0.682-0.748,0.748-0.816,1.088-0.816c0.205,0,0.477,0.068,1.293,0.68l2.652,2.244
						c0.34,0.271,0.68,0.612,0.68,1.021c0,0.681-0.545,0.748-1.021,0.748h-9.178l4.963,2.448c0.271,0.136,0.611,0.476,0.611,0.884
						c0,0.884-0.748,1.021-2.379,1.358c-0.545,0.748-0.816,1.088-3.264,4.625c-1.088,1.631-2.312,2.924-2.992,3.738h4.08V245.92z
						 M57.236,240.549c-1.701,0-4.896,0-8.023,0.611l-1.359-2.719c4.691,0.408,9.451,0.476,10.473,0.476h1.9l2.244-2.312
						c0.205-0.205,0.545-0.408,0.885-0.408s0.748,0.271,0.816,0.34l3.738,2.788c0.408,0.204,0.545,0.476,0.545,0.815
						c0,0.885-1.836,1.903-2.789,2.447c-0.814,2.923-3.059,10.811-6.527,16.454c3.129,3.128,7.48,5.711,13.055,7.751v0.271
						c-2.582,0.477-4.895,1.973-6.186,4.08c-1.77-1.293-6.053-4.42-9.18-8.84c-2.721,3.332-5.984,6.323-9.723,8.432
						c0,1.496,0,1.837-0.477,2.584c-0.748,0.951-2.039,1.359-2.992,1.359c-1.496,0-1.768-0.816-1.768-1.836
						c0-0.34,0-0.951,0.066-1.225c0.682-7.344,0.682-23.865,0.682-31.752c0-4.557-0.068-19.99-0.543-23.662
						c-0.139-0.885-0.344-1.836-0.547-2.721l6.119,2.856h10.812l1.973-1.633c0.748-0.61,0.883-0.681,1.291-0.681
						c0.34,0,0.885,0.272,0.953,0.341l3.195,2.243c0.406,0.205,0.543,0.545,0.543,0.885c0,0.611-0.543,0.952-2.65,2.38
						c0,1.496,0.068,8.567,0,9.451c-0.34,3.06-2.855,4.69-5.848,5.711c-0.953-3.399-3.875-4.827-5.916-5.849v-0.34
						c1.293,0.137,3.193,0.137,4.557,0.137c1.631,0,2.176,0,2.447-0.815c0.135-0.271,0.203-3.127,0.203-4.76v-5.438H46.9
						c-0.135,9.043,0.068,28.965,0.205,51.946c3.059-3.194,5.779-6.663,7.887-10.539c-2.924-5.575-4.283-12.782-4.828-15.569
						l1.02-0.271c0.545,1.902,2.312,8.158,5.439,12.578c2.312-5.303,3.129-9.314,4.42-15.57h-3.807V240.549z"/>
				</g>
			</g>
		</g>
	</g>
</g>
</svg>
