<?xml version="1.0" standalone="no"?>
<!DOCTYPE svg PUBLIC "-//W3C//DTD SVG 20010904//EN"
 "http://www.w3.org/TR/2001/REC-SVG-20010904/DTD/svg10.dtd">
<svg version="1.0" xmlns="http://www.w3.org/2000/svg"
 width="70.000000pt" height="250.000000pt" viewBox="0 0 70.000000 338.000000"
 preserveAspectRatio="xMidYMid meet">
<metadata>
Created by potrace 1.16, written by Peter Selinger 2001-2019
</metadata>
<g transform="translate(0.000000,338.000000) scale(0.020290,-0.018747)"
fill="#000000" stroke="none">
<path d="M1560 17772 c-63 -21 -102 -40 -112 -56 -8 -13 27 -78 59 -108 l23
-22 46 22 c70 34 147 39 219 12 33 -12 67 -24 76 -27 18 -5 89 85 89 113 0 9
-26 27 -67 46 -60 27 -81 32 -173 35 -82 2 -117 -1 -160 -15z"/>
<path d="M355 17738 c-8 -45 -2 -2485 7 -2493 3 -4 101 -6 218 -5 185 1 218 3
264 21 76 28 137 85 172 161 l29 63 3 610 c3 604 3 611 -19 670 -22 62 -53
114 -76 128 -19 12 -16 45 7 77 42 59 52 109 57 281 8 253 -16 350 -109 436
-78 71 -128 83 -353 83 l-194 0 -6 -32z m398 -143 c40 -16 84 -64 95 -103 9
-35 9 -359 0 -393 -22 -76 -117 -122 -244 -117 l-79 3 -3 300 c-1 165 0 305 3
312 7 19 182 17 228 -2z m29 -784 c24 -10 53 -29 64 -42 47 -53 48 -64 52
-613 4 -578 0 -636 -48 -696 -40 -50 -82 -62 -215 -58 l-110 3 -3 690 c-1 380
0 700 3 713 5 21 10 22 109 22 80 0 114 -4 148 -19z"/>
<path d="M2292 17693 l3 -78 130 -5 130 -5 3 -1174 c2 -925 5 -1177 15 -1183
6 -4 39 -8 72 -8 33 0 66 4 72 8 10 6 13 258 15 1183 l3 1174 125 5 125 5 0
75 0 75 -348 3 -348 2 3 -77z"/>
<path d="M1580 17481 c-86 -28 -168 -104 -202 -189 l-23 -57 -3 -855 c-2 -755
-1 -863 13 -921 74 -302 525 -337 658 -51 l22 47 0 900 0 900 -27 50 c-33 64
-94 128 -150 157 -36 18 -62 23 -153 25 -60 1 -121 -1 -135 -6z m175 -152 c52
-15 110 -74 124 -126 8 -30 11 -283 9 -870 -3 -787 -4 -830 -22 -866 -48 -96
-199 -123 -286 -51 -69 59 -65 1 -68 913 -3 903 -3 897 55 954 29 27 92 55
128 56 11 1 38 -4 60 -10z"/>
<path d="M1614 15161 c-7 -8 -4 -150 4 -153 4 -2 45 -1 92 2 l85 5 0 70 0 70
-88 5 c-49 3 -91 3 -93 1z"/>
<path d="M503 14030 c-95 -20 -179 -86 -223 -175 l-25 -50 -3 -1045 -3 -1045
27 -62 c51 -122 149 -184 302 -191 84 -4 101 -2 163 23 83 32 146 96 181 183
l23 57 3 739 c2 548 0 742 -9 752 -15 19 -418 21 -437 2 -18 -18 -16 -127 3
-134 8 -3 69 -7 135 -7 95 -2 123 -5 130 -17 6 -9 10 -271 10 -660 l0 -646
-22 -44 c-61 -121 -261 -121 -325 0 l-23 43 0 986 c0 616 4 999 10 1021 11 41
61 94 103 109 44 17 113 13 161 -9 66 -32 96 -93 96 -198 0 -91 1 -92 81 -92
78 0 89 10 89 80 0 230 -127 379 -328 386 -42 2 -96 -1 -119 -6z"/>
<path d="M1550 14034 c-85 -16 -169 -71 -215 -140 -67 -101 -65 -66 -63 -1296
l3 -1103 80 0 80 0 5 270 c3 149 7 271 8 273 1 1 81 2 177 2 96 0 176 -1 177
-2 1 -2 5 -124 8 -273 l5 -270 80 0 80 0 0 1135 c0 1076 -1 1138 -18 1188 -46
130 -154 208 -302 216 -44 3 -91 2 -105 0z m171 -177 c31 -16 51 -36 67 -67
l22 -44 0 -768 0 -768 -26 -10 c-33 -13 -285 -13 -319 0 l-25 10 2 778 3 779
28 36 c58 77 162 99 248 54z"/>
<path d="M2575 14031 c-105 -18 -206 -103 -244 -204 -21 -58 -21 -59 -21
-1082 0 -735 3 -1032 11 -1052 6 -15 16 -39 22 -53 32 -73 109 -140 194 -165
73 -22 191 -19 260 6 72 28 144 94 180 168 l28 56 0 1040 0 1040 -26 56 c-58
122 -160 190 -294 195 -38 1 -88 -1 -110 -5z m175 -173 c33 -17 51 -35 68 -68
l22 -44 0 -1001 0 -1000 -23 -40 c-40 -73 -155 -107 -240 -71 -42 17 -83 66
-97 114 -14 51 -14 1953 0 2004 13 47 53 95 94 113 49 21 125 18 176 -7z"/>
<path d="M1544 11397 c-21 -12 -20 -133 2 -141 9 -3 51 -6 95 -6 l80 0 -3 77
-3 77 -78 0 c-43 1 -85 -3 -93 -7z"/>
<path d="M1485 10263 c-22 -9 -59 -29 -82 -45 -43 -29 -103 -105 -103 -130 0
-8 -6 -20 -12 -26 -10 -10 -13 -237 -13 -1065 l0 -1052 26 -55 c33 -70 85
-122 157 -156 50 -24 69 -27 157 -27 88 0 108 3 161 27 99 44 161 121 184 227
8 40 10 321 8 1064 l-3 1010 -27 55 c-36 74 -88 127 -156 158 -48 23 -73 27
-157 29 -75 2 -110 -1 -140 -14z m179 -145 c22 -6 56 -22 74 -35 65 -48 62 7
62 -1096 l0 -1000 -25 -42 c-64 -110 -240 -113 -313 -6 -16 24 -17 97 -20
1031 -2 667 0 1017 7 1040 13 45 61 91 109 106 49 16 58 16 106 2z"/>
<path d="M2495 10255 c-77 -31 -152 -108 -180 -185 -20 -54 -20 -80 -20 -1085
l0 -1030 33 -67 c39 -81 91 -129 168 -158 83 -30 246 -26 316 8 54 27 121 92
144 140 43 91 61 263 28 276 -9 3 -47 6 -85 6 l-69 0 0 -75 c0 -77 -16 -133
-48 -168 -47 -52 -147 -72 -215 -43 -49 20 -95 78 -102 128 -3 24 -5 484 -3
1024 l3 980 27 41 c50 76 151 98 243 52 70 -34 94 -86 95 -196 l0 -82 37 -7
c20 -4 57 -3 82 2 l46 9 3 60 c7 126 -35 238 -116 313 -66 59 -132 82 -240 82
-69 0 -100 -6 -147 -25z"/>
<path d="M349 10244 c-5 -7 -8 -484 -7 -1260 l3 -1249 350 0 350 0 0 70 0 70
-265 5 -265 5 -3 1183 c-1 650 -5 1182 -10 1183 -67 6 -145 2 -153 -7z"/>
<path d="M1526 7634 c-7 -19 -8 -107 -1 -126 7 -18 174 -15 186 4 13 20 11
112 -3 126 -7 7 -44 12 -94 12 -65 0 -83 -3 -88 -16z"/>
<path d="M1509 6516 c-102 -39 -167 -93 -207 -173 -42 -82 -43 -127 -40 -1273
l3 -1095 73 -3 c46 -2 79 2 88 9 12 10 14 182 14 1138 0 1286 -8 1173 90 1224
97 49 195 24 249 -63 l21 -35 0 -1132 0 -1133 23 -5 c13 -4 50 -5 82 -3 l60 3
3 1130 c2 803 0 1142 -8 1170 -29 105 -89 178 -182 221 -51 23 -79 29 -148 31
-53 2 -98 -3 -121 -11z"/>
<path d="M585 6489 c-177 -67 -170 -63 -173 -93 -2 -15 1 -33 6 -39 5 -7 12
-24 16 -39 9 -37 28 -36 146 6 165 59 160 56 160 79 -1 32 -43 112 -60 114 -8
1 -51 -12 -95 -28z"/>
<path d="M2323 6493 c-10 -4 -13 -264 -13 -1253 0 -1061 2 -1249 14 -1259 9
-7 41 -11 83 -9 l68 3 5 275 5 275 171 3 c150 2 173 0 185 -14 11 -13 15 -76
19 -278 l5 -261 64 -3 c35 -2 68 1 72 5 5 5 9 573 9 1263 l0 1255 -75 0 -75 0
0 -882 c0 -561 -3 -891 -10 -907 l-10 -26 -177 2 -178 3 -3 908 -2 907 -73 -1
c-39 0 -78 -3 -84 -6z"/>
<path d="M475 6218 c-124 -41 -199 -113 -233 -223 -10 -31 -12 -267 -10 -1030
l3 -990 54 -3 c30 -2 65 -1 78 3 l23 5 0 263 c0 191 3 266 12 275 8 8 63 12
180 12 155 0 168 -1 178 -19 6 -12 10 -118 10 -275 l0 -256 23 -5 c13 -4 48
-5 78 -3 l54 3 0 1005 0 1005 -27 55 c-46 93 -107 142 -217 176 -53 16 -162
17 -206 2z m202 -179 c32 -17 53 -37 67 -64 21 -39 21 -54 24 -647 2 -425 0
-613 -8 -628 -10 -19 -20 -20 -178 -20 -92 0 -173 4 -180 8 -10 7 -12 133 -10
633 3 563 5 627 20 655 48 88 162 115 265 63z"/>
<path d="M303 2739 c-10 -10 -13 -277 -13 -1266 l0 -1253 26 -6 c46 -12 416 3
454 18 115 45 176 115 209 238 9 34 11 291 9 1030 l-3 985 -23 56 c-32 81 -88
140 -164 174 -62 28 -68 29 -273 33 -163 3 -213 1 -222 -9z m424 -170 c30 -15
52 -35 71 -67 l27 -47 0 -981 0 -980 -27 -42 c-40 -59 -76 -74 -190 -80 -53
-2 -108 -2 -122 2 l-26 6 0 1099 c0 604 3 1101 7 1104 3 4 54 7 112 7 86 0
112 -4 148 -21z"/>
<path d="M1322 1583 l3 -1158 24 -45 c42 -78 82 -119 150 -153 61 -30 72 -32
171 -32 93 0 111 3 161 27 71 34 141 111 168 184 21 54 21 69 21 1195 l0 1140
-82 -3 -83 -3 -3 -1130 c-2 -1250 2 -1168 -67 -1221 -51 -39 -143 -44 -205
-12 -25 13 -55 38 -67 57 l-23 34 0 1123 c0 617 -3 1129 -6 1138 -5 13 -22 16
-85 16 l-79 0 2 -1157z"/>
<path d="M2310 2019 c0 -518 3 -733 12 -758 39 -123 99 -187 221 -235 l37 -15
0 -395 0 -396 85 0 85 0 0 395 0 396 63 29 c100 47 152 104 186 207 21 62 21
75 19 775 l-3 713 -80 0 -80 0 -5 -720 -5 -720 -23 -37 c-44 -71 -112 -97
-207 -79 -46 9 -93 43 -118 86 -9 14 -13 220 -17 745 l-5 725 -82 3 -83 3 0
-722z"/>
</g>
</svg>
