<?xml version="1.0" encoding="utf-8"?>
<!-- Generator: Adobe Illustrator 16.0.0, SVG Export Plug-In . SVG Version: 6.00 Build 0)  -->
<!DOCTYPE svg PUBLIC "-//W3C//DTD SVG 1.1//EN" "http://www.w3.org/Graphics/SVG/1.1/DTD/svg11.dtd">
<svg version="1.1" id="レイヤー_1" xmlns="http://www.w3.org/2000/svg" xmlns:xlink="http://www.w3.org/1999/xlink" x="0px"
	 y="0px" width="80px" height="375px" viewBox="0 0 80 375" enable-background="new 0 0 80 375" xml:space="preserve">
<g>
	<g>
		<path fill="#0A3854" d="M23.269,17.428c0-13.263-0.33-14.263-1.199-17.263l6.801,2.002c0.598,0.199,0.998,0.267,0.998,0.797
			c0,0.602-0.066,0.602-2.266,2.468c-0.068,1.867-0.133,10.265-0.133,11.997h2.332l1.799-2.399c0.399-0.599,0.666-0.8,0.999-0.8
			c0.267,0,0.468,0,1.267,0.666l2.867,2.4c0.334,0.266,0.668,0.531,0.668,0.997c0,0.603-0.536,0.737-1.002,0.737h-8.93
			c0,1.731-0.067,4.731-0.067,5.332c0,0.933,0.067,8.33,0.067,8.599c1.734-0.668,4.732-1.934,7.662-3.402l0.268,0.467
			c-3.531,2.734-6.398,4.667-7.93,5.665c0,2.4,0.064,16.464,0.133,18.463c0,0.602,0.066,3.269,0.066,3.799
			c0,1.07-0.066,1.668-0.933,2.4c-0.268,0.201-1.2,0.934-2.667,0.934c-0.267,0-1.666,0-1.666-1.465c0-0.535,0.266-3,0.266-3.534
			c0.2-6.132,0.27-9.2,0.334-17.796c-3.065,1.866-6.199,3.599-9.398,5.199c-0.933,2.465-1.332,2.465-1.732,2.465
			c-0.533,0-0.936-0.667-1.132-1.065l-2.866-5.934c1.664,0.068,2.797-0.132,4.798-0.8c2.134-0.665,6.932-2.465,10.397-3.731
			c0-4.333,0.065-11.266,0.134-15.595h-6.932c-0.268,0.667-1.466,4.664-3.466,9.13c-1.133,2.6-2.199,3.801-2.666,4.333l-0.533-0.201
			c1.533-3.933,4.531-16.463,4.133-27.66l6.33,2.2c0.468,0.132,0.867,0.333,0.867,0.864c0,0.867-1.533,1.402-2.066,1.535
			c-1.066,4.6-1.933,7.599-2.131,8.197H23.269z M60.993,35.224l1.934-2.932c0.27-0.332,0.535-0.8,1.066-0.8
			c0.334,0,0.533,0.202,1.135,0.667l3.465,2.867c0.133,0.133,0.666,0.599,0.666,1.065c0,0.6-0.533,0.734-1.066,0.734H56.529
			c0,2.599,0.2,16.128,0.2,16.663c0,3.599-0.269,6.265-7.332,8.264c-0.733-2.599-3.067-5.199-7.465-6.799v-0.532
			c3.666,0.266,6.399,0.4,7.998,0.4c2.201,0,2.264-0.467,2.264-4.533c0-1.732-0.062-5.865-0.197-13.462H41.665
			c-2.6,0-5.266,0.131-7.863,0.598l-1.266-2.667c4.465,0.402,8.929,0.467,10.195,0.467h9.266c-0.135-7.064-0.135-7.664-0.934-10.465
			H39.601c-2.667,0-5.268,0.136-7.865,0.602l-1.334-2.6c4.532,0.332,9.064,0.399,10.264,0.399h5.199V11.897H42.2
			c-2.667,0-5.267,0.065-7.867,0.598l-1.331-2.665c4.464,0.398,8.931,0.466,10.265,0.466H45.8c-0.137-5.797-0.137-5.866-1.135-9.999
			l7.332,2.2c0.601,0.2,0.865,0.334,0.865,0.8c0,0.8-1.799,1.732-2.465,2.066v4.933h6.397l2.332-2.931
			c0.668-0.868,0.868-0.868,1.067-0.868c0.334,0,0.469,0.067,1.2,0.733l3.466,2.933c0.334,0.266,0.668,0.599,0.668,1
			c0,0.665-0.602,0.733-1.002,0.733H50.397v11.263h10.797l2.332-3.134c0.467-0.664,0.734-0.865,1.066-0.865
			c0.268,0,0.469,0.068,1.201,0.732l3.533,3.131c0.334,0.334,0.666,0.602,0.666,1.07c0,0.598-0.6,0.664-1,0.664H52.132l4.865,1.068
			c0.531,0.133,1.533,0.334,1.533,1.2c0,0.667-0.668,1.133-1.934,1.733c-0.067,1.731-0.067,3.132-0.067,6.464H60.993z M36.8,40.024
			c3.266,0.533,9.064,2.4,9.064,6.533c0,1.596-0.998,2.798-2.533,2.798c-1.666,0-2.066-0.933-3.133-3.4
			c-1.467-3.466-2.865-4.797-3.667-5.465L36.8,40.024z"/>
		<path fill="#0A3854" d="M7.407,102.337c4.865-6.798,8.73-12.664,11.797-19.93c0.598-1.399,0.667-2.063,0.801-3.329l4.932,3.397
			c0.266,0.2,0.6,0.467,0.6,0.933c0,0.798-0.535,0.932-1.999,1.399c-0.402,0.535-3.134,4.264-4,5.533l1.933,1.063
			c0.268,0.136,0.6,0.334,0.6,0.802c0,0.2-0.268,0.668-0.532,0.8c-0.802,0.466-0.866,0.534-1.468,1.069
			c-0.064,4.065-0.132,8.197-0.132,12.263c0,2.867,0.132,18.063,0.132,18.261c0,2.002-1.533,2.934-3.466,2.934
			c-1.2,0-1.598-0.532-1.598-1.668c0-1.464,0.666-15.461,0.666-16.729c0.065-2.199,0.132-11.864,0.132-13.862
			c-3.6,4.266-6.598,6.264-8.131,7.333L7.407,102.337z M24.202,70.411c0.467,0.334,0.601,0.534,0.601,0.734
			c0,0.8-1.132,0.999-2.6,1.267c-6.265,6.997-10.063,10.198-13.73,11.998l-0.2-0.202c6.6-8.73,10.131-13.395,10.398-17.195
			L24.202,70.411z M44.331,94.874c4.066-6.333,8.133-15.131,10.266-23.196c0.465-1.666,0.398-2.333,0.398-4.465l6.664,3.334
			c0.203,0.065,0.734,0.33,0.734,0.865c0,0.334-0.133,0.533-0.332,0.666c-0.467,0.334-1.801,0.801-2.267,0.934
			c-3.532,7.266-5.532,10.598-8.199,14.396h9.333l2.332-3.132c0.6-0.8,0.801-0.867,1.066-0.867c0.4,0,0.664,0.332,1.201,0.798
			l3.666,3.069c0.398,0.334,0.664,0.533,0.664,0.999c0,0.735-0.732,0.735-0.998,0.735h-9.399l4.2,1.798
			c0.6,0.267,0.932,0.597,0.932,1c0,0.668-0.197,0.8-1.932,1.867c-0.934,5.531-2.4,11.931-6.132,18.397
			c3.999,4.665,9.397,7.865,15.198,9.864l-0.068,0.534c-1.666,0.397-3.932,1.197-6.334,3.93c-2.264-1.466-6.996-4.464-11.062-10.862
			c-4.732,6.331-11.93,10.131-19.663,12.061l-0.132-0.328c3.133-1.67,12.263-6.535,17.727-15.601
			c-1.73-3.667-3.463-8.463-3.996-16.395l0.533-0.131c1.066,4.531,2.601,9.396,5.132,13.263c3.999-8.999,3.665-18.462,3.6-19.395
			H50.33c-2.733,3.466-4.397,5.262-5.598,6.529c0,0.467-0.2,0.8-1,0.8h-6.867v9.798H38.8l1.667-2.2c0.399-0.531,0.666-0.8,0.998-0.8
			c0.267,0,0.401,0.068,1.267,0.668l3.201,2.199c0.332,0.265,0.598,0.599,0.598,1.002c0,0.666-0.666,0.731-0.998,0.731h-8.667v8.398
			c1.534-0.332,9.199-1.934,10.866-2.399l0.197,0.401c-4.93,2.731-17.527,7.732-19.459,8.465c-0.137,0.401-0.471,1.733-1.268,1.733
			c-0.334,0-0.733-0.334-0.934-0.599l-3.6-6.131c0.668,0.132,2.268,0.333,3.132,0.333c1.534,0,5.201-0.667,6.935-1v-9.199
			c-3.865,0-6.197,0.134-8.467,0.599l-1.33-2.666c4.73,0.334,8.93,0.467,9.797,0.402v-9.733c-4.801,0-6.865,0.269-8.467,0.599
			l-1.266-2.667c5.33,0.403,9.199,0.468,10.197,0.468h4.067l1.798-2.199c0.468-0.599,0.602-0.802,1-0.802
			c0.266,0,0.535,0.136,1.199,0.668L44.331,94.874z M39.533,68.48c0.401,0.064,0.733,0.265,0.733,0.664
			c0,0.333-0.332,0.735-0.6,0.933c-0.201,0.136-1.268,0.868-1.4,1.068c-0.067,4.533-0.135,4.933-0.135,14.664h4.333
			c0.2-12.399-0.132-13.731-0.532-15.262l5.466,1.531c0.399,0.066,0.8,0.266,0.8,0.733c0,0.466-0.2,0.599-1.8,1.865
			c0,1.801,0.2,9.934,0.2,11.6c0,1,0,3.397-2.668,3.397c-1.664,0-1.598-1.267-1.533-2.266H31.2c-1.133,0-1.398,0.067-2.398,0.401
			c-0.803,0.267-1.399,0.399-1.934,0.399c-1.397,0-1.397-1.134-1.397-1.8c0-1.134,0.265-6.397,0.265-7.464
			c0-1.268,0-5.2-0.599-8.332l5.331,1.333c0.4,0.133,0.936,0.266,0.936,0.733c0,0.732-1.002,1.4-1.803,1.933v11.198h4.6
			c0-14.131,0-15.796-0.866-18.996L39.533,68.48z"/>
		<path fill="#0A3854" d="M48.397,154.188c1.201-0.466,1.933-0.868,1.933-1.802c0-0.466-0.134-0.996-0.532-2.132
			c1.066,0.267,3.132,0.668,4.397,2.132c1.067,1.203,1.802,2.936,1.802,3.604c0,1.93-0.734,1.998-3.733,2.397
			c-9.133,1.266-29.395,9.732-29.395,19.262c0,1.067,0.2,2.669,2.067,4.534c2.598,2.598,10.195,2.598,12.195,2.598
			c5.001,0,7.133-0.399,14.332-1.531c1.064-0.201,1.867-0.266,2.533-0.266c1.732,0,4.533,0.664,4.533,2.799
			c0,1.53-1.602,2.064-2.467,2.332c-2,0.598-8.999,1.064-13.199,1.064c-2.533,0-13.196,0-17.994-3.33
			c-2.667-1.801-4.268-4.801-4.268-7.597c0-6.136,5.466-12.465,12.799-16.866c-2.133-3.065-2.6-5.729-2.666-7.796
			c-0.135-9.931-0.201-11-0.469-12.265c-0.465-2.667-1.998-3.665-2.598-4.065c-0.4-0.202-2.198-1.134-2.6-1.401
			c0.801-0.334,2.133-0.932,3.801-0.932c2.93,0,7.661,2.667,7.661,4.663c0,0.402-0.331,1.401-0.397,1.601
			c-0.6,1.6-1.398,3.932-1.398,9.064c0,3.201,0.131,6.535,1.465,9.467C40.331,157.32,44.931,155.454,48.397,154.188z"/>
		<path fill="#0A3854" d="M16.405,238.563c-0.067,0.668,0.064,3.467,0.064,4.066c0,2.268-1.066,3.332-3.064,3.332
			c-0.932,0-1.667-0.402-1.667-1.8c0-0.468,0.069-1.268,0.069-1.602c0.199-13.062,0.199-21.726,0.199-27.461
			c0-2.864-0.269-6.529-0.668-8.728l6.133,2.798h5.467l1.396-1.6c0.468-0.534,0.734-0.733,1.136-0.733
			c0.399,0,0.998,0.533,1.198,0.666l2.535,2.199c0.396,0.4,0.664,0.734,0.664,1.068c0,0.467-0.533,0.932-2.398,2.199
			c0,6.264,0.265,14.064,0.529,20.529c0.069,1.6,0.069,3.064,0.069,3.932c0,0.666-0.134,1.268-0.733,1.801
			c-0.933,0.865-2.198,0.932-2.6,0.932c-1.064,0-1.332-0.666-1.332-1.6H16.405z M23.469,236.965v-26.194h-7.063v26.194H23.469z
			 M61.796,225.634l2.332-3.135c0.268-0.398,0.6-0.799,1-0.799s0.932,0.469,1.199,0.732l3.334,3.134c0.332,0.332,0.6,0.6,0.6,1
			c0,0.6-0.535,0.665-1.002,0.665H49.664c3.667,11.063,14.063,19.864,22.929,21.932l-0.068,0.332
			c-3.865,1.465-4.664,2.73-5.863,4.865c-9.798-6.066-15.531-16.264-18.064-27.129c0.135,12.865,0.399,20.862,0.535,27.195
			c0,1.002,0.064,2.466,0.064,3.266c0,0.934-0.064,1.465-0.532,2.066c-0.8,0.932-1.934,1.334-3.065,1.334
			c-1.467,0-1.998-0.732-1.998-2.602c0-2.129,0.33-11.527,0.396-13.463c0.069-3.464,0.135-7.799,0.135-11.732
			c-4.531,7.531-14.397,17.531-24.127,21.396l-0.134-0.6c7.599-4.797,18.396-18.195,22.396-26.861h-3.666
			c-2.667,0-5.267,0.135-7.865,0.603l-1.335-2.602c4.335,0.334,8.397,0.401,10.267,0.401h4.531v-6.267
			c0-1.134-0.066-4.331-0.066-5.667h-3.467c-2.666,0-5.266,0.135-7.865,0.602l-1.332-2.666c4.398,0.334,8.533,0.466,10.264,0.466
			h2.335c-0.334-7.663-0.602-9.597-1.401-11.929l6.934,1.864c0.799,0.202,1.266,0.401,1.266,0.934c0,0.668-0.534,1.134-2.332,2.067
			c0,1.398,0,4.664-0.066,7.063h8.264l2.801-3.132c0.664-0.731,0.73-0.865,0.998-0.865c0.4,0,1,0.531,1.268,0.731l3.529,3.134
			c0.402,0.4,0.668,0.598,0.668,1c0,0.6-0.598,0.73-1.066,0.73H48.466c0,4.6,0,5.333,0.066,11.934H61.796z"/>
		<path fill="#0A3854" d="M38.8,317.657c3.4-0.802,10.264-2.734,15.197-6.531c3-2.334,7.33-6.667,7.33-13.332
			c0-7.731-6.996-10.264-10.397-10.264c-4.997,0-12.263,2.732-20.262,9.664c0.067,5.599,0.134,11.798,0.267,14.397
			c0.067,0.866,0.334,4.733,0.334,5.532c0,0.997-0.199,5.332-2.866,5.332c-1.134,0-1.733-0.801-1.733-2.934
			c0-1.199,0.533-6.73,0.6-7.865c0.266-3.999,0.334-8.332,0.466-11.596c-2.932,3.065-5.865,7.197-8.931,12.463
			c-1.732,3.001-2.132,3.001-2.8,3.001c-1.401,0-1.733-1.401-1.733-2.602c0-2.132,0.602-2.733,2.801-4.932
			c2.266-2.266,8.065-10.198,10.863-17.596c0-0.468,0.064-2.666,0.064-3.134c-0.863-0.332-4.864,2.201-5.529,2.666
			c-2.334,1.666-2.599,1.867-3.532,1.867c-2.733,0-4.598-3.867-4.598-6.533c0-0.668,0.132-0.934,0.332-1.332
			c1.399,2.396,3.333,2.799,4.6,2.799c2.665,0,8.463-2.799,8.864-3c0.066-4.134,0.133-7.332,0.133-7.799
			c0-3.196-0.27-4.398-2.064-5.398c-0.069,0-2.533-0.865-2.735-0.934c0.733-0.531,2.002-1.533,3.667-1.533
			c2.666,0,6.332,3.001,6.332,4.734c0,0.599-0.8,3.066-0.932,3.598c-0.334,1.268-0.334,1.668-0.736,5.334
			c0.334-0.066,4.867,0.732,4.867,2.266c0,1-1.733,2.867-2.598,3.867c-1.136,1.198-2.201,2.73-3.334,4.796
			c-0.135,1.134-0.135,1.268-0.135,2.401c7.531-6.529,14.796-10.133,22.062-10.133c5.867,0,13.664,4,13.664,13.333
			c0,14.662-17.131,20.193-27.527,19.859V317.657z"/>
		<path fill="#0A3854" d="M34.735,357.142c-0.268,0.602-3.535,9.598-3.535,9.732c-0.198,0.531-0.266,1-0.266,1.664
			c0,0.603,0.533,3,0.533,3.466c0,1.733-1.066,2.336-2.133,2.336c-2.332,0-11.799-3.335-12.93-22.331
			c-0.134-2.732-0.268-7.132-0.602-9.865c-0.4-3.598-1.798-6.133-2.8-7.865c3.334,0.134,8.399,3.068,8.399,7.467
			c0,0.266,0,0.801-0.133,1.467c-0.6,3.663-1.002,5.797-1.002,9.264c0,9.598,4.268,13.799,5.866,13.799
			c0.534,0,1.067-0.604,1.335-0.869c0.064-0.064,5.73-7.328,6.664-8.596L34.735,357.142z M49.798,338.944
			c6.997,0,16.064,10.198,16.064,19.863c0,0.802,0,4.531-2.936,4.531c-2.132,0-2.264-1.398-2.666-4.865
			c-0.398-3.798-1.199-6.729-2.064-8.797c-1.133-2.6-4.4-7.865-9.73-10.533C48.862,339.012,49.132,338.944,49.798,338.944z"/>
	</g>
</g>
</svg>
