<?xml version="1.0" encoding="utf-8"?>
<!-- Generator: Adobe Illustrator 16.0.0, SVG Export Plug-In . SVG Version: 6.00 Build 0)  -->
<!DOCTYPE svg PUBLIC "-//W3C//DTD SVG 1.1//EN" "http://www.w3.org/Graphics/SVG/1.1/DTD/svg11.dtd">
<svg version="1.1" id="レイヤー_1" xmlns="http://www.w3.org/2000/svg" xmlns:xlink="http://www.w3.org/1999/xlink" x="0px"
	 y="0px" width="80px" height="324px" viewBox="0 0 80 324" enable-background="new 0 0 80 324" xml:space="preserve">
<g>
	<g>
		<g>
			<g>
				<path fill="#0A3854" d="M57.764,4.099L59.963,1.1c0.466-0.601,0.732-0.935,1.133-0.935c0.267,0,0.468,0.136,1.198,0.668
					l4.135,3.133c0.332,0.266,0.666,0.6,0.666,1.067c0,0.599-0.602,0.666-1,0.666H20.171c0.334,28.994,0.4,37.791-10.666,49.656
					l-0.531-0.333c6.8-10.531,6.8-23.062,6.8-33.927c0-12.332-0.202-15.862-1.536-19.994l7.466,2.999H57.764z M50.366,46.223
					l2.131-2.932c0.332-0.468,0.666-0.935,1.066-0.935s0.799,0.268,1.267,0.734l3.399,2.999c0.398,0.334,0.668,0.6,0.668,1
					c0,0.601-0.535,0.734-1.002,0.734H43.432v7.131h16.731l2.2-3.066c0.334-0.6,0.599-1,1.065-1c0.334,0,1,0.533,1.2,0.666
					l3.665,3.268c0.4,0.399,0.668,0.6,0.668,0.997c0,0.602-0.602,0.737-1.067,0.737H24.036c-1.665,0-4.865,0.065-7.863,0.598
					l-1.268-2.665c4.199,0.333,8.465,0.465,10.598,0.465c0-9.865,0-11.732-0.732-14.996l5.598,1.399
					c0.4,0.133,1.267,0.334,1.267,1.065c0,0.601-0.866,1.067-1.733,1.535v10.997h8.998c0-1.866-0.064-10.73-0.064-11.598
					c-0.068-2.132-0.201-2.931-0.867-6.465l6.131,1.934c0.867,0.265,1.334,0.4,1.334,0.998c0,0.668-1.135,1.401-2.001,2.001v4.398
					H50.366z M21.837,16.029c2.4,0.2,6.133,0.332,7.932,0.4c-0.066-4.333-0.199-5.133-0.866-8.531l4.999,1.734
					c0.6,0.199,1.268,0.466,1.268,0.999c0,0.4-0.6,0.866-1.733,1.8v4.064h1.933l1.4-1.933c0.266-0.333,0.599-0.866,1.065-0.866
					c0.399,0,0.599,0.265,1.267,0.933l1.666,1.732c0.133,0.134,0.602,0.601,0.602,1.002c0,0.599-0.535,0.732-1.067,0.732h-6.865
					v2.667c1.466,0.2,7.265,0.867,7.265,4.799c0,1.266-0.868,1.998-1.732,1.998c-1,0-1.334-0.532-2.934-3.131
					c-0.267-0.401-1.465-2.135-2.599-2.868c0,1.802,0,3.201,0.065,5.267c0.066,2.266,0.199,5.798,0.199,8.065
					c0,0.932-0.133,1.533-0.864,2.067c-0.734,0.533-1.535,0.665-2.002,0.665c-1.465,0-1.465-1.332-1.465-1.732
					c0-0.666,0.2-3.801,0.2-4.534c0.133-4.063,0.133-7.131,0.133-8.463c-0.866,1.533-3.533,5.596-8.799,9.53l-0.266-0.532
					c3.6-4.667,6.334-10.865,7.266-13.73c-1.6,0.065-3.199,0.2-4.8,0.531L21.837,16.029z M42.566,16.029
					c3.332,0.267,6.198,0.332,7.063,0.332c-0.266-5.264-0.467-6.263-1.066-8.063l5.4,1.733c0.6,0.201,1.066,0.401,1.066,0.867
					c0,0.398-0.2,0.466-1.666,1.598c0,1.333,0,2.867-0.068,3.934h7.399l1.933-2.399c0.534-0.667,0.733-0.868,1.066-0.868
					c0.402,0,0.667,0.268,1.267,0.734l2.8,2.4c0.468,0.399,0.6,0.733,0.6,1.067c0,0.599-0.6,0.666-1,0.666H54.031
					c4.931,8.531,12.661,11.131,16.263,12.197l-0.067,0.468c-3.333,0.665-4.331,1.932-5.932,3.932
					c-4.132-3.465-8.132-7.798-10.999-15.662v10.464c0,0.867,0.133,4.732,0.133,5.531c0,0.735-0.064,1.599-0.932,2.2
					c-0.801,0.533-1.666,0.667-2.199,0.667c-1.199,0-1.333-0.934-1.333-1.467c0-0.133,0.134-1.598,0.198-2.398
					c0.334-4.8,0.402-7.065,0.535-12.265c-1.533,2.199-5.331,7.465-12.531,11.73l-0.398-0.466c4.732-4.6,9.332-11.531,10.863-14.795
					c-2.332,0.2-2.933,0.332-3.732,0.466L42.566,16.029z"/>
				<path fill="#0A3854" d="M43.699,67.879c0.2,0.067,1,0.334,1,1c0,0.865-0.601,1.199-2.001,2.067
					c-0.064,1.4-0.064,1.867-0.064,6.463H57.03l1.732-1.731c0.135-0.067,0.999-0.934,1.4-0.934c0.266,0,0.532,0.199,0.865,0.466
					l3.4,2.801c0.133,0.133,0.467,0.532,0.467,0.799c0,0.468-0.201,0.8-0.467,1.066c-0.269,0.201-1.334,1.067-1.535,1.199
					c0,1.401,0.068,8.334,0.068,8.8c0,0.467,0.266,6.331,0.266,6.331c0.134,2.6-3,2.732-3.265,2.732c-0.134,0-1.802,0-1.935-1.598
					H42.3c-0.333,3.999-0.734,8.998-4.865,15.396c7.197,4.933,15.93,6.864,24.66,6.864c4.598,0,7.666-0.465,9.664-0.799v0.532
					c-1.797,1.002-3.864,3.467-4.732,6.999c-16.729-0.333-26.193-6.398-31.593-10.93c-1.733,2.133-3.731,4.064-5.997,5.599
					c-5.533,3.798-11.331,5.399-18.064,5.464l-0.064-0.532c12.796-3.133,18.262-9.133,21.194-13.33
					c-4.399-4.8-5.6-8.798-6.198-10.799l0.466-0.265c2.133,3.333,4.265,5.93,7.333,8.597c3.064-5.599,3.397-9.997,3.666-12.797
					H22.371c-0.134,1.399-0.267,3.267-3.267,3.267c-1.598,0-1.732-1.001-1.732-1.6c0-0.134,0.198-3.132,0.198-3.534
					c0.201-6.198,0.269-12.331,0.269-12.998c0-2.133-0.067-3.666-0.799-7.866l5.863,2.8h15.064
					c-0.134-4.931-0.134-7.13-1.533-11.663L43.699,67.879z M37.834,95.739c0.267-4.999,0.267-8.732,0.134-16.729H22.371v16.729
					H37.834z M58.028,95.739V79.01H42.634c-0.067,7.331-0.067,12.331-0.27,16.729H58.028z"/>
				<path fill="#0A3854" d="M49.163,153.253c1.203-0.466,1.935-0.865,1.935-1.797c0-0.467-0.133-1.002-0.533-2.134
					c1.067,0.266,3.133,0.667,4.399,2.134c1.066,1.198,1.799,2.931,1.799,3.599c0,1.933-0.732,1.998-3.731,2.4
					c-9.132,1.266-29.394,9.73-29.394,19.262c0,1.066,0.199,2.666,2.066,4.531c2.598,2.602,10.195,2.602,12.197,2.602
					c4.999,0,7.132-0.4,14.329-1.533c1.065-0.199,1.866-0.268,2.534-0.268c1.732,0,4.53,0.666,4.53,2.797
					c0,1.537-1.601,2.068-2.464,2.336c-2.001,0.6-8.998,1.066-13.199,1.066c-2.533,0-13.195,0-17.996-3.334
					c-2.665-1.799-4.266-4.799-4.266-7.598c0-6.131,5.467-12.463,12.797-16.863c-2.131-3.066-2.598-5.732-2.665-7.799
					c-0.134-9.931-0.201-10.996-0.468-12.263c-0.465-2.667-1.998-3.667-2.598-4.067c-0.4-0.2-2.2-1.132-2.6-1.401
					c0.801-0.333,2.133-0.933,3.799-0.933c2.932,0,7.664,2.667,7.664,4.667c0,0.399-0.332,1.4-0.399,1.6
					c-0.599,1.599-1.397,3.934-1.397,9.065c0,3.2,0.133,6.532,1.465,9.463C41.099,156.388,45.698,154.521,49.163,153.253z"/>
				<path fill="#0A3854" d="M55.629,203.037l2.399-1.598c0.133-0.068,0.734-0.535,1.067-0.535c0.199,0,0.733,0.4,0.867,0.467
					l3.132,2.801c0.267,0.197,0.467,0.465,0.467,0.865s-0.399,0.666-0.6,0.801c-0.334,0.197-1.801,0.932-2.066,1.064
					c-0.4,5.268-0.668,10.467-0.668,15.73c0,18.596,4.601,27.596,6.266,27.596c0.4,0,0.734,0,2.533-3.467
					c1.534-2.934,1.8-3.531,2.202-4.4l0.665,0.201c-0.135,0.934-0.999,4.998-1.067,5.799c-0.065,0.732-0.334,3.332-0.334,4.932
					c0,1.332,0.134,1.666,0.802,3.201c0.067,0.199,0.2,0.529,0.2,0.998c0,1.734-1.532,1.932-2.134,1.932
					c-2.334,0-5.264-2.73-6.398-4.465c-6.999-10.33-7.199-28.527-7.199-37.791c0-5.998,0.2-9.598,0.268-12.531H22.704
					c0.065,2.533,0.133,5.266,0.133,10.797c0,18.129-1,33.059-14.131,44.525l-0.6-0.402c5.065-7.396,10.064-18.461,10.064-40.057
					c0-3.732-0.199-15.396-1.266-19.928l6.998,3.465H55.629z M48.099,218.9c0.399-0.467,0.534-0.666,0.934-0.666
					c0.267,0,0.598,0.268,0.932,0.467l2.533,2.133c0.332,0.266,0.799,0.6,0.799,1c0,0.398-0.198,0.732-1.998,1.732
					c0,2.201,0,6.932,0.134,9c0,0.264,0.2,2.463,0.2,2.531c0,2.398-1.867,2.398-2.268,2.398c-0.6,0-0.801-0.066-2.332-0.865
					c-0.268-0.133-0.533-0.201-1.667-0.201h-4.599v10.664l6.398-1c-1.134-1.932-2.533-3.398-4.332-5.199l0.133-0.266
					c3.733,1.334,6.6,2.867,8.531,4.533c0.666,0.533,3.533,3.066,3.533,6.398c0,1.602-1.066,2.797-2.6,2.797
					c-1.866,0-2.334-1.398-2.666-2.531c-0.666-2.133-1.4-3.598-1.932-4.6c-4.267,1.867-5.399,2.201-19.263,6.4
					c-0.067,0-0.735,0.266-0.868,0.266c-0.133,0.201-0.6,1-0.73,1.133c-0.202,0.334-0.602,0.402-0.87,0.402
					c-0.466,0-0.799-0.535-0.864-0.736l-3.133-6.199c0.934,0.201,2.133,0.469,3.799,0.469c1.732,0,5.933-0.469,10.865-1.199V236.43
					h-5.8c-0.065,1.6-1.6,2.266-3.065,2.266c-1.266,0-1.468-0.598-1.468-1.266c0-0.398,0.067-1.199,0.202-1.801
					c0.265-2.666,0.265-9.396,0.265-12.395c0-0.467,0-3.668-0.265-5.334l4.73,2.801h5.4v-6.332c-5.668,0.799-9.532,0.664-11.799,0.6
					v-0.533c2.934-0.602,13.596-2.867,19.397-6.398c0.265-0.133,1.464-1.066,1.664-1.268l4.533,2.867c0.733,0.467,0.8,0.6,0.8,0.801
					c0,0.465-0.601,0.664-0.865,0.799c-0.402,0.064-0.535,0.133-3.068,0.199c-1.932,0.799-3.731,1.465-6.664,2.133v7.133h5.864
					L48.099,218.9z M36.769,234.83v-12.529h-5.865v12.529H36.769z M46.965,222.301h-6.198v12.529h6.198V222.301z"/>
				<path fill="#0A3854" d="M55.763,289.416l2.732-3.6c0.133-0.135,0.601-0.801,1.002-0.801c0.199,0,0.466,0.064,1.265,0.732
					l4.466,3.533c0.334,0.268,0.668,0.602,0.668,1.066c0,0.6-0.602,0.668-1.067,0.668H42.634
					c-0.067,10.062-0.067,20.594-0.067,30.191h17.661l3.334-3.6c0.666-0.73,0.733-0.799,1-0.799s0.467,0.133,1.267,0.734
					l4.398,3.531c0.334,0.266,0.668,0.6,0.668,1c0,0.6-0.601,0.73-1.001,0.73H19.771c-2.666,0-5.264,0.068-7.864,0.602l-1.334-2.666
					c4.533,0.4,8.933,0.467,10.266,0.467h16.931v-30.191H23.704c-2.667,0-5.265,0.131-7.865,0.598l-1.332-2.6
					c4.531,0.334,8.93,0.402,10.264,0.402h12.998c-0.135-15.467-0.135-16.865-1.668-21.73l8.066,2.135
					c0.398,0.133,1.064,0.398,1.064,0.932c0,0.398-0.532,1.066-0.864,1.334c-0.2,0.199-1.401,0.998-1.669,1.199
					c-0.064,5.799-0.064,9.33-0.064,16.131H55.763z"/>
			</g>
		</g>
	</g>
</g>
</svg>
