<?xml version="1.0" encoding="utf-8"?>
<!-- Generator: Adobe Illustrator 16.0.0, SVG Export Plug-In . SVG Version: 6.00 Build 0)  -->
<!DOCTYPE svg PUBLIC "-//W3C//DTD SVG 1.1//EN" "http://www.w3.org/Graphics/SVG/1.1/DTD/svg11.dtd">
<svg version="1.1" id="レイヤー_1" xmlns="http://www.w3.org/2000/svg" xmlns:xlink="http://www.w3.org/1999/xlink" x="0px"
	 y="0px" width="30px" height="30px" viewBox="0 0 30 30" enable-background="new 0 0 30 30" xml:space="preserve">
<path id="White_2_" fill="#FFFFFF" d="M28.345,0H1.656C0.741,0,0,0.741,0,1.655v26.688C0,29.258,0.741,30,1.656,30h14.369V18.383
	h-3.91v-4.528h3.91v-3.339c0-3.875,2.366-5.985,5.822-5.985c1.656,0,3.079,0.124,3.494,0.178v4.05L22.943,8.76
	c-1.88,0-2.244,0.894-2.244,2.204v2.891h4.483l-0.584,4.528h-3.899V30h7.646C29.259,30,30,29.258,30,28.344V1.655
	C30,0.741,29.259,0,28.345,0z"/>
</svg>
