<?xml version="1.0" encoding="utf-8"?>
<!-- Generator: Adobe Illustrator 16.0.0, SVG Export Plug-In . SVG Version: 6.00 Build 0)  -->
<!DOCTYPE svg PUBLIC "-//W3C//DTD SVG 1.1//EN" "http://www.w3.org/Graphics/SVG/1.1/DTD/svg11.dtd">
<svg version="1.1" id="レイヤー_1" xmlns="http://www.w3.org/2000/svg" xmlns:xlink="http://www.w3.org/1999/xlink" x="0px"
	 y="0px" width="80px" height="356px" viewBox="0 0 80 356" enable-background="new 0 0 80 356" xml:space="preserve">
<g>
	<g>
		<g>
			<g>
				<g>
					<path fill="#0A3854" d="M9.676,23.889c5.167,1.292,9.18,2.72,9.18,6.052c0,1.972-1.7,2.651-2.584,2.651
						c-1.563,0-2.176-1.088-3.264-3.195c-0.408-0.816-1.972-3.332-3.536-4.964L9.676,23.889z M32.318,1.723
						c1.496,0.408,1.768,0.748,1.768,1.156c0,0.477-0.136,0.612-1.7,1.632c0,1.292-0.067,1.428,0,2.108h11.491
						c0-1.021-0.067-3.944-0.478-6.324l4.828,1.428c1.496,0.408,1.769,0.748,1.769,1.156c0,0.477-0.138,0.612-1.699,1.632
						c0,0.34,0,1.836-0.067,2.108h11.693l2.518-2.788c0.34-0.408,0.475-0.612,0.813-0.612c0.341,0,0.748,0.408,0.953,0.478
						l3.467,2.991c0.34,0.204,0.545,0.544,0.545,0.884c0,0.612-0.612,0.68-1.088,0.68H48.297c0,0.477,0.135,2.721,0.135,2.924
						c0,1.904-2.038,2.108-2.854,2.108c-0.885,0-1.836-0.272-1.836-1.496c0-0.544,0.205-2.991,0.205-3.536H32.318
						c0,0.681,0.203,3.604,0.203,4.216c0,1.904-1.972,2.04-2.855,2.04s-1.836-0.271-1.836-1.496c0-0.271,0.068-0.814,0.068-1.088
						c0.136-0.884,0.136-2.651,0.136-3.672h-8.431c-1.7,0-4.964,0.068-8.023,0.612l-1.359-2.72
						c4.691,0.408,9.383,0.477,10.471,0.477h7.275c0-1.225-0.068-3.944-0.476-6.324L32.318,1.723z M22.936,30.553
						c-0.953,3.943-1.701,7.003-3.265,12.034c-1.428,4.691-1.7,5.712-1.7,6.8c0,1.021,0.204,1.903,0.68,3.467
						c0.816,2.584,0.885,3.469,0.885,4.352c0,2.652-1.632,4.08-3.332,4.08c-1.768,0-2.788-1.359-2.788-2.924
						c0-0.271,0.204-2.38,0.272-2.72c0.203-1.495,0.271-2.651,0.271-3.808c0-1.02,0-4.283-3.332-6.119l0.136-0.477
						c2.991,0,3.875,0,6.052-4.012c0.884-1.699,4.759-9.246,5.574-10.742L22.936,30.553z M16.543,12.738
						c2.788,0.68,8.295,2.106,8.295,6.188c0,1.496-0.884,2.787-2.448,2.787c-1.835,0-2.312-1.291-3.398-4.012
						c-1.088-2.719-1.972-3.807-2.72-4.487L16.543,12.738z M38.777,26.404l1.292-1.291c0.204-0.137,0.611-0.545,1.02-0.545
						c0.272,0,0.544,0.137,1.021,0.477l1.902,1.496c0.612,0.476,0.885,0.68,0.885,0.951c0,0.408-0.138,0.477-1.699,1.633
						c0,1.428,0.203,3.671,0.203,5.099c0,1.496-0.408,1.904-1.088,2.176l5.371,1.904c0.681,0.271,1.428,0.544,1.428,1.155
						c0,0.68-0.611,0.952-1.769,1.633c-0.067,0.611-0.067,0.68-0.135,1.021h14.754l2.312-2.652c0.408-0.408,0.545-0.611,0.885-0.611
						c0.204,0,0.477,0.068,0.952,0.477l3.604,2.855c0.272,0.135,0.544,0.477,0.544,0.815c0,0.612-0.544,0.748-1.088,0.748H47.956
						c7.818,8.431,16.794,10.946,23.118,11.491v0.543c-1.769,0.477-4.216,1.359-6.324,4.42c-3.264-1.428-11.422-5.371-17.609-16.184
						c0,2.38-0.067,5.78,0,11.967c0,0.612,0.136,3.468,0.136,4.08c0,2.176-2.447,2.312-3.195,2.312
						c-1.631,0-1.631-1.088-1.631-1.768c0-1.496,0.271-8.092,0.34-9.451c0.068-2.517,0.068-4.216,0.068-5.779
						c-4.964,5.711-13.191,12.646-22.438,15.502l-0.271-0.476c7.343-4.487,13.666-9.995,18.222-16.658h-5.167
						c-1.7,0-4.963,0.067-8.023,0.612l-1.292-2.721c4.624,0.408,9.315,0.478,10.403,0.478h8.5c-0.068-1.088-0.137-2.855-0.815-5.576
						c-0.748,0.068-1.156,0.068-1.769-0.271c-1.36-0.68-1.496-0.815-2.448-0.815h-6.255c0,0.815,0,3.128-2.516,3.128
						c-1.225,0-1.633-0.747-1.633-1.563c0-1.156,0.205-6.188,0.205-7.274c0-3.264-0.137-4.556-0.408-5.916l4.896,2.584h6.729V26.404
						z M31.502,28.037v5.779h7.887v-5.779H31.502z M52.24,14.302l1.088-1.088c0.271-0.272,0.68-0.68,1.02-0.68
						c0.271,0,0.681,0.271,1.156,0.68l1.769,1.36c0.476,0.408,0.748,0.748,0.748,1.02c0,0.478-0.816,1.088-1.564,1.632
						c0,0.612,0.137,2.651,0.137,3.196c0,1.291-0.34,2.719-2.107,2.719c-0.747,0-1.155-0.203-1.903-0.611
						c-0.816-0.478-1.293-0.478-1.974-0.478H39.119c-0.204,2.38-2.856,2.448-2.992,2.38c-1.564,0-1.564-1.359-1.564-1.903
						c0-1.021,0.205-5.508,0.205-6.459c0-1.496-0.068-1.974-0.272-3.876l4.759,2.106H52.24z M39.117,15.934v4.488H52.24v-4.488
						H39.117z M58.699,26.337l1.563-1.563c0.067,0,0.407-0.341,0.68-0.341c0.271,0,0.611,0.204,0.815,0.341l2.243,1.631
						c0.34,0.271,0.816,0.68,0.816,1.088c0,0.408-0.34,0.68-1.564,1.36c0,0.815,0.205,4.487,0.205,5.235
						c0,0.884-0.205,2.584-1.973,2.584c-0.681,0-0.815-0.068-2.039-0.68c-0.748-0.408-1.292-0.408-1.904-0.408h-6.256
						c-0.135,1.496-1.971,1.699-2.447,1.699c-1.631,0-1.631-0.748-1.631-1.972v-8.362c0-1.633-0.068-2.244-0.137-2.992l4.556,2.38
						H58.699z M51.287,27.969v5.983h7.889v-5.983H51.287z"/>
					<path fill="#0A3854" d="M25.382,89.781l1.7-2.039c0.544-0.612,0.748-0.816,1.088-0.816s0.68,0.136,1.225,0.68l0.68,0.68
						c2.924-4.827,5.372-9.858,6.459-15.366c0.271-1.428,0.271-2.651,0.271-3.671l6.595,2.991c0.478,0.204,0.748,0.68,0.748,1.088
						c0,0.815-0.815,1.088-2.446,1.563c-0.816,1.292-1.292,2.108-2.856,4.556H59.99l2.312-3.264
						c0.271-0.407,0.544-0.815,1.021-0.815c0.407,0,0.815,0.408,1.155,0.68l3.4,3.264c0.475,0.408,0.68,0.611,0.68,1.02
						c0,0.612-0.545,0.748-1.021,0.748H37.689c-1.225,1.7-2.991,4.012-7.275,7.547l1.224,1.021c0.544,0.544,0.612,0.815,0.612,1.088
						c0,0.68-0.748,0.68-1.02,0.68h-8.159v20.942c2.854-1.225,6.799-2.788,8.635-3.536v0.408c-0.952,0.815-2.379,2.04-4.623,3.672
						c-1.972,1.428-11.354,7.207-13.259,8.431c-0.204,1.428-0.272,1.904-1.021,1.904c-0.544,0-0.815-0.408-1.088-0.816l-4.012-5.711
						c2.584-0.204,4.624-0.34,10.743-2.584v-6.051c0-6.12,0-7.14-0.068-16.659c-2.584,0-5.712,0.068-8.703,0.681l-1.359-2.721
						c2.447,0.205,4.691,0.34,10.062,0.408c0-6.527-0.136-12.986-0.271-14.822c-0.204-1.836-0.408-2.855-0.681-4.012l6.255,2.106
						c0.408,0.138,1.292,0.408,1.292,1.226c0,0.476-0.136,0.611-1.7,1.632c-0.203,3.604-0.203,9.995-0.203,13.87h2.312V89.781z
						 M58.155,108.004l2.176-2.176c0.544-0.544,0.952-1.02,1.292-1.02c0.271,0,0.34,0.135,1.156,0.747l2.106,1.7
						c0.068,0.068,0.748,0.611,0.748,1.088s-0.205,0.68-2.04,2.312c-0.067,1.021-0.067,1.562-0.067,2.312
						c0,3.74-0.067,9.859-0.067,13.667h1.358l1.699-2.516c0.408-0.612,0.748-0.884,1.088-0.884c0.408,0,0.682,0.271,1.156,0.748
						l2.855,2.516c0.34,0.271,0.681,0.611,0.681,1.02c0,0.612-0.612,0.748-1.021,0.748H30.89c-2.651,0-5.372,0.068-8.022,0.611
						l-1.292-2.719c4.69,0.408,9.587,0.476,10.403,0.476h2.106c0-14.278,0-16.386-0.815-21.962l6.119,3.332H58.155z M55.707,87.878
						l1.7-1.632c0.681-0.612,0.681-0.748,1.021-0.748c0.341,0,0.815,0.34,1.088,0.544l2.177,1.768
						c0.135,0.068,0.748,0.544,0.748,1.021c0,0.407-0.273,0.748-0.478,0.883c-0.204,0.205-1.156,0.885-1.292,1.021
						c0,2.65-0.066,4.284,0,5.507c0.067,0.408,0.204,2.108,0.204,2.517c0,2.72-2.72,2.923-3.195,2.923
						c-1.428,0-1.495-0.747-1.563-1.631h-13.26c-0.067,2.379-2.855,2.516-3.061,2.516c-1.768,0-1.768-1.156-1.768-1.7
						c0-1.224,0.204-6.663,0.204-7.888c0-2.719-0.137-4.759-0.34-7.955l5.235,2.856h12.579V87.878z M38.573,109.636v16.998h4.011
						v-16.998H38.573z M42.856,89.51v8.906h13.189V89.51H42.856z M46.937,109.636v16.998h4.012v-16.998H46.937z M55.164,109.636
						v16.998h3.875v-16.998H55.164z"/>
					<path fill="#0A3854" d="M26.539,171.819c-0.34,2.38-1.836,12.103-1.836,13.599c0,0.748,0.34,4.012,0.34,4.623
						c0,0.953-0.068,2.584-1.7,2.584c-2.108,0-3.468-2.447-3.672-2.855c-2.244-4.215-3.604-8.703-3.604-17.135
						c0-3.467,0.341-6.119,1.089-11.082c0.544-3.332,1.088-6.73,1.632-10.062c0.204-1.224,0.408-3.061,0.408-4.556
						c0-2.379-0.34-4.147-2.379-6.595c0.407-0.136,0.68-0.272,1.291-0.272c2.381,0,6.801,3.808,6.801,6.459
						c0,0.477,0.068,0.953-0.816,3.196c-1.359,3.604-4.759,12.104-4.759,21.146c0,4.488,1.021,10.131,2.176,10.131
						c0.272,0,0.476-0.34,0.748-0.883c0.748-1.429,2.583-5.646,3.808-8.432L26.539,171.819z M44.013,180.795
						c2.583,0.748,6.053,1.02,8.771,1.02c1.359,0,2.788-0.067,4.012-0.136c0.748-0.067,4.012-0.407,4.691-0.407
						c2.721,0,4.964,1.562,4.964,3.06c0,2.312-3.739,2.38-6.188,2.38c-9.588,0-15.571-1.496-18.493-2.72
						c-3.469-1.429-5.44-5.031-5.44-8.432c0-1.495,0.34-2.176,0.68-2.855C38.301,176.986,39.049,179.299,44.013,180.795z
						 M52.647,145.643c4.146,0,10.472,0,10.472,3.535c0,0.816-0.34,2.107-2.108,2.107c-0.544,0-1.972-0.34-4.079-0.815
						c-3.061-0.748-5.03-0.952-7.004-0.952c-2.991,0-7.207,0.477-12.714,2.516C39.729,147.886,47.82,145.643,52.647,145.643z"/>
					<path fill="#0A3854" d="M25.451,240.281c5.982-0.271,14.89-1.428,22.778-4.76c2.584-1.088,13.325-5.575,13.325-16.047
						c0-7.07-6.526-12.511-14.073-12.511c-12.376,0-25.702,11.627-27.267,13.19c-1.7,1.699-1.972,2.04-3.195,2.04
						c-2.38,0-6.256-3.468-6.256-7.548c0-1.225,0.271-2.243,0.544-2.924c1.292,1.769,2.651,3.604,4.419,3.604
						c1.429,0,2.855-0.748,4.76-1.769c9.314-4.828,16.861-8.771,26.856-8.771c10.744,0,19.447,6.256,19.447,16.047
						c0,10.539-9.996,15.91-14.823,17.474c-7.479,2.448-14.891,2.991-20.126,2.991c-2.856,0-4.352-0.135-6.391-0.407L25.451,240.281
						L25.451,240.281z"/>
					<path fill="#0A3854" d="M35.173,277.636c-0.272,0.612-3.604,9.791-3.604,9.927c-0.204,0.545-0.272,1.021-0.272,1.7
						c0,0.612,0.544,3.061,0.544,3.535c0,1.769-1.088,2.38-2.176,2.38c-2.38,0-12.035-3.398-13.191-22.777
						c-0.136-2.787-0.271-7.274-0.611-10.062c-0.408-3.671-1.835-6.255-2.855-8.021c3.399,0.136,8.567,3.127,8.567,7.614
						c0,0.271,0,0.815-0.137,1.495c-0.611,3.739-1.02,5.915-1.02,9.451c0,9.791,4.352,14.075,5.982,14.075
						c0.545,0,1.089-0.612,1.36-0.886c0.068-0.066,5.849-7.479,6.8-8.771L35.173,277.636z M50.54,259.073
						c7.14,0,16.386,10.403,16.386,20.263c0,0.814,0,4.623-2.991,4.623c-2.176,0-2.312-1.428-2.72-4.963
						c-0.408-3.876-1.225-6.868-2.106-8.977c-1.156-2.65-4.488-8.022-9.929-10.742C49.588,259.143,49.858,259.073,50.54,259.073z"/>
					<path fill="#0A3854" d="M19.875,314.977c0.884,0,2.312-0.203,2.924-0.407c14.415-3.399,16.046-3.739,31.957-7.275
						c0.681-0.136,3.535-0.951,4.146-1.088c0.682-0.203,1.564-0.34,2.177-0.34c4.012,0,5.576,3.061,5.576,3.739
						c0,2.039-1.904,2.039-2.787,2.039c-0.816,0-4.284-0.066-5.032-0.066c-4.419,0-12.239,0-19.174,9.791
						c-3.332,4.759-4.488,9.723-4.488,13.327c0,4.419,2.108,10.471,11.219,13.462c2.176,0.748,3.467,1.021,6.119,1.496
						c2.312,0.476,4.691,1.562,4.691,4.012c0,2.04-2.107,2.04-2.516,2.04c-2.107,0-7.275-1.021-12.035-3.332
						c-7.411-3.672-10.812-10.335-10.812-16.455c0-7.615,4.215-16.453,14.754-24.205c-3.331,0.478-15.229,3.672-24.545,7.888
						c-2.788,1.293-2.924,1.293-3.536,1.293c-1.7,0-4.963-2.244-4.963-6.121c0-1.768,0.612-2.787,1.021-3.604
						C15.729,313.549,17.155,314.977,19.875,314.977z"/>
				</g>
			</g>
		</g>
	</g>
</g>
</svg>
