<?xml version="1.0" encoding="utf-8"?>
<!-- Generator: Adobe Illustrator 16.0.0, SVG Export Plug-In . SVG Version: 6.00 Build 0)  -->
<!DOCTYPE svg PUBLIC "-//W3C//DTD SVG 1.1//EN" "http://www.w3.org/Graphics/SVG/1.1/DTD/svg11.dtd">
<svg version="1.1" id="レイヤー_1" xmlns="http://www.w3.org/2000/svg" xmlns:xlink="http://www.w3.org/1999/xlink" x="0px"
	 y="0px" width="80px" height="275px" viewBox="0 0 80 275" enable-background="new 0 0 80 275" xml:space="preserve">
<g>
	<path fill="#0A3854" d="M23.718,18.745c0-13.333-0.335-14.338-1.206-17.353l6.834,2.01c0.603,0.201,1.005,0.268,1.005,0.804
		c0,0.603-0.067,0.603-2.278,2.479c-0.066,1.876-0.134,10.318-0.134,12.06h2.345l1.81-2.412c0.401-0.603,0.67-0.804,1.005-0.804
		c0.268,0,0.469,0,1.273,0.67l2.881,2.412c0.335,0.268,0.67,0.536,0.67,1.005c0,0.603-0.536,0.737-1.005,0.737h-8.979
		c0,1.742-0.067,4.757-0.067,5.36c0,0.938,0.067,8.375,0.067,8.643c1.742-0.67,4.757-1.943,7.705-3.417l0.269,0.469
		c-3.552,2.747-6.433,4.69-7.974,5.695c0,2.412,0.067,16.549,0.134,18.56c0,0.603,0.067,3.283,0.067,3.819
		c0,1.072-0.067,1.675-0.938,2.412c-0.268,0.201-1.206,0.938-2.68,0.938c-0.269,0-1.675,0-1.675-1.474
		c0-0.536,0.268-3.015,0.268-3.551c0.201-6.164,0.269-9.246,0.335-17.89c-3.082,1.876-6.23,3.618-9.447,5.227
		c-0.938,2.479-1.34,2.479-1.742,2.479c-0.535,0-0.938-0.67-1.139-1.072L8.24,40.588c1.675,0.067,2.813-0.134,4.824-0.804
		c2.144-0.67,6.968-2.479,10.452-3.752c0-4.355,0.066-11.323,0.134-15.678h-6.968c-0.269,0.67-1.475,4.69-3.484,9.179
		c-1.139,2.613-2.211,3.819-2.68,4.355l-0.536-0.201c1.541-3.953,4.556-16.549,4.153-27.806l6.365,2.211
		c0.47,0.134,0.871,0.335,0.871,0.871c0,0.871-1.541,1.407-2.077,1.541c-1.071,4.624-1.942,7.638-2.144,8.241H23.718z
		 M61.641,36.635l1.942-2.948c0.269-0.335,0.536-0.804,1.072-0.804c0.335,0,0.536,0.201,1.139,0.67l3.484,2.881
		c0.134,0.134,0.67,0.603,0.67,1.072c0,0.603-0.536,0.737-1.072,0.737H57.151c0,2.613,0.201,16.214,0.201,16.75
		c0,3.618-0.269,6.298-7.371,8.308c-0.736-2.613-3.082-5.226-7.504-6.834v-0.536c3.686,0.268,6.433,0.402,8.04,0.402
		c2.211,0,2.278-0.469,2.278-4.556c0-1.742-0.067-5.896-0.201-13.534H42.21c-2.613,0-5.293,0.134-7.906,0.603l-1.273-2.68
		c4.489,0.402,8.979,0.469,10.252,0.469h9.312c-0.134-7.102-0.134-7.705-0.938-10.52H40.133c-2.68,0-5.293,0.134-7.906,0.603
		l-1.34-2.613c4.556,0.335,9.112,0.402,10.318,0.402h5.226V13.184h-3.685c-2.681,0-5.293,0.067-7.906,0.603l-1.34-2.68
		c4.488,0.402,8.978,0.469,10.317,0.469h2.547c-0.135-5.829-0.135-5.896-1.14-10.05l7.37,2.211c0.604,0.201,0.871,0.335,0.871,0.804
		c0,0.804-1.809,1.742-2.479,2.077v4.958h6.432l2.345-2.948c0.671-0.871,0.871-0.871,1.072-0.871c0.335,0,0.469,0.067,1.206,0.737
		l3.484,2.948c0.335,0.268,0.67,0.603,0.67,1.005c0,0.67-0.604,0.737-1.005,0.737H50.987v11.323h10.854l2.346-3.149
		c0.469-0.67,0.736-0.871,1.071-0.871c0.269,0,0.47,0.067,1.206,0.737l3.552,3.149c0.335,0.335,0.67,0.603,0.67,1.072
		c0,0.603-0.604,0.67-1.005,0.67H52.729l4.892,1.072c0.536,0.134,1.541,0.335,1.541,1.206c0,0.67-0.67,1.139-1.943,1.742
		c-0.066,1.742-0.066,3.149-0.066,6.499H61.641z M37.318,41.459c3.283,0.536,9.112,2.412,9.112,6.566
		c0,1.608-1.005,2.814-2.546,2.814c-1.675,0-2.077-0.938-3.149-3.417c-1.474-3.484-2.881-4.824-3.685-5.494L37.318,41.459z"/>
	<path fill="#0A3854" d="M30.082,84.404l2.212-2.546c0.67-0.737,0.736-0.804,1.005-0.804c0.401,0,1.072,0.536,1.272,0.67
		l3.082,2.546c0.269,0.268,0.67,0.603,0.67,1.005c0,0.67-0.603,0.737-1.071,0.737H18.559c-2.681,0-5.36,0.134-7.906,0.603
		l-1.34-2.68c4.354,0.335,8.441,0.469,10.317,0.469H30.082z M27.47,101.155l1.474-2.278c0.269-0.335,0.604-0.871,1.072-0.871
		c0.402,0,0.737,0.335,1.206,0.737l2.747,2.278c0.402,0.268,0.67,0.603,0.67,1.005c0,0.536-0.402,0.737-1.005,0.737H19.229
		c-3.351,0-4.69,0.201-5.628,0.402l-0.871-2.345c3.35,0.268,6.365,0.335,7.303,0.335H27.47z M28.877,110.803l1.607-1.876
		c0.604-0.67,0.67-0.737,0.938-0.737c0.268,0,0.736,0.268,0.938,0.402l2.814,2.077c0.201,0.134,0.737,0.603,0.737,1.005
		c0,0.603-1.006,1.34-1.877,2.01c-0.066,1.34,0,7.303,0,8.04c0,0.603,0.201,3.082,0.201,3.618c0,2.479-2.144,2.546-2.412,2.546
		c-0.67,0-0.804-0.067-2.077-0.737c-0.268-0.134-0.736-0.335-1.942-0.335h-9.381c-0.066,2.278-0.066,4.288-3.015,4.288
		c-2.077,0-2.077-1.273-2.077-1.742c0-0.536,0.269-2.747,0.269-3.149c0.134-2.01,0.268-4.891,0.268-9.112
		c0-5.829-0.268-7.772-0.603-9.447l5.829,3.149H28.877z M27.604,92.914l1.474-2.278c0.269-0.335,0.604-0.871,1.072-0.871
		c0.402,0,0.871,0.402,1.206,0.67l2.948,2.412c0.335,0.268,0.67,0.536,0.67,1.005c0,0.536-0.469,0.67-1.005,0.67h-14.07
		c-3.351,0-4.69,0.268-5.628,0.469l-0.871-2.345c3.551,0.268,6.901,0.268,7.303,0.268H27.604z M16.079,72.411
		c6.901,0.804,10.386,2.077,11.726,2.68c2.813,1.273,3.417,2.345,3.417,3.752c0,1.608-1.14,2.345-2.412,2.345
		c-1.474,0-1.943-0.402-4.892-2.881c-3.148-2.747-6.834-4.69-8.174-5.427L16.079,72.411z M18.424,112.411v12.797h10.988v-12.797
		H18.424z M45.627,98.743c0,3.149-0.134,17.219-0.134,20.033c0,5.628,0,5.762,1.474,5.963c0.67,0.134,8.979,0.134,10.185,0.134
		c5.159,0,5.963-0.469,6.7-2.077c1.139-2.546,2.211-6.767,3.082-10.519h0.536c0.134,2.345,0.736,9.313,1.942,10.385
		c1.273,1.072,1.407,1.206,1.407,1.809c0,1.541-1.474,2.814-2.278,3.283c-1.541,0.938-3.417,1.608-8.844,1.608
		c-2.345,0-13.267,0-14.874-0.268c-3.082-0.536-3.953-2.144-3.953-5.561c0-2.077,0.066-11.39,0.066-13.333
		c0-12.127,0-13.467-0.401-16.482l5.762,3.417H59.63V79.178H48.44c-0.87,0-4.623,0-7.905,0.603l-1.341-2.68
		c4.557,0.402,9.046,0.469,10.318,0.469h9.381l1.876-2.144c0.401-0.469,0.736-0.603,1.139-0.603s0.871,0.335,1.005,0.469
		l3.016,2.211c0.335,0.268,0.736,0.603,0.736,1.072c0,0.737-0.67,1.072-2.211,1.943c-0.067,3.685-0.067,5.159,0,7.035
		c0.067,1.541,0.402,8.308,0.402,9.648c0,3.149-2.681,3.149-3.016,3.149c-0.268,0-2.211,0-2.211-1.608H45.627z"/>
	<path fill="#0A3854" d="M17.955,180.819c-2.68,0-5.293,0.134-7.906,0.603l-1.34-2.68c4.557,0.401,9.045,0.469,10.318,0.469h18.626
		v-6.7H24.454c-2.68,0-5.293,0.134-7.906,0.67l-1.34-2.68c4.69,0.401,9.515,0.401,10.318,0.401h12.127v-6.298H24.521
		c-0.402,0.804-1.675,1.608-3.016,1.608c-0.736,0-1.675-0.402-1.675-1.541c0-0.47,0.201-2.412,0.269-2.747
		c0.066-1.273,0.066-2.145,0.066-2.681c0-4.354-0.201-5.293-0.469-6.633l5.36,2.479h12.596v-5.093h-17.42
		c-2.613,0-5.293,0.067-7.906,0.603l-1.273-2.68c4.355,0.335,8.442,0.469,10.252,0.469h16.348c-0.066-2.345-0.603-5.293-1.272-7.705
		l7.102,2.145c0.402,0.134,1.072,0.401,1.072,1.005c0,0.737-1.139,1.273-2.345,1.809c-0.067,0.67-0.067,0.871-0.067,2.747h16.08
		l2.747-3.216c0.536-0.67,0.671-0.804,1.006-0.804s0.469,0.066,1.272,0.67l4.288,3.216c0.134,0.067,0.67,0.469,0.67,1.005
		c0,0.604-0.603,0.737-1.005,0.737H42.076c0,0.402,0,3.417-0.067,5.093h12.663l1.475-1.407c0.469-0.47,0.67-0.67,0.938-0.67
		c0.335,0,0.804,0.335,0.938,0.469l2.813,2.278c0.269,0.2,0.604,0.536,0.604,0.938c0,0.737-1.407,1.407-1.81,1.608
		c-0.066,0.871,0.134,5.092,0.134,5.829c0,1.072-0.535,2.077-2.68,2.077c-1.943,0-1.943-0.67-2.01-1.608H41.941
		c0,1.742,0,2.145,0.067,6.298h12.73l1.942-2.01c0.671-0.737,0.871-0.737,1.006-0.737c0.268,0,0.469,0.067,1.139,0.67l2.68,2.278
		c0.47,0.402,0.604,0.805,0.604,0.938c0,0.335-0.201,0.67-1.943,1.876v5.293h2.747l2.68-3.283c0.47-0.603,0.671-0.871,1.006-0.871
		c0.469,0,1.071,0.604,1.206,0.737l3.35,3.283c0.335,0.401,0.604,0.67,0.604,1.005c0,0.67-0.604,0.737-1.006,0.737H60.166
		c0,1.071,0.402,5.762,0.402,6.699c0,0.938,0,2.547-2.479,2.547c-0.938,0-1.34-0.201-1.942-0.536
		c-1.006-0.469-1.407-0.536-2.145-0.536H42.143c0.067,4.422,0.067,4.891,0.067,6.164c0,3.149-0.269,7.035-7.639,9.246
		c-1.272-4.087-4.087-5.762-8.509-7.438l0.134-0.535c5.562,0.603,7.571,0.603,8.107,0.603c2.613,0,2.813-0.603,3.015-1.876
		c0.067-0.536,0.135-3.417,0.201-6.164H25.124c-1.607,0-4.823,0-7.839,0.603l-1.34-2.68c4.355,0.335,8.442,0.469,10.318,0.469H37.52
		c0.067-3.35,0.067-3.685,0.134-6.565H17.955z M24.723,162.996h12.931v-6.298H24.723V162.996z M42.009,162.996h13.065v-6.298H42.009
		V162.996z M42.009,172.511v6.7H55.61v-6.7H42.009z M42.076,180.819c0,2.813,0,3.216,0.066,6.565H55.61v-6.565H42.076z"/>
	<path fill="#0A3854" d="M20.702,225.574h-1.34c-1.675,0-4.891,0.066-7.839,0.603l-1.34-2.613c4.354,0.336,8.441,0.402,10.251,0.402
		h7.169l1.876-2.479c0.067-0.067,0.603-0.805,1.005-0.805s0.604,0.201,1.273,0.737l3.082,2.412c0.401,0.335,0.67,0.67,0.67,1.072
		c0,0.603-0.536,0.67-1.005,0.67h-9.381v27.068c3.417-1.072,6.901-2.145,10.117-3.686l0.201,0.402
		c-4.422,3.752-13.735,8.576-19.899,11.592c-0.536,1.876-0.536,2.076-1.139,2.076c-0.469,0-0.871-0.469-1.206-0.87l-4.355-6.165
		c2.211,0.067,3.819,0.135,11.859-2.076V225.574z M48.307,263.765c0.134,0.134,0.805,0.67,0.805,1.206
		c0,0.604-0.47,0.67-3.283,0.804c-7.772,4.489-13.869,6.835-23.585,7.84l-0.134-0.47c6.097-2.076,14.539-6.7,19.229-10.652
		c1.139-1.006,1.541-2.077,1.876-2.747L48.307,263.765z M50.585,218.605c-0.871,1.81-1.943,3.753-5.762,8.576h13.802l2.01-2.144
		c0.402-0.536,0.604-0.737,1.072-0.737c0.335,0,0.804,0.335,0.804,0.402l3.552,2.613c0.201,0.2,0.536,0.469,0.536,0.871
		c0,0.469-0.269,0.603-2.479,2.01c-0.067,1.34-0.067,1.541-0.067,2.613c0,1.942,0.067,6.968,0.335,18.023
		c0,1.139,0.336,6.097,0.336,7.102c0,2.881-2.479,3.283-3.351,3.283c-2.077,0-2.077-1.943-2.077-2.546H41.339
		c0.066,1.942-2.145,2.881-3.082,2.881c-1.943,0-1.943-1.407-1.943-1.742c0-0.469,0.201-2.881,0.201-3.417
		c0.134-4.891,0.268-19.162,0.268-20.302c0-4.288-0.066-8.174-0.67-11.858l5.494,2.947h2.211c0.402-2.747,0.805-7.771,0.805-8.576
		h-2.948c-0.469,0-4.757,0-7.906,0.604l-1.273-2.613c5.227,0.402,10.185,0.402,10.252,0.402H60.97l2.346-2.948
		c0.603-0.67,0.67-0.871,1.071-0.871c0.402,0,1.006,0.536,1.206,0.737l3.418,2.948c0.335,0.268,0.736,0.603,0.736,1.005
		c0,0.736-0.736,0.736-1.071,0.736H50.585z M41.339,228.79v8.442h17.956v-8.442H41.339z M41.339,238.84v8.376h17.956v-8.376H41.339z
		 M41.339,248.823v8.241h17.956v-8.241H41.339z M53.332,261.821c8.911,0.336,13.602,4.088,15.008,5.36
		c0.805,0.737,1.676,2.145,1.676,3.618c0,1.675-1.34,2.747-2.613,2.747c-1.206,0-1.541-0.402-3.551-2.613
		c-3.283-3.618-6.098-6.767-10.587-8.643L53.332,261.821z"/>
</g>
</svg>
