<?xml version="1.0" encoding="utf-8"?>
<!-- Generator: Adobe Illustrator 16.0.0, SVG Export Plug-In . SVG Version: 6.00 Build 0)  -->
<!DOCTYPE svg PUBLIC "-//W3C//DTD SVG 1.1//EN" "http://www.w3.org/Graphics/SVG/1.1/DTD/svg11.dtd">
<svg version="1.1" id="レイヤー_1" xmlns="http://www.w3.org/2000/svg" xmlns:xlink="http://www.w3.org/1999/xlink" x="0px"
	 y="0px" width="80px" height="327px" viewBox="0 0 80 327" enable-background="new 0 0 80 327" xml:space="preserve">
<g>
	<g>
		<g>
			<g>
				<g>
					<path fill="#0A3854" d="M7.533,60.174c1.632-1.768,8.975-10.197,9.928-16.453l5.371,3.467c0.408,0.271,0.748,0.613,0.748,1.088
						c0,0.953-0.816,1.088-2.721,1.428c-3.127,4.012-8.432,8.295-13.123,10.744L7.533,60.174z M26.23,3.264l1.633-1.836
						c0.408-0.475,0.68-0.611,0.951-0.611c0.34,0,0.748,0.205,1.021,0.408l3.06,2.244c0.408,0.34,0.478,0.611,0.478,0.883
						c0,0.885-1.36,1.836-1.634,2.041c-0.066,5.031,0,24.068,0.613,33.588c0,0.408,0.066,1.02,0.066,1.428
						c0,2.244-2.583,2.787-3.331,2.787c-1.7,0-1.769-0.814-1.835-2.176h-9.588c-0.137,2.381-2.244,2.924-3.195,2.924
						c-1.359,0-1.768-0.543-1.768-1.768c0-4.012,0.271-21.961,0.271-25.633c0-10.471-0.138-12.783-0.681-16.658l5.101,2.379H26.23z
						 M17.664,4.896v10.402h9.588V4.896H17.664z M17.664,16.932v10.539h9.588V16.932H17.664z M17.664,29.102v11.287h9.588V29.102
						H17.664z M23.92,44.061c1.903,0.408,7.818,2.855,7.818,7.275c0,1.836-1.088,2.719-2.243,2.719c-1.903,0-2.38-1.562-2.856-3.467
						c-0.406-1.428-1.359-4.42-2.854-6.051L23.92,44.061z M28.747,58.611c6.46-9.451,8.703-18.154,8.703-36.309
						c0-1.633,0-15.367-1.429-21.01l6.053,3.059h16.93l2.652-3.195c0.611-0.68,0.814-0.883,1.154-0.883
						c0.408,0,1.021,0.543,1.293,0.748l3.467,3.127c0.205,0.137,0.748,0.611,0.748,1.088c0,0.611-0.543,0.748-1.021,0.748H41.734
						c0.066,4.76,0.066,6.256,0.066,12.51h15.706l2.106-1.902c0.546-0.477,0.682-0.613,0.953-0.613s0.477,0.137,0.951,0.477
						l3.604,2.787c0.272,0.205,0.478,0.477,0.478,0.885c0,0.748-0.271,1.156-2.992,2.855c-1.631,8.566-3.875,15.027-7.752,21.146
						c7.141,8.023,15.164,9.383,17.61,9.791l-0.067,0.611c-1.563,0.34-4.012,0.951-7.207,4.828
						c-3.943-2.244-8.635-5.508-12.918-11.559c-4.148,5.303-10.269,10.537-19.312,12.986l-0.271-0.477
						c5.847-2.447,12.44-8.975,17.338-16.318c-3.469-6.527-5.031-13.803-5.984-21.078l0.613-0.135
						c2.719,9.791,5.574,14.686,7.41,17.678c3.875-7.344,4.828-14.211,5.711-20.33H41.802c0,20.465-2.788,29.984-12.715,38.824
						L28.747,58.611z"/>
					<path fill="#0A3854" d="M34.867,103.318c1.02,0.271,1.359,0.611,1.359,1.088c0,0.883-0.816,1.223-2.107,1.902
						c-0.068,8.771-2.584,14.416-5.779,18.088c-2.584,2.99-9.111,8.158-20.604,8.566v-0.408
						c13.531-4.42,21.146-11.559,21.146-24.682c0-2.992-0.476-5.031-0.816-6.527L34.867,103.318z M59.208,97.199l2.108-2.176
						c0.543-0.613,0.68-0.682,1.088-0.682c0.34,0,0.543,0.137,1.154,0.682l4.76,3.943c0.137,0.066,0.748,0.68,0.748,1.223
						c0,1.633-3.604,1.496-5.234,1.361c-1.156,0.814-4.828,3.467-7.275,4.826l-0.611-0.475c1.699-2.449,2.447-4.148,3.671-7.072
						H18.141c0.135,4.148-1.768,9.451-5.438,9.451c-1.836,0-2.854-1.564-2.854-2.992c0-1.699,0.95-2.584,2.446-3.875
						c3.875-3.4,4.353-6.596,4.556-7.887l0.545-0.068c0.34,1.836,0.476,2.652,0.61,3.74L59.208,97.199L59.208,97.199z
						 M56.828,79.451l2.652-3.264c0.61-0.814,0.748-0.814,1.088-0.814s0.611,0.203,1.223,0.68l4.148,3.264
						c0.408,0.34,0.68,0.611,0.68,1.02c0,0.68-0.544,0.748-1.02,0.748H40.918c0,0.611,0.068,6.324,0.068,7.344H52.34l2.176-2.992
						c0.612-0.816,0.885-0.816,1.021-0.816c0.34,0,0.68,0.205,1.291,0.68l3.943,2.992c0.137,0.137,0.68,0.545,0.68,1.02
						c0,0.68-0.611,0.748-1.02,0.748H25.688c-1.699,0-4.963,0.068-7.955,0.613l-1.358-2.721c4.419,0.34,8.498,0.477,10.401,0.477
						h9.384v-7.344h-15.57c-2.651,0-5.371,0.137-7.955,0.611l-1.358-2.719c4.418,0.34,8.565,0.475,10.471,0.475H36.16
						c0-5.982-0.544-7.547-1.02-9.314l7.41,2.244c0.407,0.137,0.952,0.271,0.952,0.951c0,1.088-1.7,1.836-2.517,2.244v3.875h15.842
						V79.451z M49.077,102.773c0.952,0.205,1.495,0.545,1.495,1.088c0,0.885-0.883,1.293-2.584,2.107
						c-0.135,5.1-0.135,10.539-0.135,15.707c0,5.1,0,5.371,3.942,5.371c6.527,0,7.751-0.068,8.839-0.543
						c1.496-0.68,2.04-2.244,2.381-3.469c0.543-1.971,0.815-3.059,1.836-7.75l0.61,0.066c0.681,5.984,1.021,9.111,2.041,9.996
						c0.271,0.203,1.358,1.02,1.495,1.225c0.204,0.271,0.271,0.543,0.271,0.814c0,0.748-0.815,3.264-4.557,3.943
						c-2.516,0.477-8.227,0.477-10.945,0.477c-9.791,0-10.947-0.68-10.947-8.363c0-2.787,0.068-15.299,0.068-17.883
						c0-2.719-0.341-3.67-0.613-4.486L49.077,102.773z"/>
					<path fill="#0A3854" d="M37.383,152.852c0-6.459-0.681-8.227-1.496-10.268l7.004,1.361c1.088,0.203,1.562,0.543,1.562,1.02
						c0,0.408,0,0.883-2.244,2.311c-0.066,0.885-0.066,4.828-0.135,5.576h16.998l2.924-3.264c0.611-0.68,0.68-0.885,1.02-0.885
						c0.408,0,1.156,0.613,1.293,0.748l3.942,3.264c0.341,0.34,0.681,0.613,0.681,1.088c0,0.613-0.613,0.682-1.021,0.682H20.996
						c0,2.787,0.068,14.889,0.068,17.338c-0.068,4.825-0.682,13.325-4.217,21.688c-2.65,6.322-5.982,9.246-7.41,10.539l-0.408-0.408
						c5.982-11.424,7.344-19.922,7.344-35.697c0-12.509-0.816-15.979-1.361-18.425l6.527,3.332H37.383L37.383,152.852z
						 M56.08,166.723l2.855-3.264c0.68-0.748,0.748-0.816,1.088-0.816c0.408,0,0.748,0.271,1.293,0.748l3.738,3.265
						c0.272,0.202,0.612,0.543,0.612,1.02c0,0.611-0.545,0.681-1.021,0.681H43.434v12.92h12.238l2.041-2.449
						c0.68-0.748,0.747-0.814,1.02-0.814c0.341,0,0.543,0.135,1.225,0.68l2.788,2.039c0.407,0.271,0.95,0.681,0.95,1.088
						c0,0.478-0.271,0.681-2.379,2.244c0,1.429,0.136,7.275,0.271,10.742c0,1.021,0.271,5.236,0.271,6.119
						c0,1.293-0.068,2.312-1.156,3.197c-0.475,0.408-1.088,0.748-2.039,0.748c-0.68,0-1.632-0.205-1.836-1.156
						c0,0-0.068-1.836-0.068-1.904H31.943c0,1.904-0.068,2.107-0.478,2.652c-0.68,0.748-1.836,1.088-2.786,1.088
						c-0.682,0-1.837-0.068-1.837-1.768c0-0.477,0.136-2.516,0.203-2.924c0.138-2.449,0.205-4.828,0.205-12.58
						c0-5.303-0.272-7.342-0.612-10.334l5.916,3.332h6.322c-0.066-2.449-0.066-13.328-0.204-15.504
						c-0.136-3.127-0.271-6.868-1.224-9.109l6.73,1.494c0.611,0.137,1.291,0.34,1.291,1.021c0,0.611-0.883,1.223-2.039,1.971v5.577
						H56.08V166.723z M32.012,182.904v17.271h24.682v-17.271H32.012z"/>
					<path fill="#0A3854" d="M57.168,234.93l3.604-4.488c0.612-0.815,0.816-0.815,1.088-0.815c0.205,0,0.478,0.138,1.156,0.748
						l4.896,4.42c0.406,0.408,0.681,0.61,0.681,1.021c0,0.68-0.612,0.748-1.021,0.748H18.616c-2.651,0-5.372,0.137-8.023,0.61
						l-1.292-2.719c4.557,0.407,9.111,0.478,10.403,0.478h37.464V234.93z"/>
					<path fill="#0A3854" d="M45.404,312.512v3.062c0,4.215,0.137,4.215,1.089,4.622c0.884,0.408,3.672,0.478,4.827,0.478
						c8.908,0,9.314-0.137,10.402-0.342c1.293-0.203,2.381-0.681,3.332-2.854c0.612-1.359,1.155-3.127,2.107-7.41l0.408-0.068
						c0.271,1.631,1.154,6.799,1.902,7.684c0.137,0.203,1.156,1.021,1.36,1.223c0.204,0.273,0.272,0.613,0.272,0.886
						c0,0.748-0.272,3.062-4.148,4.353c-1.973,0.68-5.234,0.68-8.635,0.68c-2.787,0-12.578,0.068-14.279-0.203
						c-2.924-0.408-3.127-2.721-3.195-3.672c-0.068-0.885-0.068-5.031-0.068-8.432H33.37l2.651,1.698
						c0.203,0.205,0.951,0.681,0.951,1.226c0,0.951-0.815,1.02-2.447,1.088c-8.5,7.547-17.406,10.334-26.043,10.199v-0.408
						c10.473-2.176,20.398-10.336,22.166-13.803H24.26c-0.203,1.495-1.973,2.379-3.332,2.379c-0.477,0-1.768,0-1.768-1.902
						c0-0.205,0-0.748,0.068-1.633c0.34-4.42,0.408-9.246,0.408-11.082c0-6.256-0.273-7.752-0.546-9.18l5.644,1.768h27.539
						l1.971-2.107c0.205-0.203,0.477-0.408,0.816-0.408c0.407,0,1.088,0.478,1.224,0.545l2.788,2.176
						c0.271,0.136,0.611,0.476,0.611,1.089c0,0.68-0.203,0.883-2.244,2.446c0,3.604,0.137,8.433,0.272,11.627
						c0,0.611,0.203,3.127,0.203,3.604c0,2.177-2.176,2.787-3.194,2.787c-1.226,0-1.904-0.543-1.837-2.106h-7.479V312.512z
						 M33.711,268.453l1.359-1.836c0.34-0.477,0.68-0.885,1.088-0.885s1.156,0.748,1.292,0.885l1.903,1.768
						c0.34,0.271,0.611,0.611,0.611,1.02c0,0.611-0.544,0.681-1.021,0.681H27.727v4.08h4.08l1.699-1.293
						c0.477-0.34,0.885-0.408,1.021-0.408c0.341,0,0.681,0.272,0.884,0.408l2.446,2.041c0.138,0.067,0.342,0.34,0.342,0.61
						c0,0.34-1.088,1.359-1.562,1.904c-0.068,0.748,0.135,4.555,0.135,4.691c0,1.359-2.312,1.836-3.127,1.836
						c-1.359,0-1.564-0.748-1.429-2.107h-4.487v4.623h6.188l1.768-2.244c0.613-0.815,0.816-0.885,1.021-0.885
						c0.477,0,0.952,0.545,1.292,0.816l2.176,2.107c0.544,0.545,0.681,0.885,0.681,1.088c0,0.612-0.543,0.748-1.088,0.748h-22.51
						c-0.068,2.041-2.447,2.381-2.924,2.381c-1.768,0-1.768-1.293-1.768-1.836c0-0.545,0.203-2.924,0.203-3.4
						c0.067-1.768,0.137-4.146,0.137-7.547c0-7.955-0.203-9.043-0.748-11.287l5.439,2.041H33.711L33.711,268.453z M17.256,270.084
						v4.08h6.053v-4.08H17.256z M17.256,275.795v4.42h15.027v-4.42H17.256z M17.256,281.848v4.623h6.053v-4.623H17.256z
						 M24.328,294.494v4.146h28.557v-4.146H24.328z M24.328,300.273v4.352h28.557v-4.352H24.328z M52.885,310.881v-4.625H24.328
						v4.625H52.885z M61.384,274.572l2.108-2.652c0.611-0.748,0.748-0.885,1.088-0.885c0.406,0,0.814,0.408,1.223,0.816l2.652,2.651
						c0.408,0.408,0.611,0.681,0.611,1.021c0,0.68-0.748,0.68-1.021,0.68H46.493c-3.06,3.061-5.915,4.896-7.819,6.051l-0.203-0.34
						c3.604-4.012,7.139-10.879,8.295-13.529c0.951-2.041,0.951-3.129,0.951-4.148l6.119,2.925c0.408,0.205,0.613,0.407,0.613,0.885
						c0,0.476-0.342,0.681-0.613,0.884c-0.271,0.137-1.631,0.477-1.902,0.545c-1.429,2.106-2.517,3.467-3.943,5.1h13.394V274.572z
						 M58.596,284.09l1.973-2.176c0.681-0.748,0.748-0.814,1.021-0.814c0.408,0,1.088,0.543,1.291,0.68l2.652,2.177
						c0.34,0.271,0.68,0.61,0.68,1.021c0,0.68-0.543,0.748-1.021,0.748H51.729c-1.155,0-3.467,0.067-5.778,0.477l-1.291-2.449
						c3.671,0.273,7.614,0.34,8.157,0.34h5.779V284.09z"/>
				</g>
			</g>
		</g>
	</g>
</g>
</svg>
