<?xml version="1.0" encoding="utf-8"?>
<!-- Generator: Adobe Illustrator 16.0.0, SVG Export Plug-In . SVG Version: 6.00 Build 0)  -->
<!DOCTYPE svg PUBLIC "-//W3C//DTD SVG 1.1//EN" "http://www.w3.org/Graphics/SVG/1.1/DTD/svg11.dtd">
<svg version="1.1" id="レイヤー_1" xmlns="http://www.w3.org/2000/svg" xmlns:xlink="http://www.w3.org/1999/xlink" x="0px"
	 y="0px" width="80px" height="379px" viewBox="0 0 80 379" enable-background="new 0 0 80 379" xml:space="preserve">
<g>
	<g>
		<g>
			<g>
				<g>
					<path fill="#0A3854" d="M42.924,51.84c3.264-0.34,7.004-0.816,10.199-2.584c2.924-1.631,7.479-5.643,7.479-11.082
						c0-4.76-2.787-6.393-4.826-7.275c-1.77-0.748-3.877-1.293-6.459-1.293c-6.053,0-11.9,2.107-16.727,5.645
						c0.475,8.771,0.543,9.791,0.543,10.947c0,2.311,0,9.518-7.207,9.518c-2.447,0-3.943-1.156-5.848-2.516
						c-1.631-1.223-3.398-2.516-3.398-4.826c0-0.545,0.135-3.332,3.398-6.936c3.127-3.537,6.324-5.645,8.975-7.412
						c-0.066-1.428-0.135-3.74-0.135-6.322c0-1.088,0-1.633,0.135-6.869c-2.447,0.816-4.078,1.293-6.73,1.293
						c-2.992,0-5.982-1.564-6.596-5.645c1.836,1.293,2.789,2.041,6.119,2.041c1.293,0,3.469-0.271,7.344-1.633
						c0-2.65,0.205-9.314-0.137-11.49c-0.271-2.107-1.699-2.787-4.42-4.08c1.564-1.156,3.469-1.156,3.877-1.156
						c2.176,0,6.799,1.701,6.799,3.945c0,0.475-0.137,0.951-1.088,3.738c-0.68,2.107-1.088,5.031-1.291,7.547
						c2.311-0.951,2.787-1.154,4.691-2.242c1.631-0.885,2.107-1.156,2.787-1.156c1.156,0,3.195,1.02,3.195,2.107
						c0,0.885-0.611,1.428-1.291,1.836c-1.293,0.68-5.031,2.039-9.588,3.672c-0.203,4.963-0.342,7.75-0.271,12.646
						c6.459-3.672,12.646-5.643,19.174-5.643c9.18,0,14.414,4.895,14.414,11.83c0,7.004-5.643,14.482-17.949,14.482
						c-2.447,0-3.4-0.271-5.168-0.748V51.84L42.924,51.84z M23.818,43c-0.68,0.816-3.129,3.672-3.129,5.779
						c0,2.176,2.584,3.604,4.965,3.604c3.264,0,3.604-2.582,3.604-4.352V37.697C27.422,39.262,25.857,40.621,23.818,43z
						 M52.852,4.924c7.07,0,14.006,4.285,14.006,9.451c0,1.361-0.748,2.992-2.516,2.992c-1.633,0-2.176-0.885-3.943-3.875
						c-2.992-4.896-7.275-7.072-10.268-8.363C50.879,4.992,51.627,4.924,52.852,4.924z"/>
					<path fill="#0A3854" d="M30.346,68.75l1.359-1.564c0.34-0.34,0.611-0.68,1.088-0.68c0.271,0,0.68,0.271,0.885,0.408
						l3.264,2.855c0.271,0.271,0.475,0.543,0.475,0.951c0,0.545-0.475,0.951-0.748,1.156c-0.812,0.543-0.883,0.611-1.223,0.951
						c-0.068,1.496-0.137,3.332-0.137,5.984c0,1.699,0.34,10.742,0.34,10.742c0,0.545,0,1.428-0.611,2.041
						c-0.611,0.611-1.768,1.088-2.854,1.088c-0.887,0-1.496-0.545-1.496-1.496c0-0.068,0.066-1.293,0.066-1.564H18.516
						c0.135,9.246,0.203,24.07,0.203,33.316v0.408c0,0.951-0.068,1.428-0.408,1.973c-0.408,0.68-1.699,1.494-3.127,1.494
						c-1.836,0-1.836-1.291-1.836-1.971c0-0.205,0-0.34,0.066-1.496c0.545-8.092,0.613-10.879,0.613-34.744V84.93
						c0-2.787,0-12.646-0.205-14.891c-0.203-2.039-0.475-2.992-0.814-4.215l6.459,2.924h10.879V68.75z M18.516,70.381v7.684h12.238
						v-7.684H18.516z M18.516,79.695v8.295h12.238v-8.295H18.516z M45.371,97.85l1.428-1.496c0.613-0.611,0.816-0.883,1.156-0.883
						c0.271,0,0.408,0.135,0.953,0.543l2.922,2.041c0.205,0.203,0.613,0.475,0.613,0.883c0,0.477-0.205,0.68-1.836,1.973
						c0,5.031,0,5.574,0.066,8.566c0,0.205,0.068,2.312,0.068,2.381c0,1.631-1.088,2.65-2.516,2.65
						c-0.748,0-1.156-0.135-1.904-0.543c-0.477-0.34-0.885-0.545-1.973-0.545H32.52c0.068,0.477,0.137,1.156-0.34,1.973
						c-0.545,1.02-1.973,1.291-2.721,1.291s-1.631-0.135-1.631-1.971c0-1.633,0.34-8.84,0.34-10.539c0-4.76-0.205-7.072-0.611-8.975
						l5.711,2.65L45.371,97.85L45.371,97.85z M32.521,99.482v12.307h13.463V99.482H32.521z M60.875,68.75l1.699-1.701
						c0.543-0.543,0.68-0.68,1.088-0.68c0.34,0,0.748,0.271,1.02,0.545l3.264,2.787c0.205,0.203,0.477,0.543,0.477,0.951
						c0,0.34-0.205,0.613-0.477,0.885s-1.562,1.291-1.768,1.496c-0.068,8.703-0.137,17.475-0.068,26.178
						c0,2.99,0.205,18.561,0.205,18.834c0,4.215-0.068,6.934-7.615,8.838c-0.545-2.244-0.885-3.875-6.256-6.799l0.068-0.477
						c2.99,0.273,5.1,0.273,5.508,0.273c3.535,0,3.67-0.408,3.67-2.652V89.623H48.84c0.203,2.244-2.176,2.787-3.129,2.787
						c-1.291,0-1.699-0.611-1.699-1.836c0-0.814,0.203-4.418,0.203-5.166c0.068-2.652,0.137-6.053,0.137-9.996
						c0-3.127,0-6.799-0.543-9.383l5.643,2.721H60.875z M48.84,70.381v7.684h12.85v-7.684H48.84z M48.84,79.695v8.295h12.85v-8.295
						H48.84z"/>
					<path fill="#0A3854" d="M35.24,162.182c-0.271,0.611-3.604,9.791-3.604,9.928c-0.203,0.543-0.271,1.02-0.271,1.699
						c0,0.611,0.543,3.061,0.543,3.535c0,1.768-1.088,2.381-2.176,2.381c-2.379,0-12.033-3.4-13.189-22.779
						c-0.137-2.787-0.271-7.273-0.611-10.062c-0.408-3.672-1.836-6.256-2.855-8.023c3.398,0.137,8.566,3.129,8.566,7.615
						c0,0.273,0,0.816-0.137,1.496c-0.611,3.74-1.02,5.916-1.02,9.451c0,9.791,4.352,14.074,5.982,14.074
						c0.545,0,1.088-0.611,1.359-0.883c0.068-0.068,5.848-7.48,6.799-8.771L35.24,162.182z M50.607,143.619
						c7.139,0,16.387,10.404,16.387,20.262c0,0.816,0,4.625-2.992,4.625c-2.176,0-2.312-1.428-2.721-4.965
						c-0.406-3.875-1.223-6.867-2.107-8.975c-1.154-2.652-4.486-8.023-9.926-10.742C49.654,143.688,49.928,143.619,50.607,143.619z"
						/>
					<path fill="#0A3854" d="M72.297,215.023c-2.924,0.951-4.691,2.379-6.391,5.233c-10.064-4.76-19.855-12.646-25.43-24.885
						l-0.139,0.067c-6.525,9.654-18.152,23.049-32.363,28.558l-0.271-0.478c6.799-4.485,12.578-10.334,17.883-16.521
						c4.352-5.031,9.994-12.238,10.742-17.136l5.848,2.585c0.408,0.202,0.951,0.543,0.951,1.155c0,0.681-0.68,1.156-1.631,1.496
						c6.188,9.246,16.727,16.728,30.801,19.31V215.023z M51.49,227.805l1.77-2.176c0.475-0.475,0.746-0.68,1.02-0.68
						c0.34,0,0.543,0.137,1.156,0.613l2.855,2.311c0.271,0.205,0.883,0.68,0.883,1.02c0,0.683-1.02,1.361-2.311,2.176
						c-0.068,4.558-0.068,5.033-0.068,5.509c0,1.36,0.203,7.547,0.203,8.84c0,1.088,0,2.651-2.719,2.651
						c-0.885,0-1.021-0.067-2.652-0.885c-0.543-0.203-0.816-0.203-1.291-0.203H27.559c0,0.543,0.066,1.562-0.068,2.107
						c-0.271,1.496-2.789,1.971-3.877,1.971c-0.203,0-1.562-0.065-1.562-1.496c0-0.543,0.342-4.485,0.408-5.371
						c0.137-3.875,0.203-9.586,0.203-11.422c0-3.942-0.137-5.711-0.408-8.16l6.053,3.195H51.49L51.49,227.805z M46.119,217.268
						l2.244-2.789c0.545-0.61,0.68-0.815,1.088-0.815c0.271,0,0.545,0.137,1.225,0.683l3.604,2.786
						c0.34,0.271,0.68,0.611,0.68,1.021c0,0.68-0.609,0.748-1.088,0.748H33.473c-2.65,0-5.371,0.137-7.955,0.611l-1.359-2.72
						c4.42,0.34,8.566,0.478,10.471,0.478h11.49V217.268z M27.49,229.438v15.91h24.477v-15.91H27.49z"/>
					<path fill="#0A3854" d="M39.389,311.6c3.467-0.815,10.471-2.789,15.502-6.664c3.061-2.379,7.479-6.799,7.479-13.6
						c0-7.887-7.139-10.471-10.605-10.471c-5.1,0-12.512,2.789-20.67,9.859c0.066,5.711,0.135,12.034,0.271,14.688
						c0.068,0.883,0.34,4.826,0.34,5.643c0,1.021-0.203,5.439-2.924,5.439c-1.156,0-1.768-0.816-1.768-2.992
						c0-1.223,0.543-6.867,0.609-8.023c0.273-4.078,0.34-8.498,0.479-11.83c-2.992,3.127-5.984,7.345-9.111,12.715
						c-1.768,3.062-2.176,3.062-2.855,3.062c-1.428,0-1.768-1.428-1.768-2.651c0-2.176,0.611-2.787,2.855-5.031
						c2.311-2.312,8.227-10.404,11.082-17.951c0-0.475,0.066-2.719,0.066-3.195c-0.883-0.34-4.963,2.244-5.643,2.721
						c-2.381,1.699-2.652,1.902-3.604,1.902c-2.789,0-4.691-3.943-4.691-6.662c0-0.68,0.135-0.953,0.34-1.361
						c1.428,2.449,3.398,2.857,4.691,2.857c2.719,0,8.635-2.857,9.043-3.061c0.068-4.215,0.137-7.479,0.137-7.955
						c0-3.264-0.273-4.488-2.109-5.508c-0.066,0-2.582-0.883-2.787-0.951c0.748-0.545,2.039-1.564,3.74-1.564
						c2.719,0,6.459,3.062,6.459,4.828c0,0.611-0.816,3.127-0.951,3.672c-0.34,1.291-0.34,1.699-0.748,5.439
						c0.34-0.068,4.963,0.748,4.963,2.311c0,1.021-1.768,2.924-2.65,3.943c-1.156,1.225-2.244,2.789-3.4,4.896
						c-0.135,1.155-0.135,1.291-0.135,2.446c7.684-6.661,15.094-10.334,22.506-10.334c5.982,0,13.938,4.078,13.938,13.599
						c0,14.959-17.475,20.602-28.08,20.262V311.6L39.389,311.6z"/>
					<path fill="#0A3854" d="M36.602,358.164c5.303,1.361,6.799,1.701,8.227,1.701c1.836,0,3.467,0,3.943-12.783
						c-5.1,0.748-10.607,1.971-17.406,3.807c-0.137,2.516-0.203,5.168-0.203,6.867c0,14.008,1.971,16.795,12.918,16.795
						c4.896,0,7.412-0.408,12.17-1.156c0.479-0.135,1.021-0.135,1.564-0.135c2.992,0,4.012,2.039,4.012,3.127
						c0,0.68-0.27,1.226-0.951,1.564c-0.885,0.408-1.768,0.883-9.996,0.883c-7.002,0-16.793,0-20.939-6.527
						c-2.041-3.195-2.787-7.75-2.787-20.192c-3.264,1.088-6.938,2.312-9.656,4.012c-0.951,0.61-1.631,1.021-2.447,1.021
						c-1.904,0-5.711-3.06-5.711-6.73c0-0.34,0-0.748,0.203-1.633c1.428,1.633,3.195,2.924,5.371,2.924
						c1.361,0,1.77-0.068,12.24-2.787c-0.205-10.131-0.205-10.676-4.693-12.715c0.682-0.545,1.361-1.088,3.266-1.088
						c2.787,0,6.662,1.971,6.662,3.807c0,0.682-0.137,1.361-0.271,1.836c-0.34,1.564-0.543,5.168-0.611,7.004
						c4.486-1.088,9.725-2.244,17.406-3.672c0.068-3.059,0.271-11.082-1.02-13.463c-0.748-1.291-3.129-2.379-5.168-2.924
						c0.611-0.408,2.107-1.562,4.826-1.562c3.129,0,5.508,2.517,5.576,2.517c0.748,0.747,0.748,1.631,0.748,1.901
						c0,0.137-0.34,2.312-0.408,2.584c-0.203,1.564-0.477,8.84-0.611,10.269c1.154-0.203,8.158-1.429,8.566-1.563
						c1.633-0.408,2.721-0.748,4.012-0.748c0.137,0,5.305,0,5.305,2.924c0,2.041-1.904,2.041-3.469,2.041
						c-0.611,0-3.264-0.137-3.809-0.137c-2.787,0-6.322,0.137-10.742,0.68c-0.34,5.371-0.885,12.375-2.244,15.639
						c-0.68,1.699-2.176,3.943-4.283,3.943c-1.156,0-1.562-0.476-2.312-1.631c-0.543-0.748-1.631-2.107-3.195-3.332
						c-0.611-0.478-3.535-2.312-4.078-2.722v-0.343H36.602z"/>
				</g>
			</g>
		</g>
	</g>
</g>
</svg>
