<?xml version="1.0" encoding="utf-8"?>
<!-- Generator: Adobe Illustrator 16.0.0, SVG Export Plug-In . SVG Version: 6.00 Build 0)  -->
<!DOCTYPE svg PUBLIC "-//W3C//DTD SVG 1.1//EN" "http://www.w3.org/Graphics/SVG/1.1/DTD/svg11.dtd">
<svg version="1.1" id="レイヤー_1" xmlns="http://www.w3.org/2000/svg" xmlns:xlink="http://www.w3.org/1999/xlink" x="0px"
	 y="0px" width="80px" height="338px" viewBox="0 0 80 338" enable-background="new 0 0 80 338" xml:space="preserve">
<g>
	<g>
		<g>
			<g>
				<g>
					<path fill="#0A3854" d="M25.381,20.818l1.7-2.039c0.544-0.612,0.748-0.816,1.088-0.816c0.34,0,0.68,0.136,1.224,0.68l0.68,0.68
						c2.924-4.827,5.372-9.858,6.459-15.366c0.272-1.428,0.272-2.651,0.272-3.671L43.4,3.276c0.475,0.204,0.747,0.68,0.747,1.088
						c0,0.815-0.815,1.088-2.448,1.563c-0.815,1.292-1.292,2.108-2.855,4.556H59.99l2.312-3.264
						c0.272-0.407,0.544-0.815,1.021-0.815c0.407,0,0.815,0.408,1.155,0.68l3.399,3.264c0.477,0.408,0.68,0.611,0.68,1.02
						c0,0.612-0.543,0.748-1.02,0.748H37.688c-1.224,1.7-2.991,4.012-7.275,7.547l1.224,1.021c0.544,0.544,0.612,0.815,0.612,1.088
						c0,0.68-0.748,0.68-1.02,0.68H23.07v20.942c2.855-1.225,6.799-2.788,8.635-3.536v0.408c-0.952,0.815-2.379,2.04-4.623,3.672
						c-1.972,1.428-11.355,7.207-13.259,8.431c-0.204,1.428-0.272,1.904-1.02,1.904c-0.544,0-0.816-0.408-1.088-0.816l-4.012-5.711
						c2.584-0.204,4.624-0.34,10.743-2.584v-6.051c0-6.12,0-7.14-0.068-16.659c-2.584,0-5.712,0.068-8.703,0.681l-1.36-2.721
						c2.448,0.205,4.692,0.34,10.063,0.408c0-6.527-0.136-12.986-0.272-14.822c-0.204-1.836-0.408-2.855-0.68-4.012l6.255,2.107
						c0.408,0.137,1.292,0.408,1.292,1.225c0,0.476-0.136,0.611-1.7,1.632c-0.204,3.604-0.204,9.995-0.204,13.87H25.381z
						 M58.154,39.041l2.176-2.176c0.544-0.544,0.951-1.02,1.291-1.02c0.273,0,0.341,0.135,1.156,0.747l2.107,1.7
						c0.068,0.068,0.748,0.611,0.748,1.088c0,0.476-0.203,0.68-2.039,2.312c-0.068,1.021-0.068,1.563-0.068,2.312
						c0,3.74-0.068,9.859-0.068,13.667h1.36l1.7-2.516c0.408-0.612,0.748-0.884,1.088-0.884c0.408,0,0.68,0.271,1.156,0.748
						l2.855,2.516c0.34,0.271,0.68,0.611,0.68,1.02c0,0.612-0.611,0.748-1.02,0.748H30.889c-2.652,0-5.372,0.068-8.023,0.611
						l-1.292-2.719c4.691,0.408,9.587,0.476,10.403,0.476h2.107c0-14.278,0-16.386-0.816-21.962l6.12,3.332H58.154z M55.707,18.915
						l1.699-1.632c0.68-0.612,0.68-0.748,1.02-0.748s0.816,0.34,1.088,0.544l2.176,1.768c0.137,0.068,0.748,0.544,0.748,1.021
						c0,0.407-0.271,0.748-0.476,0.883c-0.204,0.205-1.155,0.885-1.292,1.021c0,2.651-0.068,4.284,0,5.507
						c0.068,0.408,0.204,2.108,0.204,2.517c0,2.72-2.72,2.923-3.196,2.923c-1.428,0-1.496-0.747-1.563-1.631H42.855
						c-0.068,2.379-2.855,2.516-3.06,2.516c-1.768,0-1.768-1.156-1.768-1.7c0-1.224,0.204-6.663,0.204-7.888
						c0-2.719-0.136-4.759-0.34-7.955l5.235,2.856H55.707z M38.572,40.673v16.998h4.012V40.673H38.572z M42.855,20.547v8.906h13.191
						v-8.906H42.855z M46.936,40.673v16.998h4.012V40.673H46.936z M55.162,40.673v16.998h3.876V40.673H55.162z"/>
					<path fill="#0A3854" d="M42.039,85.69c0.545,0.136,1.225,0.544,1.225,1.088c0,0.612-0.748,1.02-1.496,1.428v1.836h12.375
						l1.632-1.769c0.476-0.476,0.815-0.883,1.088-0.883c0.34,0,0.748,0.34,1.155,0.68l2.176,1.836
						c0.34,0.271,0.681,0.543,0.681,1.02c0,0.611-0.612,0.748-1.021,0.748H41.768v4.283h19.854l2.312-2.787
						c0.477-0.545,0.748-0.816,1.088-0.816s0.748,0.34,1.225,0.68l3.467,2.788c0.34,0.272,0.68,0.612,0.68,1.021
						c0,0.611-0.611,0.747-1.088,0.747H18.446c-1.224,0-4.692,0-7.956,0.612l-1.359-2.72c4.215,0.34,8.363,0.476,10.403,0.476
						h17.882v-4.283h-5.508c-1.7,0-4.963,0-8.023,0.611l-1.292-2.719c4.624,0.407,9.451,0.476,10.403,0.476h4.352
						c-0.068-2.72-0.272-3.739-0.952-5.779L42.039,85.69z M59.514,77.191l2.107-1.904c0.408-0.408,0.748-0.68,1.225-0.68
						c0.271,0,0.748,0.34,0.951,0.544l4.012,3.399c0.477,0.408,0.748,1.02,0.748,1.496c0,1.292-1.291,1.292-2.107,1.292h-1.632
						c-2.923,1.972-3.264,2.176-4.827,3.06l-0.34-0.271c0.543-1.564,0.543-1.904,1.088-5.304H47.004
						c-0.137,4.147-0.137,4.487,3.059,4.487c2.652,0,3.469-0.544,4.217-3.875l0.543,0.067c0.34,1.021,1.02,2.108,2.04,2.72
						c1.088,0.611,1.224,0.748,1.224,1.224c0,3.06-4.76,3.06-6.663,3.06c-7.275,0-8.296,0-8.296-5.167v-2.516h-11.83l1.7,1.632
						c0.476,0.476,0.816,0.815,0.816,1.359c0,1.156-1.972,0.952-2.583,0.885c-6.12,4.827-10.675,7.818-18.29,9.994l-0.204-0.476
						c9.655-5.712,14.891-11.694,15.774-13.395h-9.043c-0.34,3.128-1.7,7.343-5.032,7.343c-1.292,0-2.72-0.748-2.72-2.312
						c0-1.155,0.476-1.563,2.583-3.536c3.264-2.991,3.944-4.352,4.76-6.595h0.476c0.068,1.563,0.136,2.176,0.068,3.468h17.814
						c0-1.36-0.068-4.08-1.292-7.412l6.323,1.429c0.34,0.067,1.156,0.544,1.156,1.088s-0.203,0.68-1.836,1.903
						c0,0.408,0,2.72-0.068,2.992H59.514z M20.826,124.719c0,1.631-0.068,3.672-2.855,3.672c-1.428,0-1.428-1.36-1.428-1.904
						c0-1.904,0.204-10.199,0.204-11.898c0-1.564-0.068-2.312-0.34-4.216l4.08,1.495h9.655v-3.264h-9.383
						c-0.544,0.952-2.04,1.496-2.788,1.496c-1.292,0-1.292-1.02-1.292-2.787c0-6.188,0-6.867-0.34-8.84l5.235,2.176h35.221
						l1.562-1.155c0.341-0.204,0.681-0.612,0.953-0.612c0.271,0,0.543,0.204,0.815,0.408l2.108,1.563
						c0.271,0.204,0.611,0.681,0.611,1.088c0,0.476-0.137,0.612-1.699,1.7c0.067,0.816,0.203,4.76,0,5.235
						c-0.477,1.088-1.973,1.36-2.856,1.36c-1.088,0-1.088-1.225-1.088-1.769H45.031v4.08h11.016l1.903-1.632
						c0.34-0.34,0.884-0.544,1.224-0.544c0.204,0,0.545,0.136,0.68,0.271l2.041,1.429c0.68,0.476,0.883,0.68,0.883,1.088
						c0,0.611-0.476,1.02-1.768,2.039c0,1.156,0.204,6.256,0.204,7.275s-0.204,1.836-1.155,2.447
						c-0.748,0.477-1.564,0.545-1.836,0.545c-1.293,0-1.36-0.952-1.36-1.633H45.031v3.876c10.676,0.068,12.238,0.136,15.095-0.067
						c2.856-0.205,4.896-1.088,7.275-11.016h0.476c0.068,1.632,0.408,8.228,1.225,8.976c0.135,0.136,0.611,0.34,1.02,0.476
						c0.34,0.137,0.611,0.137,0.611,0.612c0,1.7-1.836,3.468-3.875,4.011c-3.332,0.885-15.91,0.885-20.126,0.885
						c-15.979,0-16.659-0.34-16.659-5.236v-1.631H20.826z M30.073,106.973v-4.691h-9.247v4.691H30.073z M30.141,117.035V113.5
						h-9.315v3.535H30.141z M30.073,123.086v-4.419h-9.247v4.419H30.073z M34.153,102.281v5.982c0,7.479-0.136,8.295-0.136,10.743
						c0,1.156,0.068,6.392,0.136,7.071c0.136,0.952,1.292,1.428,1.496,1.428c0.612,0.068,4.828,0.137,5.235,0.204v-25.429H34.153z
						 M45.031,102.281v4.555h12.171v-4.555H45.031z M45.031,114.18v2.924h11.831v-2.924H45.031z M45.031,118.734v3.469h11.831
						v-3.469H45.031z"/>
					<path fill="#0A3854" d="M40.544,193.031c14.55-5.168,21.351-14.755,21.351-25.09c0-8.159-4.965-13.734-9.724-15.842
						c-5.507-2.448-10.606-2.448-11.354-2.448c-1.768,0-2.041,0.067-2.788,0.408c3.671,1.972,4.691,4.487,4.691,5.439
						c0,0.747,0,0.815-2.312,5.644c-4.691,9.994-10.811,22.981-15.366,26.789c-0.476,0.34-1.224,0.748-2.176,0.748
						c-1.564,0-2.108-0.748-4.216-3.74c-0.748-1.02-0.884-1.088-2.651-2.719c-2.38-2.108-2.924-5.712-2.924-8.023
						c0-14.619,12.375-26.654,28.964-26.654c13.191,0,25.158,7.684,25.158,21.351c0,12.511-10.062,23.118-26.585,24.682
						L40.544,193.031z M17.358,173.857c0,4.555,2.583,9.723,5.235,9.723c0.68,0,1.156-0.408,1.36-0.612
						c2.244-2.176,2.516-2.855,10.063-18.019c1.496-3.059,3.332-7.887,3.332-10.131c0-1.699-0.816-3.127-2.107-4.352
						C27.829,151.691,17.358,161.278,17.358,173.857z"/>
					<path fill="#0A3854" d="M9.675,230.727c5.167,1.291,9.179,2.72,9.179,6.051c0,1.973-1.7,2.652-2.583,2.652
						c-1.564,0-2.176-1.088-3.264-3.195c-0.408-0.816-1.972-3.332-3.536-4.964L9.675,230.727z M32.317,208.561
						c1.496,0.408,1.768,0.748,1.768,1.156c0,0.476-0.136,0.611-1.7,1.631c0,1.293-0.068,1.429,0,2.108h11.49
						c0-1.021-0.067-3.943-0.475-6.323l4.826,1.428c1.496,0.408,1.769,0.748,1.769,1.156c0,0.476-0.136,0.611-1.7,1.631
						c0,0.341,0,1.836-0.068,2.108h11.695l2.516-2.788c0.34-0.408,0.477-0.611,0.816-0.611s0.748,0.408,0.951,0.476l3.469,2.991
						c0.34,0.205,0.543,0.545,0.543,0.885c0,0.611-0.611,0.68-1.088,0.68H48.295c0,0.477,0.137,2.72,0.137,2.924
						c0,1.904-2.041,2.107-2.855,2.107c-0.885,0-1.836-0.271-1.836-1.496c0-0.543,0.203-2.991,0.203-3.535H32.317
						c0,0.68,0.204,3.604,0.204,4.216c0,1.903-1.972,2.04-2.856,2.04s-1.836-0.272-1.836-1.496c0-0.272,0.068-0.816,0.068-1.088
						c0.136-0.885,0.136-2.652,0.136-3.672h-8.431c-1.7,0-4.963,0.068-8.023,0.611l-1.359-2.719
						c4.691,0.408,9.383,0.476,10.471,0.476h7.275c0-1.224-0.068-3.943-0.476-6.323L32.317,208.561z M22.934,237.39
						c-0.952,3.943-1.7,7.003-3.264,12.034c-1.428,4.692-1.7,5.712-1.7,6.8c0,1.021,0.204,1.903,0.68,3.468
						c0.816,2.584,0.884,3.468,0.884,4.352c0,2.652-1.632,4.08-3.332,4.08c-1.768,0-2.788-1.36-2.788-2.924
						c0-0.272,0.204-2.38,0.272-2.721c0.204-1.495,0.272-2.651,0.272-3.807c0-1.021,0-4.284-3.332-6.119l0.136-0.477
						c2.991,0,3.875,0,6.051-4.012c0.884-1.699,4.759-9.247,5.575-10.742L22.934,237.39z M16.542,219.575
						c2.788,0.681,8.295,2.108,8.295,6.188c0,1.496-0.884,2.788-2.448,2.788c-1.835,0-2.312-1.292-3.399-4.012
						s-1.972-3.808-2.72-4.488L16.542,219.575z M38.776,233.242l1.292-1.292c0.204-0.136,0.612-0.544,1.02-0.544
						c0.271,0,0.544,0.136,1.02,0.477l1.904,1.495c0.611,0.476,0.884,0.681,0.884,0.952c0,0.408-0.136,0.476-1.7,1.632
						c0,1.428,0.205,3.671,0.205,5.1c0,1.495-0.408,1.903-1.088,2.176l5.371,1.903c0.68,0.272,1.428,0.544,1.428,1.156
						c0,0.68-0.612,0.951-1.768,1.632c-0.068,0.612-0.068,0.68-0.137,1.02h14.755l2.312-2.651c0.408-0.408,0.544-0.612,0.885-0.612
						c0.203,0,0.475,0.068,0.951,0.476l3.604,2.856c0.271,0.136,0.544,0.476,0.544,0.815c0,0.612-0.544,0.748-1.088,0.748H47.955
						c7.819,8.432,16.795,10.947,23.117,11.491v0.544c-1.768,0.476-4.215,1.359-6.322,4.42c-3.264-1.428-11.424-5.372-17.611-16.183
						c0,2.38-0.067,5.779,0,11.967c0,0.612,0.137,3.468,0.137,4.079c0,2.176-2.447,2.312-3.195,2.312
						c-1.633,0-1.633-1.088-1.633-1.769c0-1.495,0.272-8.091,0.34-9.45c0.068-2.517,0.068-4.217,0.068-5.78
						c-4.963,5.712-13.19,12.647-22.438,15.503l-0.272-0.477c7.343-4.487,13.667-9.994,18.222-16.658h-5.167
						c-1.7,0-4.963,0.068-8.023,0.612l-1.292-2.72c4.624,0.408,9.315,0.476,10.403,0.476h8.499
						c-0.067-1.088-0.135-2.855-0.815-5.575c-0.747,0.068-1.155,0.068-1.768-0.271c-1.36-0.681-1.496-0.816-2.448-0.816h-6.255
						c0,0.816,0,3.128-2.516,3.128c-1.224,0-1.632-0.748-1.632-1.563c0-1.156,0.204-6.188,0.204-7.275
						c0-3.264-0.136-4.557-0.408-5.916l4.896,2.584H38.776z M31.501,234.874v5.779h7.887v-5.779H31.501z M52.238,221.139
						l1.088-1.088c0.272-0.271,0.68-0.68,1.021-0.68c0.272,0,0.68,0.272,1.155,0.68l1.768,1.36c0.477,0.408,0.748,0.748,0.748,1.021
						c0,0.476-0.815,1.088-1.562,1.631c0,0.612,0.135,2.652,0.135,3.196c0,1.292-0.34,2.72-2.107,2.72
						c-0.748,0-1.156-0.204-1.904-0.612c-0.815-0.476-1.291-0.476-1.971-0.476H39.116c-0.204,2.38-2.856,2.447-2.992,2.38
						c-1.564,0-1.564-1.36-1.564-1.904c0-1.02,0.204-5.507,0.204-6.459c0-1.496-0.068-1.972-0.272-3.876l4.759,2.107H52.238z
						 M39.116,222.771v4.487h13.122v-4.487H39.116z M58.698,233.174l1.563-1.563c0.068,0,0.408-0.34,0.68-0.34
						c0.272,0,0.612,0.204,0.816,0.34l2.244,1.632c0.34,0.271,0.815,0.68,0.815,1.088s-0.34,0.68-1.563,1.359
						c0,0.816,0.203,4.488,0.203,5.236c0,0.883-0.203,2.583-1.971,2.583c-0.68,0-0.816-0.067-2.041-0.68
						c-0.747-0.408-1.291-0.408-1.902-0.408h-6.256c-0.137,1.496-1.973,1.7-2.447,1.7c-1.633,0-1.633-0.748-1.633-1.972v-8.363
						c0-1.632-0.068-2.244-0.136-2.991l4.556,2.379H58.698z M51.287,234.806v5.983h7.887v-5.983H51.287z"/>
					<path fill="#0A3854" d="M25.381,298.618l1.7-2.04c0.544-0.611,0.748-0.815,1.088-0.815c0.34,0,0.68,0.136,1.224,0.68
						l0.68,0.681c2.924-4.828,5.372-9.859,6.459-15.367c0.272-1.428,0.272-2.651,0.272-3.672l6.596,2.992
						c0.475,0.204,0.747,0.68,0.747,1.088c0,0.816-0.815,1.088-2.448,1.564c-0.815,1.291-1.292,2.107-2.855,4.555H59.99l2.312-3.264
						c0.272-0.408,0.544-0.815,1.021-0.815c0.407,0,0.815,0.407,1.155,0.68l3.399,3.264c0.477,0.408,0.68,0.612,0.68,1.021
						c0,0.611-0.543,0.747-1.02,0.747H37.688c-1.224,1.7-2.991,4.012-7.275,7.548l1.224,1.02c0.544,0.544,0.612,0.816,0.612,1.088
						c0,0.68-0.748,0.68-1.02,0.68H23.07v20.942c2.855-1.224,6.799-2.788,8.635-3.536v0.408c-0.952,0.816-2.379,2.04-4.623,3.672
						c-1.972,1.428-11.355,7.207-13.259,8.431c-0.204,1.429-0.272,1.904-1.02,1.904c-0.544,0-0.816-0.408-1.088-0.816l-4.012-5.711
						c2.584-0.204,4.624-0.341,10.743-2.584v-6.052c0-6.119,0-7.139-0.068-16.658c-2.584,0-5.712,0.068-8.703,0.68l-1.36-2.719
						c2.448,0.203,4.692,0.34,10.063,0.407c0-6.527-0.136-12.986-0.272-14.822c-0.204-1.836-0.408-2.855-0.68-4.012l6.255,2.108
						c0.408,0.136,1.292,0.407,1.292,1.224c0,0.476-0.136,0.612-1.7,1.632c-0.204,3.604-0.204,9.994-0.204,13.87H25.381z
						 M58.154,316.841l2.176-2.176c0.544-0.544,0.951-1.021,1.291-1.021c0.273,0,0.341,0.137,1.156,0.748l2.107,1.7
						c0.068,0.067,0.748,0.612,0.748,1.088s-0.203,0.68-2.039,2.312c-0.068,1.02-0.068,1.564-0.068,2.312
						c0,3.739-0.068,9.858-0.068,13.666h1.36l1.7-2.516c0.408-0.612,0.748-0.884,1.088-0.884c0.408,0,0.68,0.271,1.156,0.747
						l2.855,2.517c0.34,0.271,0.68,0.612,0.68,1.02c0,0.612-0.611,0.748-1.02,0.748H30.889c-2.652,0-5.372,0.067-8.023,0.612
						l-1.292-2.721c4.691,0.408,9.587,0.477,10.403,0.477h2.107c0-14.278,0-16.387-0.816-21.962l6.12,3.332H58.154z M55.707,296.715
						l1.699-1.632c0.68-0.612,0.68-0.748,1.02-0.748s0.816,0.34,1.088,0.544l2.176,1.768c0.137,0.068,0.748,0.544,0.748,1.02
						c0,0.408-0.271,0.748-0.476,0.885c-0.204,0.203-1.155,0.884-1.292,1.02c0,2.652-0.068,4.283,0,5.508
						c0.068,0.408,0.204,2.107,0.204,2.516c0,2.72-2.72,2.924-3.196,2.924c-1.428,0-1.496-0.748-1.563-1.633H42.855
						c-0.068,2.381-2.855,2.517-3.06,2.517c-1.768,0-1.768-1.156-1.768-1.7c0-1.224,0.204-6.663,0.204-7.887
						c0-2.721-0.136-4.76-0.34-7.955l5.235,2.855H55.707z M38.572,318.473v16.998h4.012v-16.998H38.572z M42.855,298.347v8.907
						h13.191v-8.907H42.855z M46.936,318.473v16.998h4.012v-16.998H46.936z M55.162,318.473v16.998h3.876v-16.998H55.162z"/>
				</g>
			</g>
		</g>
	</g>
</g>
</svg>
