<?xml version="1.0" encoding="utf-8"?>
<!-- Generator: Adobe Illustrator 16.0.0, SVG Export Plug-In . SVG Version: 6.00 Build 0)  -->
<!DOCTYPE svg PUBLIC "-//W3C//DTD SVG 1.1//EN" "http://www.w3.org/Graphics/SVG/1.1/DTD/svg11.dtd">
<svg version="1.1" id="レイヤー_1" xmlns="http://www.w3.org/2000/svg" xmlns:xlink="http://www.w3.org/1999/xlink" x="0px"
	 y="0px" width="146px" height="30px" viewBox="0 0 146 30" enable-background="new 0 0 146 30" xml:space="preserve">
<g>
	<g>
		<g>
			<g>
				<g>
					<path fill="#0A3854" d="M8.764,10.402l0.726-0.87c0.231-0.261,0.318-0.349,0.464-0.349c0.145,0,0.29,0.059,0.522,0.291
						l0.29,0.289c1.247-2.059,2.291-4.205,2.755-6.555c0.116-0.609,0.116-1.132,0.116-1.566l2.813,1.275
						c0.203,0.088,0.319,0.291,0.319,0.465c0,0.348-0.348,0.464-1.044,0.667c-0.349,0.552-0.551,0.899-1.219,1.943h9.021
						l0.986-1.392c0.116-0.175,0.232-0.349,0.435-0.349c0.175,0,0.349,0.174,0.493,0.29l1.451,1.393
						c0.203,0.174,0.29,0.261,0.29,0.435c0,0.261-0.232,0.319-0.436,0.319H14.014c-0.521,0.725-1.276,1.711-3.104,3.22l0.522,0.435
						c0.231,0.232,0.261,0.349,0.261,0.465c0,0.29-0.319,0.29-0.435,0.29H7.777v8.935c1.219-0.523,2.901-1.189,3.685-1.509v0.174
						c-0.406,0.349-1.016,0.87-1.973,1.566c-0.842,0.608-4.845,3.075-5.656,3.597c-0.087,0.609-0.116,0.812-0.436,0.812
						c-0.232,0-0.348-0.174-0.464-0.348l-1.712-2.438c1.103-0.087,1.973-0.145,4.583-1.102v-2.582c0-2.61,0-3.046-0.028-7.106
						c-1.103,0-2.437,0.028-3.713,0.29l-0.58-1.16c1.044,0.087,2.001,0.145,4.293,0.174c0-2.785-0.059-5.541-0.116-6.324
						C5.573,3.295,5.486,2.86,5.37,2.367l2.669,0.899C8.213,3.324,8.59,3.44,8.59,3.789c0,0.203-0.058,0.261-0.726,0.695
						c-0.087,1.537-0.087,4.265-0.087,5.918H8.764z M22.745,18.176l0.929-0.928c0.231-0.232,0.405-0.436,0.551-0.436
						c0.116,0,0.145,0.059,0.493,0.319l0.899,0.726c0.028,0.029,0.318,0.261,0.318,0.464s-0.087,0.29-0.87,0.986
						c-0.028,0.435-0.028,0.667-0.028,0.985c0,1.596-0.029,4.207-0.029,5.831h0.58l0.726-1.073c0.174-0.262,0.318-0.377,0.464-0.377
						c0.174,0,0.29,0.115,0.493,0.318l1.218,1.074c0.146,0.115,0.29,0.261,0.29,0.435c0,0.261-0.261,0.319-0.435,0.319h-17.23
						c-1.131,0-2.291,0.029-3.423,0.261l-0.551-1.16c2.001,0.175,4.09,0.203,4.438,0.203h0.899c0-6.091,0-6.991-0.348-9.369
						l2.61,1.421H22.745z M21.701,9.59l0.725-0.695c0.29-0.262,0.29-0.32,0.436-0.32c0.145,0,0.348,0.146,0.464,0.232l0.929,0.754
						c0.058,0.029,0.318,0.232,0.318,0.436c0,0.174-0.115,0.319-0.203,0.377c-0.087,0.088-0.493,0.377-0.551,0.436
						c0,1.131-0.029,1.827,0,2.35c0.029,0.174,0.087,0.898,0.087,1.072c0,1.161-1.16,1.248-1.363,1.248
						c-0.609,0-0.638-0.319-0.667-0.696h-5.656c-0.029,1.015-1.219,1.073-1.306,1.073c-0.754,0-0.754-0.493-0.754-0.725
						c0-0.522,0.087-2.844,0.087-3.365c0-1.16-0.058-2.031-0.145-3.395l2.233,1.219H21.701z M14.392,18.872v7.252h1.711v-7.252
						H14.392z M16.219,10.286v3.8h5.627v-3.8H16.219z M17.959,18.872v7.252h1.712v-7.252H17.959z M21.469,18.872v7.252h1.653v-7.252
						H21.469z"/>
					<path fill="#0A3854" d="M44.87,8.343c0.232,0.058,0.522,0.231,0.522,0.464c0,0.262-0.319,0.436-0.638,0.609v0.783h5.279
						l0.695-0.754c0.203-0.203,0.349-0.377,0.465-0.377c0.145,0,0.318,0.145,0.493,0.289l0.928,0.783
						c0.146,0.117,0.29,0.232,0.29,0.436c0,0.262-0.261,0.319-0.435,0.319h-7.716v1.827h8.47l0.986-1.189
						c0.203-0.232,0.319-0.348,0.464-0.348c0.146,0,0.319,0.145,0.522,0.29l1.479,1.188c0.145,0.117,0.29,0.262,0.29,0.436
						c0,0.262-0.262,0.319-0.465,0.319H34.805c-0.521,0-2.001,0-3.394,0.261l-0.58-1.16c1.799,0.145,3.568,0.203,4.438,0.203h7.629
						v-1.827h-2.35c-0.726,0-2.118,0-3.423,0.261l-0.552-1.16c1.973,0.174,4.032,0.203,4.438,0.203h1.856
						c-0.029-1.16-0.116-1.596-0.406-2.466L44.87,8.343z M52.325,4.717l0.899-0.812c0.174-0.174,0.319-0.289,0.522-0.289
						c0.115,0,0.318,0.145,0.405,0.231l1.712,1.45c0.203,0.174,0.319,0.436,0.319,0.639c0,0.551-0.552,0.551-0.899,0.551h-0.696
						c-1.247,0.842-1.393,0.928-2.06,1.305l-0.145-0.115c0.231-0.668,0.231-0.812,0.464-2.263h-5.859
						c-0.059,1.77-0.059,1.915,1.305,1.915c1.132,0,1.479-0.232,1.799-1.654l0.232,0.029c0.145,0.436,0.435,0.899,0.87,1.16
						c0.464,0.262,0.521,0.319,0.521,0.522c0,1.306-2.03,1.306-2.843,1.306c-3.104,0-3.538,0-3.538-2.205V5.413h-5.048l0.726,0.696
						c0.203,0.203,0.348,0.348,0.348,0.58c0,0.493-0.841,0.406-1.102,0.377c-2.611,2.06-4.555,3.336-7.804,4.264l-0.087-0.203
						c4.119-2.436,6.353-4.988,6.729-5.714H35.24c-0.146,1.335-0.726,3.133-2.146,3.133c-0.551,0-1.16-0.319-1.16-0.986
						c0-0.493,0.203-0.667,1.103-1.509c1.392-1.275,1.682-1.855,2.03-2.813h0.203c0.028,0.667,0.058,0.929,0.028,1.479h7.601
						c0-0.58-0.029-1.74-0.552-3.162l2.698,0.609c0.145,0.029,0.493,0.232,0.493,0.465c0,0.231-0.088,0.289-0.783,0.812
						c0,0.175,0,1.161-0.029,1.276H52.325z M35.82,24.992c0,0.697-0.029,1.566-1.218,1.566c-0.609,0-0.609-0.58-0.609-0.812
						c0-0.812,0.087-4.351,0.087-5.076c0-0.667-0.029-0.986-0.146-1.799l1.741,0.638h4.118v-1.392h-4.003
						c-0.231,0.406-0.87,0.638-1.188,0.638c-0.552,0-0.552-0.435-0.552-1.189c0-2.639,0-2.93-0.145-3.771l2.233,0.929h15.025
						l0.667-0.494c0.146-0.086,0.29-0.26,0.406-0.26s0.232,0.086,0.348,0.174l0.899,0.667c0.116,0.087,0.262,0.29,0.262,0.464
						c0,0.203-0.059,0.262-0.726,0.725c0.029,0.349,0.087,2.031,0,2.234c-0.203,0.464-0.841,0.58-1.219,0.58
						c-0.464,0-0.464-0.522-0.464-0.754h-5.192v1.74h4.699l0.812-0.696c0.145-0.146,0.377-0.232,0.522-0.232
						c0.087,0,0.231,0.058,0.29,0.116l0.87,0.609c0.29,0.203,0.377,0.29,0.377,0.464c0,0.261-0.203,0.435-0.754,0.87
						c0,0.493,0.087,2.669,0.087,3.104c0,0.436-0.087,0.783-0.493,1.045c-0.319,0.203-0.667,0.232-0.783,0.232
						c-0.552,0-0.58-0.406-0.58-0.697h-5.048v1.654c4.555,0.028,5.222,0.058,6.439-0.029c1.219-0.088,2.089-0.465,3.104-4.699h0.203
						c0.028,0.696,0.174,3.51,0.521,3.828c0.059,0.059,0.262,0.146,0.436,0.203c0.145,0.059,0.261,0.059,0.261,0.262
						c0,0.725-0.783,1.479-1.653,1.711c-1.421,0.377-6.787,0.377-8.586,0.377c-6.816,0-7.106-0.145-7.106-2.232v-0.697H35.82z
						 M39.766,17.422V15.42H35.82v2.002H39.766z M39.794,21.715v-1.508H35.82v1.508H39.794z M39.766,24.297v-1.886H35.82v1.886
						H39.766z M41.506,15.42v2.553c0,3.191-0.059,3.539-0.059,4.584c0,0.492,0.029,2.727,0.059,3.016
						c0.058,0.406,0.551,0.609,0.638,0.609c0.262,0.029,2.06,0.059,2.233,0.088V15.42H41.506z M46.146,15.42v1.943h5.192V15.42
						H46.146z M46.146,20.496v1.248h5.048v-1.248H46.146z M46.146,22.439v1.48h5.048v-1.48H46.146z"/>
					<path fill="#0A3854" d="M73.232,25.254c6.208-2.205,9.108-6.295,9.108-10.703c0-3.481-2.117-5.859-4.148-6.76
						c-2.35-1.043-4.525-1.043-4.844-1.043c-0.755,0-0.87,0.028-1.189,0.174c1.566,0.841,2.001,1.914,2.001,2.32
						c0,0.318,0,0.348-0.985,2.407c-2.002,4.265-4.612,9.805-6.556,11.429c-0.203,0.145-0.522,0.319-0.929,0.319
						c-0.667,0-0.899-0.319-1.798-1.596c-0.319-0.435-0.378-0.464-1.132-1.16c-1.015-0.899-1.247-2.437-1.247-3.423
						c0-6.236,5.279-11.371,12.356-11.371c5.628,0,10.733,3.278,10.733,9.109c0,5.336-4.293,9.861-11.342,10.529L73.232,25.254z
						 M63.341,17.074c0,1.943,1.103,4.147,2.233,4.147c0.29,0,0.493-0.174,0.58-0.261c0.958-0.928,1.073-1.219,4.293-7.688
						c0.639-1.305,1.422-3.364,1.422-4.322c0-0.725-0.349-1.334-0.899-1.855C67.808,7.617,63.341,11.707,63.341,17.074z"/>
					<path fill="#0A3854" d="M89.063,12.027c2.205,0.551,3.916,1.16,3.916,2.581c0,0.841-0.725,1.132-1.103,1.132
						c-0.667,0-0.929-0.465-1.392-1.364c-0.175-0.348-0.842-1.421-1.509-2.117L89.063,12.027z M98.723,2.57
						c0.638,0.174,0.755,0.319,0.755,0.493c0,0.203-0.059,0.261-0.726,0.696c0,0.551-0.029,0.609,0,0.898h4.901
						c0-0.435-0.028-1.682-0.203-2.697l2.061,0.609c0.638,0.174,0.754,0.319,0.754,0.493c0,0.203-0.059,0.261-0.725,0.696
						c0,0.145,0,0.783-0.029,0.898h4.988l1.074-1.188c0.145-0.175,0.203-0.261,0.348-0.261s0.319,0.174,0.406,0.203l1.479,1.275
						c0.146,0.088,0.232,0.232,0.232,0.377c0,0.262-0.261,0.291-0.464,0.291h-8.034c0,0.203,0.058,1.16,0.058,1.247
						c0,0.812-0.87,0.899-1.219,0.899c-0.377,0-0.783-0.116-0.783-0.639c0-0.232,0.087-1.276,0.087-1.508h-4.96
						c0,0.289,0.087,1.537,0.087,1.798c0,0.812-0.841,0.87-1.219,0.87c-0.377,0-0.783-0.115-0.783-0.638
						c0-0.116,0.029-0.349,0.029-0.464c0.059-0.377,0.059-1.132,0.059-1.566h-3.598c-0.725,0-2.117,0.029-3.422,0.261l-0.58-1.16
						c2.001,0.174,4.002,0.202,4.467,0.202h3.104c0-0.521-0.029-1.682-0.203-2.697L98.723,2.57z M94.72,14.869
						c-0.406,1.683-0.725,2.988-1.393,5.135c-0.609,2.001-0.725,2.436-0.725,2.9c0,0.436,0.087,0.812,0.29,1.479
						c0.348,1.103,0.377,1.479,0.377,1.856c0,1.131-0.696,1.74-1.421,1.74c-0.755,0-1.189-0.58-1.189-1.247
						c0-0.116,0.087-1.016,0.115-1.161c0.088-0.638,0.117-1.131,0.117-1.623c0-0.436,0-1.828-1.422-2.611l0.058-0.203
						c1.276,0,1.653,0,2.582-1.711c0.377-0.726,2.03-3.945,2.378-4.584L94.72,14.869z M91.993,7.27
						c1.189,0.29,3.539,0.899,3.539,2.64c0,0.638-0.377,1.189-1.045,1.189c-0.783,0-0.986-0.552-1.449-1.712
						c-0.465-1.16-0.842-1.624-1.161-1.914L91.993,7.27z M101.479,13.1l0.552-0.551c0.086-0.059,0.26-0.232,0.435-0.232
						c0.116,0,0.231,0.059,0.435,0.203l0.812,0.639c0.262,0.203,0.377,0.289,0.377,0.406c0,0.174-0.058,0.203-0.725,0.695
						c0,0.609,0.086,1.566,0.086,2.176c0,0.639-0.174,0.812-0.463,0.928l2.291,0.812c0.29,0.116,0.609,0.232,0.609,0.494
						c0,0.289-0.262,0.405-0.754,0.695c-0.029,0.262-0.029,0.29-0.059,0.436h6.295l0.986-1.131c0.174-0.175,0.231-0.262,0.377-0.262
						c0.087,0,0.203,0.029,0.406,0.203l1.537,1.219c0.115,0.058,0.232,0.203,0.232,0.348c0,0.261-0.232,0.318-0.465,0.318h-9.05
						c3.335,3.598,7.165,4.671,9.862,4.902v0.232c-0.754,0.203-1.799,0.58-2.697,1.885c-1.393-0.608-4.873-2.291-7.514-6.902
						c0,1.015-0.029,2.465,0,5.104c0,0.261,0.059,1.479,0.059,1.741c0,0.928-1.045,0.986-1.363,0.986
						c-0.696,0-0.696-0.465-0.696-0.755c0-0.638,0.116-3.452,0.146-4.032c0.028-1.073,0.028-1.799,0.028-2.465
						c-2.117,2.436-5.628,5.395-9.572,6.613l-0.116-0.203c3.133-1.914,5.83-4.264,7.773-7.107H99.1
						c-0.726,0-2.117,0.029-3.423,0.262l-0.551-1.16c1.973,0.174,3.974,0.203,4.438,0.203h3.627
						c-0.029-0.465-0.059-1.219-0.349-2.379c-0.319,0.029-0.493,0.029-0.755-0.115c-0.58-0.291-0.638-0.349-1.043-0.349h-2.67
						c0,0.349,0,1.334-1.072,1.334c-0.522,0-0.696-0.319-0.696-0.667c0-0.493,0.087-2.64,0.087-3.104
						c0-1.393-0.059-1.943-0.174-2.523l2.088,1.102H101.479z M98.374,13.796v2.466h3.365v-2.466H98.374z M107.222,7.937l0.465-0.464
						c0.115-0.116,0.289-0.29,0.435-0.29c0.116,0,0.29,0.116,0.493,0.29l0.754,0.58c0.203,0.174,0.319,0.318,0.319,0.436
						c0,0.203-0.349,0.463-0.667,0.695c0,0.262,0.058,1.132,0.058,1.363c0,0.552-0.146,1.16-0.899,1.16
						c-0.318,0-0.492-0.086-0.812-0.261c-0.348-0.202-0.551-0.202-0.841-0.202h-4.901c-0.088,1.015-1.219,1.043-1.277,1.015
						c-0.666,0-0.666-0.58-0.666-0.812c0-0.435,0.086-2.349,0.086-2.755c0-0.639-0.029-0.842-0.115-1.654l2.03,0.899H107.222z
						 M101.624,8.633v1.914h5.598V8.633H101.624z M109.978,13.07l0.667-0.666c0.029,0,0.175-0.146,0.29-0.146
						c0.116,0,0.262,0.087,0.348,0.146l0.958,0.695c0.146,0.116,0.348,0.291,0.348,0.465s-0.146,0.289-0.667,0.58
						c0,0.348,0.087,1.914,0.087,2.232c0,0.378-0.087,1.104-0.841,1.104c-0.291,0-0.348-0.029-0.871-0.291
						c-0.318-0.174-0.551-0.174-0.812-0.174h-2.669c-0.058,0.639-0.841,0.726-1.044,0.726c-0.696,0-0.696-0.319-0.696-0.841v-3.568
						c0-0.696-0.029-0.957-0.059-1.276l1.944,1.015H109.978z M106.815,13.768v2.553h3.365v-2.553H106.815z"/>
					<path fill="#0A3854" d="M124.765,10.402l0.725-0.87c0.232-0.261,0.318-0.349,0.464-0.349s0.29,0.059,0.522,0.291l0.29,0.289
						c1.247-2.059,2.292-4.205,2.755-6.555c0.117-0.609,0.117-1.132,0.117-1.566l2.812,1.275c0.203,0.088,0.32,0.291,0.32,0.465
						c0,0.348-0.349,0.464-1.045,0.667c-0.348,0.552-0.551,0.899-1.219,1.943h9.021l0.986-1.392
						c0.116-0.175,0.232-0.349,0.436-0.349c0.174,0,0.348,0.174,0.492,0.29l1.451,1.393c0.203,0.174,0.29,0.261,0.29,0.435
						c0,0.261-0.232,0.319-0.435,0.319h-12.734c-0.522,0.725-1.277,1.711-3.104,3.22l0.521,0.435
						c0.232,0.232,0.262,0.349,0.262,0.465c0,0.29-0.32,0.29-0.436,0.29h-3.48v8.935c1.218-0.523,2.9-1.189,3.684-1.509v0.174
						c-0.406,0.349-1.016,0.87-1.973,1.566c-0.842,0.608-4.844,3.075-5.656,3.597c-0.087,0.609-0.116,0.812-0.436,0.812
						c-0.232,0-0.348-0.174-0.464-0.348l-1.712-2.438c1.104-0.087,1.973-0.145,4.584-1.102v-2.582c0-2.61,0-3.046-0.029-7.106
						c-1.103,0-2.437,0.028-3.713,0.29l-0.58-1.16c1.044,0.087,2.002,0.145,4.293,0.174c0-2.785-0.059-5.541-0.116-6.324
						c-0.087-0.783-0.174-1.218-0.29-1.711l2.669,0.899c0.174,0.058,0.551,0.174,0.551,0.522c0,0.203-0.058,0.261-0.726,0.695
						c-0.086,1.537-0.086,4.265-0.086,5.918H124.765z M138.745,18.176l0.929-0.928c0.231-0.232,0.405-0.436,0.551-0.436
						c0.116,0,0.146,0.059,0.493,0.319l0.899,0.726c0.028,0.029,0.319,0.261,0.319,0.464s-0.088,0.29-0.871,0.986
						c-0.028,0.435-0.028,0.667-0.028,0.985c0,1.596-0.029,4.207-0.029,5.831h0.58l0.726-1.073c0.174-0.262,0.318-0.377,0.464-0.377
						c0.174,0,0.29,0.115,0.493,0.318l1.219,1.074c0.145,0.115,0.289,0.261,0.289,0.435c0,0.261-0.261,0.319-0.435,0.319h-17.229
						c-1.132,0-2.292,0.029-3.424,0.261l-0.551-1.16c2.002,0.175,4.09,0.203,4.438,0.203h0.9c0-6.091,0-6.991-0.349-9.369
						l2.61,1.421H138.745z M137.701,9.59l0.726-0.695c0.289-0.262,0.289-0.32,0.435-0.32s0.349,0.146,0.464,0.232l0.929,0.754
						c0.058,0.029,0.319,0.232,0.319,0.436c0,0.174-0.116,0.319-0.203,0.377c-0.088,0.088-0.494,0.377-0.551,0.436
						c0,1.131-0.029,1.827,0,2.35c0.028,0.174,0.086,0.898,0.086,1.072c0,1.161-1.16,1.248-1.363,1.248
						c-0.609,0-0.638-0.319-0.667-0.696h-5.656c-0.028,1.015-1.218,1.073-1.306,1.073c-0.754,0-0.754-0.493-0.754-0.725
						c0-0.522,0.088-2.844,0.088-3.365c0-1.16-0.059-2.031-0.146-3.395l2.233,1.219H137.701z M130.392,18.872v7.252h1.711v-7.252
						H130.392z M132.219,10.286v3.8h5.628v-3.8H132.219z M133.96,18.872v7.252h1.711v-7.252H133.96z M137.47,18.872v7.252h1.652
						v-7.252H137.47z"/>
				</g>
			</g>
		</g>
	</g>
</g>
</svg>
