<?xml version="1.0" encoding="utf-8"?>
<!-- Generator: Adobe Illustrator 16.0.0, SVG Export Plug-In . SVG Version: 6.00 Build 0)  -->
<!DOCTYPE svg PUBLIC "-//W3C//DTD SVG 1.1//EN" "http://www.w3.org/Graphics/SVG/1.1/DTD/svg11.dtd">
<svg version="1.1" id="レイヤー_1" xmlns="http://www.w3.org/2000/svg" xmlns:xlink="http://www.w3.org/1999/xlink" x="0px"
	 y="0px" width="80px" height="315px" viewBox="0 0 80 315" enable-background="new 0 0 80 315" xml:space="preserve">
<g>
	<g>
		<g>
			<g>
				<g>
					<path fill="#0A3854" d="M9.675,23.948c5.167,1.292,9.18,2.72,9.18,6.052c0,1.972-1.699,2.651-2.584,2.651
						c-1.563,0-2.176-1.088-3.264-3.195c-0.408-0.815-1.973-3.332-3.535-4.964L9.675,23.948z M32.315,1.783
						c1.496,0.407,1.769,0.748,1.769,1.155c0,0.476-0.136,0.612-1.699,1.632c0,1.292-0.067,1.428,0,2.107h11.49
						c0-1.02-0.066-3.943-0.477-6.322l4.828,1.428c1.496,0.407,1.769,0.748,1.769,1.155c0,0.476-0.138,0.612-1.7,1.632
						c0,0.34,0,1.836-0.068,2.107h11.695l2.516-2.787c0.34-0.408,0.477-0.612,0.815-0.612c0.341,0,0.748,0.408,0.952,0.476
						l3.468,2.992c0.341,0.204,0.544,0.544,0.544,0.884c0,0.612-0.611,0.681-1.088,0.681H48.295c0,0.476,0.137,2.719,0.137,2.924
						c0,1.903-2.041,2.107-2.855,2.107c-0.885,0-1.836-0.272-1.836-1.496c0-0.544,0.203-2.992,0.203-3.535H32.315
						c0,0.68,0.205,3.604,0.205,4.215c0,1.904-1.973,2.04-2.855,2.04s-1.836-0.272-1.836-1.496c0-0.271,0.066-0.815,0.066-1.088
						c0.138-0.884,0.138-2.651,0.138-3.671h-8.433c-1.699,0-4.963,0.067-8.022,0.611l-1.359-2.72
						C14.91,6.61,19.603,6.678,20.69,6.678h7.274c0-1.224-0.067-3.943-0.476-6.322L32.315,1.783z M22.935,30.611
						c-0.953,3.944-1.701,7.004-3.265,12.035c-1.428,4.691-1.7,5.711-1.7,6.799c0,1.021,0.204,1.904,0.68,3.469
						c0.816,2.583,0.886,3.467,0.886,4.352c0,2.651-1.632,4.079-3.332,4.079c-1.769,0-2.788-1.36-2.788-2.924
						c0-0.272,0.204-2.38,0.271-2.72c0.205-1.496,0.271-2.651,0.271-3.808c0-1.02,0-4.283-3.331-6.119l0.136-0.476
						c2.991,0,3.877,0,6.053-4.012c0.884-1.7,4.759-9.248,5.574-10.743L22.935,30.611z M16.542,12.798
						c2.788,0.68,8.295,2.107,8.295,6.187c0,1.496-0.884,2.788-2.447,2.788c-1.836,0-2.312-1.292-3.398-4.011
						c-1.088-2.721-1.973-3.809-2.721-4.488L16.542,12.798z M38.774,26.465l1.293-1.293c0.203-0.136,0.612-0.543,1.021-0.543
						c0.271,0,0.544,0.136,1.02,0.476l1.904,1.495c0.611,0.477,0.885,0.681,0.885,0.953c0,0.407-0.138,0.476-1.701,1.631
						c0,1.428,0.205,3.672,0.205,5.1c0,1.496-0.408,1.904-1.088,2.176l5.371,1.904c0.68,0.271,1.428,0.544,1.428,1.156
						c0,0.68-0.611,0.951-1.769,1.631c-0.067,0.612-0.067,0.68-0.136,1.021h14.755l2.312-2.651c0.408-0.408,0.545-0.612,0.885-0.612
						c0.203,0,0.476,0.067,0.951,0.476l3.604,2.855c0.271,0.137,0.544,0.477,0.544,0.816c0,0.611-0.544,0.748-1.088,0.748H47.955
						c7.818,8.431,16.794,10.947,23.117,11.49v0.545c-1.768,0.476-4.215,1.359-6.323,4.419c-3.265-1.428-11.423-5.372-17.61-16.183
						c0,2.38-0.066,5.779,0,11.967c0,0.612,0.137,3.468,0.137,4.08c0,2.176-2.447,2.312-3.195,2.312
						c-1.632,0-1.632-1.088-1.632-1.768c0-1.496,0.272-8.091,0.34-9.451c0.067-2.516,0.067-4.216,0.067-5.779
						c-4.964,5.711-13.189,12.646-22.438,15.502l-0.272-0.476c7.345-4.488,13.668-9.995,18.224-16.658H33.2
						c-1.699,0-4.963,0.068-8.023,0.611l-1.291-2.719c4.623,0.407,9.314,0.476,10.402,0.476h8.499
						c-0.066-1.088-0.137-2.856-0.814-5.575c-0.748,0.067-1.156,0.067-1.769-0.272c-1.36-0.68-1.496-0.815-2.448-0.815h-6.255
						c0,0.815,0,3.127-2.518,3.127c-1.224,0-1.631-0.748-1.631-1.562c0-1.156,0.203-6.188,0.203-7.275
						c0-3.264-0.136-4.556-0.406-5.915l4.896,2.584h6.729V26.465z M31.501,28.096v5.779h7.887v-5.779H31.501z M52.238,14.361
						l1.088-1.088c0.271-0.271,0.68-0.68,1.021-0.68c0.271,0,0.68,0.271,1.154,0.68l1.768,1.359
						c0.478,0.408,0.748,0.748,0.748,1.021c0,0.476-0.814,1.088-1.562,1.632c0,0.611,0.136,2.652,0.136,3.195
						c0,1.292-0.34,2.721-2.106,2.721c-0.748,0-1.156-0.205-1.904-0.612c-0.814-0.476-1.292-0.476-1.973-0.476H39.118
						c-0.204,2.379-2.855,2.447-2.992,2.379c-1.562,0-1.562-1.359-1.562-1.903c0-1.021,0.203-5.508,0.203-6.46
						c0-1.496-0.067-1.972-0.271-3.875l4.76,2.107H52.238z M39.116,15.993v4.487h13.122v-4.487H39.116z M58.698,26.396l1.563-1.564
						c0.067,0,0.407-0.34,0.68-0.34c0.271,0,0.611,0.204,0.815,0.34L64,26.465c0.34,0.271,0.816,0.68,0.816,1.088
						c0,0.407-0.34,0.68-1.564,1.359c0,0.816,0.204,4.487,0.204,5.235c0,0.884-0.204,2.584-1.972,2.584
						c-0.68,0-0.815-0.068-2.041-0.681c-0.746-0.407-1.291-0.407-1.902-0.407h-6.256c-0.137,1.495-1.973,1.7-2.447,1.7
						c-1.632,0-1.632-0.748-1.632-1.973v-8.363c0-1.631-0.067-2.243-0.136-2.991l4.556,2.38H58.698z M51.286,28.028v5.983h7.888
						v-5.983H51.286z"/>
					<path fill="#0A3854" d="M25.381,89.841l1.7-2.04c0.544-0.611,0.748-0.815,1.088-0.815s0.68,0.136,1.225,0.68l0.68,0.681
						c2.924-4.828,5.371-9.859,6.46-15.367c0.271-1.428,0.271-2.651,0.271-3.672L43.4,72.3c0.476,0.204,0.748,0.68,0.748,1.088
						c0,0.816-0.816,1.088-2.448,1.564c-0.815,1.291-1.292,2.107-2.855,4.555h21.146l2.312-3.264
						c0.271-0.408,0.545-0.815,1.021-0.815c0.407,0,0.815,0.407,1.155,0.68l3.399,3.264c0.476,0.408,0.681,0.612,0.681,1.021
						c0,0.611-0.545,0.747-1.021,0.747h-29.85c-1.225,1.7-2.992,4.012-7.274,7.548l1.224,1.02c0.545,0.544,0.611,0.816,0.611,1.088
						c0,0.68-0.747,0.68-1.02,0.68h-8.16v20.942c2.855-1.224,6.801-2.788,8.636-3.536v0.408c-0.951,0.816-2.379,2.04-4.623,3.672
						c-1.972,1.428-11.354,7.207-13.259,8.431c-0.204,1.429-0.271,1.904-1.02,1.904c-0.545,0-0.816-0.408-1.089-0.816l-4.012-5.711
						c2.584-0.204,4.623-0.341,10.743-2.584v-6.052c0-6.119,0-7.139-0.068-16.658c-2.584,0-5.712,0.068-8.703,0.68l-1.359-2.719
						c2.447,0.203,4.691,0.34,10.062,0.407c0-6.527-0.136-12.986-0.271-14.822c-0.203-1.836-0.407-2.855-0.681-4.012l6.257,2.108
						c0.406,0.136,1.291,0.407,1.291,1.224c0,0.476-0.137,0.612-1.699,1.632c-0.205,3.604-0.205,9.994-0.205,13.87h2.312V89.841z
						 M58.154,108.063l2.176-2.176c0.544-0.544,0.951-1.021,1.291-1.021c0.271,0,0.341,0.137,1.156,0.748l2.106,1.7
						c0.068,0.067,0.748,0.612,0.748,1.088s-0.204,0.68-2.039,2.312c-0.067,1.02-0.067,1.564-0.067,2.312
						c0,3.739-0.068,9.858-0.068,13.666h1.359l1.699-2.516c0.408-0.612,0.748-0.884,1.088-0.884c0.408,0,0.682,0.271,1.156,0.747
						l2.855,2.517c0.34,0.271,0.681,0.612,0.681,1.02c0,0.612-0.612,0.748-1.021,0.748H30.89c-2.652,0-5.371,0.067-8.023,0.612
						l-1.292-2.721c4.69,0.408,9.587,0.477,10.403,0.477h2.106c0-14.278,0-16.387-0.815-21.962l6.119,3.332L58.154,108.063
						L58.154,108.063z M55.706,87.938l1.7-1.632c0.68-0.612,0.68-0.748,1.02-0.748s0.816,0.34,1.088,0.544l2.176,1.768
						c0.137,0.068,0.748,0.544,0.748,1.02c0,0.408-0.271,0.748-0.476,0.885c-0.204,0.203-1.155,0.884-1.292,1.02
						c0,2.652-0.068,4.283,0,5.508c0.066,0.408,0.204,2.107,0.204,2.516c0,2.72-2.72,2.924-3.196,2.924
						c-1.428,0-1.496-0.748-1.562-1.633h-13.26c-0.068,2.381-2.855,2.517-3.061,2.517c-1.769,0-1.769-1.156-1.769-1.7
						c0-1.224,0.203-6.663,0.203-7.887c0-2.721-0.136-4.76-0.34-7.955l5.235,2.855h12.581V87.938z M38.571,109.695v16.998h4.012
						v-16.998H38.571z M42.855,89.569v8.907h13.189v-8.907H42.855z M46.936,109.695v16.998h4.012v-16.998H46.936z M55.162,109.695
						v16.998h3.876v-16.998H55.162z"/>
					<path fill="#0A3854" d="M66.652,159.191c-9.791,15.843-19.105,21.146-33.181,29.236c-1.359,0.815-1.699,1.155-3.128,2.651
						c-0.544,0.544-0.884,0.612-1.155,0.612c-0.885,0-1.293-0.545-2.244-1.903c-0.271-0.408-2.516-3.74-2.516-4.624
						c0-0.477,1.088-2.584,1.225-2.991c0.408-1.429,0.476-3.739,0.476-5.305c0.067-1.835,0.136-6.052,0.136-13.259
						c0-2.651,0-12.375-0.271-14.481c-0.341-2.176-1.36-2.584-5.849-3.74c1.904-1.224,3.265-1.972,4.761-1.972
						c2.04,0,7.751,1.972,7.751,3.739c0,0.612-1.02,3.196-1.155,3.74c-0.612,3.06-1.226,24.613-1.088,32.568
						c8.091-2.65,23.865-12.307,35.764-24.682L66.652,159.191z"/>
					<path fill="#0A3854" d="M22.05,220.872c8.295,0,12.238,3.194,12.238,6.459c0,1.292-0.544,2.448-1.836,2.448
						c-0.951,0-1.699-0.612-3.264-1.7c-6.731-4.69-9.928-5.915-12.852-6.663C18.104,221.076,19.67,220.872,22.05,220.872z
						 M27.353,205.369c8.703,0,12.647,3.876,12.647,6.936c0,1.021-0.478,2.584-2.108,2.584c-0.748,0-1.428-0.477-2.447-1.428
						c-6.596-5.984-10.402-7.141-12.375-7.752C24.565,205.506,25.722,205.369,27.353,205.369z M65.973,217.54
						c-3.875,9.791-15.162,21.826-24.205,28.829c-1.224,0.951-6.663,4.964-7.751,5.779c-0.748,0.543-0.951,0.68-2.312,2.106
						c-0.544,0.545-1.021,1.088-1.769,1.088c-1.562,0-3.672-2.311-4.69-3.671c-1.156-1.562-1.903-2.99-1.903-5.508
						c0-0.544,0.067-0.952,0.203-1.562c1.36,1.768,4.352,3.942,5.372,3.942c4.419,0,25.975-17.61,36.648-31.276L65.973,217.54z"/>
					<path fill="#0A3854" d="M51.49,282.416c2.652-1.156,2.992-1.225,4.146-1.225c1.77,0,4.284,0.545,4.284,2.312
						c0,2.177-2.38,2.787-8.771,4.623c-4.353,1.226-14.822,3.332-23.458,4.216c-0.137,2.924-0.137,5.305-0.137,7.479
						c0,7.955,0.068,11.082,11.627,11.082c4.964,0,10.812-1.02,11.628-1.223c3.332-0.953,3.672-1.089,4.826-1.089
						c2.108,0,5.576,0.341,5.576,2.856c0,0.951-0.611,1.699-1.77,2.176c-2.379,0.951-17.541,1.02-18.426,1.02
						c-7.546,0-11.967-0.408-14.958-3.604c-1.903-2.107-2.517-4.352-2.517-15.23c0-2.312,0.272-13.599,0.272-16.183
						c0-5.644,0-6.526-5.508-8.907c1.631-1.292,2.924-1.496,3.467-1.496c2.517,0,8.295,2.788,8.295,4.828
						c0,0.477-0.066,0.68-0.476,1.359c-0.544,1.088-1.088,2.039-1.768,13.871C31.229,288.739,42.243,286.359,51.49,282.416z
						 M66.925,268.953c0,3.604-2.924,6.527-6.459,6.527c-3.468,0-6.46-2.855-6.46-6.527s2.992-6.459,6.46-6.459
						C64.001,262.494,66.925,265.35,66.925,268.953z M56.59,269.021c0,2.176,1.768,3.875,3.876,3.875
						c2.107,0,3.875-1.699,3.875-3.943c0-2.176-1.768-3.876-3.875-3.876C58.426,265.077,56.59,266.709,56.59,269.021z"/>
				</g>
			</g>
		</g>
	</g>
</g>
</svg>
