<?xml version="1.0" encoding="utf-8"?>
<!-- Generator: Adobe Illustrator 16.0.0, SVG Export Plug-In . SVG Version: 6.00 Build 0)  -->
<!DOCTYPE svg PUBLIC "-//W3C//DTD SVG 1.1//EN" "http://www.w3.org/Graphics/SVG/1.1/DTD/svg11.dtd">
<svg version="1.1" id="レイヤー_1" xmlns="http://www.w3.org/2000/svg" xmlns:xlink="http://www.w3.org/1999/xlink" x="0px"
	 y="0px" width="80px" height="329px" viewBox="0 0 80 329" enable-background="new 0 0 80 329" xml:space="preserve">
<g>
	<g>
		<g>
			<g>
				<path fill="#0A3854" d="M8.208,32.158c2.131-2.666,7.266-9.131,12.264-20.062c3.465-7.664,3.533-8.932,3.666-11.931l5.865,4
					c0.334,0.2,0.934,0.599,0.934,1.201c0,0.732-1.399,1.066-2.666,1.399c-1.4,3.199-3.2,6.798-7.265,12.531l1.866,0.867
					c0.668,0.334,1.064,0.533,1.064,1c0,0.532-0.466,0.932-1.398,1.734c-0.065,0.665-0.065,29.658,0.199,33.324
					c0,0.468,0.065,1.666,0.065,2.132c0,1.335-0.265,2.399-1.065,2.867c-0.731,0.401-1.6,0.801-2.532,0.801
					c-1.601,0-1.999-0.999-1.999-1.935c0-0.398,0.133-2.264,0.133-2.598c0.398-16.198,0.467-17.996,0.732-34.327
					c-4.265,5.267-7.064,7.532-9.331,9.265L8.208,32.158z M36.335,28.093c-1.6,0-4.799,0.067-7.865,0.6l-1.332-2.666
					c4.6,0.4,9.197,0.465,10.264,0.465h24.795l2.798-3.398c0.535-0.601,0.667-0.8,1.001-0.8c0.4,0,1,0.466,1.267,0.664l3.8,3.402
					c0.465,0.398,0.666,0.598,0.666,1.066c0,0.598-0.533,0.666-1,0.666H49.864c-2.399,4.865-6.199,11.532-10.396,17.262
					c-3.068,4.2-5.267,6.467-6.333,7.532c1.398-0.067,15.33-1.533,27.328-3.399c-2.533-5.532-4.267-7.866-6.267-10.131l0.468-0.466
					c7.397,4.796,14.461,12.597,14.461,17.727c0,1.468-0.932,3.401-2.864,3.401c-2.067,0-2.667-1.8-3.731-5.065
					c-0.869-2.6-1.201-3.466-1.535-4.266c-5.932,1.999-15.729,4.464-21.594,5.865c-1.333,0.333-3.335,0.799-4.999,1.466
					c-1.534,0.599-1.733,0.666-2.133,0.666c-0.333,0-0.866-0.133-1.2-0.933c-0.6-1.267-1.6-3.465-1.6-3.866
					c0-0.4,0.067-0.466,1-1.267c1.133-0.867,1.998-1.6,4.134-5.199c3.598-6.132,6.529-12.396,9.062-19.328H36.335z M57.664,9.365
					l2.399-3.066c0.199-0.201,0.665-0.8,1.066-0.8c0.267,0,0.531,0.065,1.267,0.666l3.8,3.065c0.332,0.267,0.664,0.601,0.664,1.068
					c0,0.6-0.531,0.665-0.998,0.665H42.866c-1.666,0-4.865,0.068-7.797,0.602l-1.334-2.667c4.531,0.401,9.131,0.469,10.197,0.469
					H57.664z"/>
				<path fill="#0A3854" d="M9.74,123.932c3.866-8.199,5.198-14.996,5.198-18.662c0-1.266-0.064-1.867-0.132-2.6l6.132,2.466
					c0.398,0.199,0.732,0.533,0.732,0.999c0,0.334-0.134,0.534-0.334,0.668c-0.331,0.265-1.398,0.8-1.666,0.933
					c-1.865,5.796-6.264,13.263-9.598,16.33L9.74,123.932z M34.735,79.94c0.334,0.266,0.732,0.668,0.732,1.067
					c0,1.201-1.6,1.268-3.133,1.334c-6.864,6.197-15.129,11.664-18.528,13.33c2.267,0.332,13.397-0.533,17.931-0.936
					c-0.868-2.863-1.336-3.598-1.936-4.464l0.201-0.333c2.267,1.268,7.797,4.399,7.797,8.797c0,1.867-1.531,2.8-2.666,2.8
					c-1.998,0-2.266-1.532-3.062-5.399c-1.336,0.401-2.602,0.735-4.803,1.201c0,12.129,0.068,17.462,0.267,24.661
					c0.067,1.267,0.067,2.8,0.067,3.667c0,2-1.732,2.599-3.266,2.599c-1.534,0-1.6-0.866-1.6-1.933
					c0-0.601,0.469-14.73,0.469-15.595V98.137c-2.469,0.467-4.732,0.933-6.933,1.533c-0.468,0.133-2.467,0.866-2.866,0.866
					c-1.399,0-2.268-4.399-2.268-4.731c0-0.8,0.467-1.069,1.801-1.733c1.532-0.8,5.266-4.067,7.398-6.065
					c-1.336-0.934-3.932-2.667-4.934-3.067c-2.533-0.996-2.998-1.132-2.998-2.664c0-1.067,0.131-1.134,1.531-2.399
					c3.2-2.8,8.397-9.2,8.731-12.731l5.8,3.265c0.4,0.2,1,0.534,1,1.134c0,0.868-1.935,1.067-3.6,1.266
					c-0.8,0.6-1.065,0.868-3.731,3.133c-1.333,1.067-3.468,2.6-5.466,4.067c2.6,3.197,2.932,3.6,5.331,6.331
					c2.934-2.933,6.666-6.999,7.265-9.997L34.735,79.94z M29.87,103.802c3.865,1.602,8.064,4.8,8.064,8.066c0,1.466-0.934,3-2.533,3
					c-1.932,0-2.334-1.534-3.268-5.466c-0.332-1.466-1.464-3.932-2.464-5.199L29.87,103.802z M29.935,125.999
					c12.198-6.266,14.998-19.397,14.998-25.595c0-1.668-0.2-2.733-0.334-3.601l6.133,1.866c0.467,0.134,0.733,0.535,0.733,0.936
					c0,0.332-0.2,0.53-0.399,0.733c-0.199,0.198-1.134,0.864-1.268,0.998c-0.998,6.333-3.197,11.73-4.799,14.396
					c-1.933,3.134-6.798,9.133-14.996,10.599L29.935,125.999z M57.063,87.006c7.931,1.733,12.331,6.199,12.331,8.997
					c0,1.733-1.267,2.8-2.866,2.8c-1.732,0-2.334-1.201-3.066-2.731c-0.733-1.599-1.266-2.468-1.933-3.466
					c-1.001,0.265-7.134,1.533-8.532,1.8l6.267,1.999c0.601,0.2,0.733,0.467,0.733,0.799c0,0.201-0.133,0.533-0.4,0.733
					c-0.268,0.201-0.4,0.334-1.602,1.401c0,2.932-0.131,15.996-0.131,18.663c0,3.466,0.599,3.733,3.198,3.733
					c5.134,0,5.267-0.534,7.397-8.999l0.466,0.067c0.602,5.065,1.002,7.132,1.935,8.131c0.666,0.666,0.8,0.801,0.8,1.401
					c0,0.865-0.866,2.067-2.133,2.733c-1.866,0.934-4.731,1.266-8.862,1.266c-6.402,0-7.134-1.533-7.134-7.398
					c0-2.8,0.067-15.395,0.067-17.927c-0.067-3.47-0.2-4.668-0.936-6.533c-1.065,0.2-7.664,1.531-7.863,1.599
					c-0.6,0.132-3.133,0.999-3.467,0.999c-0.598,0-0.932-0.399-1.6-1.733c-0.332-0.665-1.398-2.865-1.398-3.333
					c0-0.466,0.2-0.6,1.266-1.132c2.133-1.067,7.397-8.465,8.399-10.2h-1.733c-1.668,0-4.867,0.069-7.867,0.6l-1.332-2.665
					c4.332,0.399,8.4,0.466,10.265,0.466h2.399c0-4.533,0-7.198-1.334-10.597l7.065,1.932c0.4,0.134,0.802,0.334,0.802,0.8
					c0,0.601-0.334,0.868-2.002,2.134v5.731h8.666l1.867-2.731c0.467-0.668,0.602-0.868,0.998-0.868
					c0.268,0,0.535,0.068,1.268,0.733l3.066,2.733c0.467,0.401,0.666,0.601,0.666,1.069c0,0.599-0.532,0.664-1,0.664h-15.33
					c-4.131,4.533-11.797,10.333-13.861,11.398c2.532,0.267,16.193-0.533,19.994-0.733c-1.4-1.934-2.867-3.401-3.533-4.065V87.006z"
					/>
				<path fill="#0A3854" d="M41.267,188.113c14.264-5.064,20.93-14.465,20.93-24.595c0-7.997-4.865-13.463-9.533-15.53
					c-5.398-2.397-10.396-2.397-11.129-2.397c-1.733,0-1.999,0.065-2.733,0.397c3.599,1.934,4.6,4.401,4.6,5.333
					c0,0.735,0,0.8-2.268,5.533c-4.598,9.799-10.598,22.529-15.061,26.26c-0.469,0.334-1.202,0.734-2.136,0.734
					c-1.533,0-2.065-0.734-4.133-3.666c-0.732-1-0.864-1.066-2.598-2.666c-2.332-2.064-2.866-5.598-2.866-7.865
					c0-14.33,12.13-26.128,28.394-26.128c12.931,0,24.662,7.531,24.662,20.93c0,12.265-9.865,22.662-26.062,24.195L41.267,188.113z
					 M18.538,169.316c0,4.467,2.533,9.531,5.134,9.531c0.665,0,1.133-0.398,1.331-0.599c2.201-2.134,2.467-2.798,9.865-17.663
					c1.467-3,3.266-7.731,3.266-9.93c0-1.668-0.801-3.067-2.067-4.268C28.802,147.589,18.538,156.989,18.538,169.316z"/>
				<path fill="#0A3854" d="M62.196,237.965l2.266-2.734c0.602-0.732,0.733-0.865,1-0.865c0.332,0,0.666,0.266,1.266,0.732
					l3.266,2.732c0.334,0.266,0.668,0.533,0.668,1c0,0.6-0.533,0.734-1,0.734H57.063l4.333,3.334
					c0.332,0.264,0.733,0.664,0.733,1.062c0,1.002-1.465,0.869-2.668,0.732c-2.131,0.869-7.064,2.201-9.129,2.533l-0.202-0.398
					c3.934-3.133,5.732-5.998,6.332-7.264H41.733c-0.533,0.531-1.266,1.197-1.867,1.666c6.867,6.133,20.53,13.531,31.861,12.93
					l0.064,0.4c-2.065,0.732-4.797,2.465-6.263,5.463c-10.066-2.932-20.131-9.799-26.194-18.328c-0.936,0.801-2.8,2.334-6.932,4.865
					v8.398c0.198-0.064,9.529-1.998,14.529-3.664l0.266,0.467c-4.731,3.33-7.797,4.797-16.062,8.666
					c-0.332,0.131-1.732,0.93-2.065,0.998c-0.269,0.066-0.468,0.133-0.601,0.133c-0.666,0-0.666-0.066-1.799-2.398
					c-0.201-0.469-0.733-1.801-0.733-2.135c0-0.732,0.135-0.797,1.331-1.533c0.267-0.133,0.734-0.4,0.734-1.6v-4.865
					c-5.465,2.867-11.33,5.199-17.396,6.201v-0.402c7.131-2.865,18.797-9.996,24.262-15.262H20.472c-1.668,0-4.865,0-7.798,0.6
					l-1.333-2.668c4.531,0.334,9.131,0.469,10.196,0.469h18.063c0-1.732-0.065-3.801-0.132-4.666
					c-1.268,0.732-2.136,0.998-3.068,1.264c-0.334-1.664-0.731-3.266-2.797-5.529v-0.402c0.865,0.068,1.933,0.068,2.731,0.068
					c0.865,0,1.465,0,1.533-1c0-0.467,0.066-4.799,0.066-5.131h-6.332c0,1.598,0.065,8.662,0.135,10.064
					c0,0.266,0.064,0.799,0.064,1c0,1.799-2,2.197-2.865,2.197c-1.534,0-1.668-0.799-1.668-1.799c0-1.732,0.201-9.266,0.267-11.463
					h-5.531v4.998c0,0.666,0.135,3.664,0.135,4.33c0,0.736-0.067,1.201-0.401,1.668c-0.465,0.666-1.6,1.135-2.666,1.135
					c-1.199,0-1.533-0.602-1.533-1.535c0-0.398,0.066-2.131,0.135-2.533c0-1.332,0.064-2.932,0.064-4.998
					c0-4.666-0.133-5.266-0.398-6.598l4.997,1.932h5.267v-5.131h-6.398c-1.665,0-4.865,0-7.864,0.598l-1.332-2.664
					c4.598,0.398,9.196,0.465,10.265,0.465h5.33v-5.533h-5.797c-1.134,1.668-2.201,3.07-4.866,5.268l-0.334-0.133
					c1.2-2.801,3.198-8.732,2.934-12.131l4.864,1.398c0.333,0.066,0.801,0.201,0.801,0.732c0,0.535-0.934,1.068-1.399,1.268
					c-0.334,0.803-0.467,1.066-1.002,1.998h4.8c-0.2-3.197-0.398-4.266-0.865-6.129l5.532,1.266
					c0.332,0.066,1.067,0.266,1.067,0.865c0,0.732-0.934,1.268-1.801,1.801v2.197h4.467l1.531-1.93
					c0.667-0.801,0.865-0.801,1.066-0.801c0.268,0,0.534,0.133,1.2,0.666l2.532,2c0.267,0.201,0.668,0.533,0.668,1
					c0,0.6-0.602,0.664-1.068,0.664H31.536v5.533h7.064l1.934-2.199c0.666-0.799,0.732-0.865,1.065-0.865
					c0.399,0,0.935,0.465,1.201,0.732l2.532,2.201c0.332,0.264,0.666,0.531,0.666,1c0,0.6-0.601,0.732-1,0.732H31.536v5.131h5.865
					l1.666-1.73c0.468-0.402,0.666-0.469,0.933-0.469c0.333,0,0.667,0.268,0.868,0.4l2.332,1.865c0.266,0.133,0.6,0.535,0.6,0.934
					c0,0.732-1.066,1.398-1.867,1.867c0.066,4.332,0.066,5.264-0.132,6.266c-0.134,0.934-0.401,1.268-0.601,1.6l4.133,1.398
					c0.999,0.334,1.268,0.602,1.268,1.066c0,0.867-1.202,1.332-2.268,1.734c-0.066,1-0.066,1.264,0,2.066H62.196z M54.331,205.438
					c0.532,0.135,0.934,0.334,0.934,0.865c0,0.666-0.467,1-1.801,1.801c-0.065,2.865,0,6.264,0,8.33
					c0,1.268,0.201,6.732,0.201,7.867c0,1.932-1.602,2.799-3.332,2.799c-1.334,0-1.469-0.867-1.469-1.533
					c0-1.932,0.27-10.463,0.27-12.195c0-4.867-0.201-6.27-0.936-9.535L54.331,205.438z M66.062,203.904
					c0.334,0.066,0.934,0.334,0.934,0.801c0,0.932-1.4,1.73-2.001,1.998c0,4.932-0.065,9.197,0.069,14.264
					c0,0.867,0.132,4.6,0.132,5.334c0,2.93,0,6.598-7.132,8.463c-0.732-2.199-1.332-3.932-4.133-6.064v-0.4
					c0.867,0.066,2.133,0.201,3.6,0.201c2.398,0,2.533-0.268,2.668-0.666c0.133-0.334,0.266-0.734,0.266-3.867
					c0-9.998,0-15.73-0.467-18.795c-0.201-1.4-0.467-2.336-0.733-3.199L66.062,203.904z"/>
				<path fill="#0A3854" d="M10.741,285.881c3,0.398,9.663,2.398,9.663,6.93c0,1.066-0.533,2.934-2.731,2.934
					c-1.867,0-2.199-0.734-3.866-4.598c-0.801-1.734-1.467-2.6-3.335-4.732L10.741,285.881z M25.536,291.479
					c-0.599,3.064-2.465,12.133-3.799,17.527c-0.932,3.734-1,4.734-1,5.668c0,0.666,0,1.666,1.134,5.398
					c1.001,3.199,1.2,3.998,1.2,5.199c0,1.865-1.133,3.6-3.268,3.6c-3.131,0-3.131-2.998-3.131-4.133s0.267-6.133,0.267-7.133
					c0-1.6,0-2.867-1.667-4.732c-1.134-1.197-2.133-1.531-2.865-1.799l0.066-0.467c2.732-0.334,3.664-1.066,4.531-2.465
					c2.866-4.6,6.266-12.666,7.998-16.799L25.536,291.479z M16.872,269.15c5.332,1,9.865,3.598,9.865,7.33c0,1-0.6,2.934-2.6,2.934
					c-1.865,0-2.332-1.135-3.466-3.666c-1.133-2.533-2.8-4.799-3.933-6.131L16.872,269.15z M51.999,309.873
					c7.998,2.734,16.662,9.6,16.662,14.531c0,1.932-1.533,3-2.867,3c-1.267,0-2.266-0.533-3.531-2.932
					c-1.268-2.533-1.866-3.533-2.533-4.6c-5.864,1.732-8.062,2.197-22.662,5.064c-0.866,0.201-5.131,1.268-5.399,1.268
					c-0.599,0-1.133-0.268-1.599-2c-0.135-0.4-0.866-2.334-0.866-2.732c0-0.533,0.334-0.932,1.134-1.533
					c3.798-2.801,11.33-15.598,12.729-19.662h-7.199c-0.798,0-4.599,0-7.864,0.6l-1.332-2.6c4.531,0.334,8.998,0.4,10.266,0.4h7.796
					v-14.932h-4.599c-1.599,0-4.799,0-7.864,0.602l-1.333-2.668c4.6,0.4,9.197,0.469,10.264,0.469h3.532
					c0-3.535,0-8.064-0.399-10.732c-0.066-0.133-1-3.533-1.133-3.934l7.531,2.068c0.467,0.133,1.132,0.332,1.132,0.934
					c0,0.666-0.466,1.066-2.397,1.93v9.734h9.064l2.6-2.936c0.666-0.73,0.732-0.863,1.066-0.863c0.266,0,0.334,0.064,1.199,0.732
					l3.799,2.932c0.334,0.199,0.668,0.602,0.668,1c0,0.6-0.533,0.732-1.002,0.732H49.466v14.932h11.729l2.933-3.467
					c0.533-0.6,0.668-0.865,1.067-0.865c0.267,0,0.532,0.197,1.2,0.732l4.066,3.465c0.332,0.334,0.666,0.6,0.666,1.068
					c0,0.598-0.602,0.666-1,0.666H49.065c-3.066,5.6-7.066,12.797-15.998,20.594c4.133,0,19.396-1.664,25.662-2.533
					c-1.133-1.799-4.532-5.996-6.931-7.998L51.999,309.873z"/>
			</g>
		</g>
	</g>
</g>
</svg>
